<?xml version="1.0" encoding="utf-8" standalone="no"?>
<!DOCTYPE svg PUBLIC "-//W3C//DTD SVG 1.1//EN"
  "http://www.w3.org/Graphics/SVG/1.1/DTD/svg11.dtd">
<!-- Created with matplotlib (https://matplotlib.org/) -->
<svg height="280.8pt" version="1.1" viewBox="0 0 323.235234 280.8" width="323.235234pt" xmlns="http://www.w3.org/2000/svg" xmlns:xlink="http://www.w3.org/1999/xlink">
 <metadata>
  <rdf:RDF xmlns:cc="http://creativecommons.org/ns#" xmlns:dc="http://purl.org/dc/elements/1.1/" xmlns:rdf="http://www.w3.org/1999/02/22-rdf-syntax-ns#">
   <cc:Work>
    <dc:type rdf:resource="http://purl.org/dc/dcmitype/StillImage"/>
    <dc:date>2021-10-23T22:08:57.868098</dc:date>
    <dc:format>image/svg+xml</dc:format>
    <dc:creator>
     <cc:Agent>
      <dc:title>Matplotlib v3.3.4, https://matplotlib.org/</dc:title>
     </cc:Agent>
    </dc:creator>
   </cc:Work>
  </rdf:RDF>
 </metadata>
 <defs>
  <style type="text/css">*{stroke-linecap:butt;stroke-linejoin:round;}</style>
 </defs>
 <g id="figure_1">
  <g id="patch_1">
   <path d="M 0 280.8 
L 323.235234 280.8 
L 323.235234 0 
L 0 0 
z
" style="fill:none;"/>
  </g>
  <g id="axes_1">
   <g id="patch_2">
    <path d="M 7.2 273.6 
L 316.035234 273.6 
L 316.035234 7.2 
L 7.2 7.2 
z
" style="fill:#ffffff;"/>
   </g>
   <g id="PathCollection_1">
    <path clip-path="url(#p378ba2090c)" d="M 161.617617 221.384289 
C 162.03694 221.384289 162.439145 221.217691 162.735651 220.921184 
C 163.032157 220.624678 163.198756 220.222473 163.198756 219.80315 
C 163.198756 219.383828 163.032157 218.981623 162.735651 218.685116 
C 162.439145 218.38861 162.03694 218.222012 161.617617 218.222012 
C 161.198294 218.222012 160.796089 218.38861 160.499583 218.685116 
C 160.203077 218.981623 160.036478 219.383828 160.036478 219.80315 
C 160.036478 220.222473 160.203077 220.624678 160.499583 220.921184 
C 160.796089 221.217691 161.198294 221.384289 161.617617 221.384289 
z
"/>
   </g>
   <g id="patch_3">
    <path clip-path="url(#p378ba2090c)" d="M 157.453534 251.219125 
L 165.781701 251.219125 
L 174.208627 250.266375 
L 172.938541 226.264457 
L 172.635412 220.536096 
L 161.617617 216.693527 
L 150.599822 220.536096 
L 150.296693 226.264457 
L 149.026608 250.266375 
z
" style="fill:#0000ff;opacity:0.2;"/>
   </g>
   <g id="line2d_1">
    <path clip-path="url(#p378ba2090c)" d="M 161.617617 171.587109 
L 203.373934 243.911171 
" style="fill:none;stroke:#808080;stroke-linecap:square;"/>
   </g>
   <g id="line2d_2">
    <path clip-path="url(#p378ba2090c)" d="M 161.617617 171.587109 
L 119.8613 243.911171 
" style="fill:none;stroke:#808080;stroke-linecap:square;"/>
   </g>
   <g id="line2d_3">
    <path clip-path="url(#p378ba2090c)" d="M 203.373934 243.911171 
L 119.8613 243.911171 
" style="fill:none;stroke:#808080;stroke-linecap:square;"/>
   </g>
   <g id="line2d_4">
    <path clip-path="url(#p378ba2090c)" d="M 148.976192 251.219125 
L 174.259042 251.219125 
" style="fill:none;stroke:#800080;stroke-linecap:square;"/>
   </g>
   <g id="line2d_5">
    <path clip-path="url(#p378ba2090c)" d="M 148.976192 251.219125 
L 161.617617 12.323077 
" style="fill:none;stroke:#800080;stroke-linecap:square;"/>
   </g>
   <g id="line2d_6">
    <path clip-path="url(#p378ba2090c)" d="M 174.259042 251.219125 
L 161.617617 12.323077 
" style="fill:none;stroke:#800080;stroke-linecap:square;"/>
   </g>
   <g id="line2d_7">
    <path clip-path="url(#p378ba2090c)" d="M 310.096095 268.476923 
L 149.026578 250.266371 
" style="fill:none;stroke:#ffa500;stroke-linecap:square;"/>
   </g>
   <g id="line2d_8">
    <path clip-path="url(#p378ba2090c)" d="M 310.096095 268.476923 
L 150.999129 212.99022 
" style="fill:none;stroke:#ffa500;stroke-linecap:square;"/>
   </g>
   <g id="line2d_9">
    <path clip-path="url(#p378ba2090c)" d="M 149.026578 250.266371 
L 150.999129 212.99022 
" style="fill:none;stroke:#ffa500;stroke-linecap:square;"/>
   </g>
   <g id="line2d_10">
    <path clip-path="url(#p378ba2090c)" d="M 13.139139 268.476923 
L 174.208656 250.266371 
" style="fill:none;stroke:#008000;stroke-linecap:square;"/>
   </g>
   <g id="line2d_11">
    <path clip-path="url(#p378ba2090c)" d="M 13.139139 268.476923 
L 172.236105 212.99022 
" style="fill:none;stroke:#008000;stroke-linecap:square;"/>
   </g>
   <g id="line2d_12">
    <path clip-path="url(#p378ba2090c)" d="M 174.208656 250.266371 
L 172.236105 212.99022 
" style="fill:none;stroke:#008000;stroke-linecap:square;"/>
   </g>
   <g id="line2d_13">
    <path clip-path="url(#p378ba2090c)" d="M 165.781701 251.219125 
L 174.208627 250.266375 
" style="fill:none;stroke:#0000ff;stroke-linecap:square;stroke-opacity:0.2;"/>
   </g>
   <g id="line2d_14">
    <path clip-path="url(#p378ba2090c)" d="M 165.781701 251.219125 
L 157.453534 251.219125 
" style="fill:none;stroke:#0000ff;stroke-linecap:square;stroke-opacity:0.2;"/>
   </g>
   <g id="line2d_15">
    <path clip-path="url(#p378ba2090c)" d="M 174.208627 250.266375 
L 172.938541 226.264457 
" style="fill:none;stroke:#0000ff;stroke-linecap:square;stroke-opacity:0.2;"/>
   </g>
   <g id="line2d_16">
    <path clip-path="url(#p378ba2090c)" d="M 172.938541 226.264457 
L 172.635412 220.536096 
" style="fill:none;stroke:#0000ff;stroke-linecap:square;stroke-opacity:0.2;"/>
   </g>
   <g id="line2d_17">
    <path clip-path="url(#p378ba2090c)" d="M 172.635412 220.536096 
L 161.617617 216.693527 
" style="fill:none;stroke:#0000ff;stroke-linecap:square;stroke-opacity:0.2;"/>
   </g>
   <g id="line2d_18">
    <path clip-path="url(#p378ba2090c)" d="M 161.617617 216.693527 
L 150.599822 220.536096 
" style="fill:none;stroke:#0000ff;stroke-linecap:square;stroke-opacity:0.2;"/>
   </g>
   <g id="line2d_19">
    <path clip-path="url(#p378ba2090c)" d="M 150.599822 220.536096 
L 150.296693 226.264457 
" style="fill:none;stroke:#0000ff;stroke-linecap:square;stroke-opacity:0.2;"/>
   </g>
   <g id="line2d_20">
    <path clip-path="url(#p378ba2090c)" d="M 150.296693 226.264457 
L 149.026608 250.266375 
" style="fill:none;stroke:#0000ff;stroke-linecap:square;stroke-opacity:0.2;"/>
   </g>
   <g id="line2d_21">
    <path clip-path="url(#p378ba2090c)" d="M 149.026608 250.266375 
L 157.453534 251.219125 
" style="fill:none;stroke:#0000ff;stroke-linecap:square;stroke-opacity:0.2;"/>
   </g>
   <g id="matplotlib.axis_1"/>
   <g id="matplotlib.axis_2"/>
   <g id="PathCollection_2">
    <defs>
     <path d="M 0 1.581139 
C 0.419323 1.581139 0.821528 1.41454 1.118034 1.118034 
C 1.41454 0.821528 1.581139 0.419323 1.581139 -0 
C 1.581139 -0.419323 1.41454 -0.821528 1.118034 -1.118034 
C 0.821528 -1.41454 0.419323 -1.581139 0 -1.581139 
C -0.419323 -1.581139 -0.821528 -1.41454 -1.118034 -1.118034 
C -1.41454 -0.821528 -1.581139 -0.419323 -1.581139 0 
C -1.581139 0.419323 -1.41454 0.821528 -1.118034 1.118034 
C -0.821528 1.41454 -0.419323 1.581139 0 1.581139 
z
" id="C0_0_8355d60010"/>
    </defs>
    <g clip-path="url(#p378ba2090c)">
     <use style="fill:#808080;" x="161.617617" xlink:href="#C0_0_8355d60010" y="171.587109"/>
    </g>
    <g clip-path="url(#p378ba2090c)">
     <use style="fill:#808080;" x="203.373934" xlink:href="#C0_0_8355d60010" y="243.911171"/>
    </g>
    <g clip-path="url(#p378ba2090c)">
     <use style="fill:#808080;" x="119.8613" xlink:href="#C0_0_8355d60010" y="243.911171"/>
    </g>
   </g>
   <g id="PathCollection_3">
    <defs>
     <path d="M 0 1.581139 
C 0.419323 1.581139 0.821528 1.41454 1.118034 1.118034 
C 1.41454 0.821528 1.581139 0.419323 1.581139 -0 
C 1.581139 -0.419323 1.41454 -0.821528 1.118034 -1.118034 
C 0.821528 -1.41454 0.419323 -1.581139 0 -1.581139 
C -0.419323 -1.581139 -0.821528 -1.41454 -1.118034 -1.118034 
C -1.41454 -0.821528 -1.581139 -0.419323 -1.581139 0 
C -1.581139 0.419323 -1.41454 0.821528 -1.118034 1.118034 
C -0.821528 1.41454 -0.419323 1.581139 0 1.581139 
z
" id="C1_0_a3632d0760"/>
    </defs>
    <g clip-path="url(#p378ba2090c)">
     <use style="fill:#800080;" x="148.976192" xlink:href="#C1_0_a3632d0760" y="251.219125"/>
    </g>
    <g clip-path="url(#p378ba2090c)">
     <use style="fill:#800080;" x="174.259042" xlink:href="#C1_0_a3632d0760" y="251.219125"/>
    </g>
    <g clip-path="url(#p378ba2090c)">
     <use style="fill:#800080;" x="161.617617" xlink:href="#C1_0_a3632d0760" y="12.323077"/>
    </g>
   </g>
   <g id="PathCollection_4">
    <defs>
     <path d="M 0 1.581139 
C 0.419323 1.581139 0.821528 1.41454 1.118034 1.118034 
C 1.41454 0.821528 1.581139 0.419323 1.581139 -0 
C 1.581139 -0.419323 1.41454 -0.821528 1.118034 -1.118034 
C 0.821528 -1.41454 0.419323 -1.581139 0 -1.581139 
C -0.419323 -1.581139 -0.821528 -1.41454 -1.118034 -1.118034 
C -1.41454 -0.821528 -1.581139 -0.419323 -1.581139 0 
C -1.581139 0.419323 -1.41454 0.821528 -1.118034 1.118034 
C -0.821528 1.41454 -0.419323 1.581139 0 1.581139 
z
" id="C2_0_c0c64d2fed"/>
    </defs>
    <g clip-path="url(#p378ba2090c)">
     <use style="fill:#ffa500;" x="310.096095" xlink:href="#C2_0_c0c64d2fed" y="268.476923"/>
    </g>
    <g clip-path="url(#p378ba2090c)">
     <use style="fill:#ffa500;" x="149.026578" xlink:href="#C2_0_c0c64d2fed" y="250.266371"/>
    </g>
    <g clip-path="url(#p378ba2090c)">
     <use style="fill:#ffa500;" x="150.999129" xlink:href="#C2_0_c0c64d2fed" y="212.99022"/>
    </g>
   </g>
   <g id="PathCollection_5">
    <defs>
     <path d="M 0 1.581139 
C 0.419323 1.581139 0.821528 1.41454 1.118034 1.118034 
C 1.41454 0.821528 1.581139 0.419323 1.581139 -0 
C 1.581139 -0.419323 1.41454 -0.821528 1.118034 -1.118034 
C 0.821528 -1.41454 0.419323 -1.581139 0 -1.581139 
C -0.419323 -1.581139 -0.821528 -1.41454 -1.118034 -1.118034 
C -1.41454 -0.821528 -1.581139 -0.419323 -1.581139 0 
C -1.581139 0.419323 -1.41454 0.821528 -1.118034 1.118034 
C -0.821528 1.41454 -0.419323 1.581139 0 1.581139 
z
" id="C3_0_5c4133b2d7"/>
    </defs>
    <g clip-path="url(#p378ba2090c)">
     <use style="fill:#008000;" x="13.139139" xlink:href="#C3_0_5c4133b2d7" y="268.476923"/>
    </g>
    <g clip-path="url(#p378ba2090c)">
     <use style="fill:#008000;" x="174.208656" xlink:href="#C3_0_5c4133b2d7" y="250.266371"/>
    </g>
    <g clip-path="url(#p378ba2090c)">
     <use style="fill:#008000;" x="172.236105" xlink:href="#C3_0_5c4133b2d7" y="212.99022"/>
    </g>
   </g>
   <g id="PathCollection_6">
    <defs>
     <path d="M 0 1.581139 
C 0.419323 1.581139 0.821528 1.41454 1.118034 1.118034 
C 1.41454 0.821528 1.581139 0.419323 1.581139 -0 
C 1.581139 -0.419323 1.41454 -0.821528 1.118034 -1.118034 
C 0.821528 -1.41454 0.419323 -1.581139 0 -1.581139 
C -0.419323 -1.581139 -0.821528 -1.41454 -1.118034 -1.118034 
C -1.41454 -0.821528 -1.581139 -0.419323 -1.581139 0 
C -1.581139 0.419323 -1.41454 0.821528 -1.118034 1.118034 
C -0.821528 1.41454 -0.419323 1.581139 0 1.581139 
z
" id="C4_0_c019027971"/>
    </defs>
    <g clip-path="url(#p378ba2090c)">
     <use style="fill:#0000ff;fill-opacity:0.2;" x="165.781701" xlink:href="#C4_0_c019027971" y="251.219125"/>
    </g>
    <g clip-path="url(#p378ba2090c)">
     <use style="fill:#0000ff;fill-opacity:0.2;" x="174.208627" xlink:href="#C4_0_c019027971" y="250.266375"/>
    </g>
    <g clip-path="url(#p378ba2090c)">
     <use style="fill:#0000ff;fill-opacity:0.2;" x="172.938541" xlink:href="#C4_0_c019027971" y="226.264457"/>
    </g>
    <g clip-path="url(#p378ba2090c)">
     <use style="fill:#0000ff;fill-opacity:0.2;" x="172.635412" xlink:href="#C4_0_c019027971" y="220.536096"/>
    </g>
    <g clip-path="url(#p378ba2090c)">
     <use style="fill:#0000ff;fill-opacity:0.2;" x="161.617617" xlink:href="#C4_0_c019027971" y="216.693527"/>
    </g>
    <g clip-path="url(#p378ba2090c)">
     <use style="fill:#0000ff;fill-opacity:0.2;" x="150.599822" xlink:href="#C4_0_c019027971" y="220.536096"/>
    </g>
    <g clip-path="url(#p378ba2090c)">
     <use style="fill:#0000ff;fill-opacity:0.2;" x="150.296693" xlink:href="#C4_0_c019027971" y="226.264457"/>
    </g>
    <g clip-path="url(#p378ba2090c)">
     <use style="fill:#0000ff;fill-opacity:0.2;" x="149.026608" xlink:href="#C4_0_c019027971" y="250.266375"/>
    </g>
    <g clip-path="url(#p378ba2090c)">
     <use style="fill:#0000ff;fill-opacity:0.2;" x="157.453534" xlink:href="#C4_0_c019027971" y="251.219125"/>
    </g>
   </g>
  </g>
 </g>
 <defs>
  <clipPath id="p378ba2090c">
   <rect height="266.4" width="308.835234" x="7.2" y="7.2"/>
  </clipPath>
 </defs>
</svg>
