<?xml version="1.0" encoding="utf-8" standalone="no"?>
<!DOCTYPE svg PUBLIC "-//W3C//DTD SVG 1.1//EN"
  "http://www.w3.org/Graphics/SVG/1.1/DTD/svg11.dtd">
<!-- Created with matplotlib (https://matplotlib.org/) -->
<svg height="280.8pt" version="1.1" viewBox="0 0 323.692692 280.8" width="323.692692pt" xmlns="http://www.w3.org/2000/svg" xmlns:xlink="http://www.w3.org/1999/xlink">
 <metadata>
  <rdf:RDF xmlns:cc="http://creativecommons.org/ns#" xmlns:dc="http://purl.org/dc/elements/1.1/" xmlns:rdf="http://www.w3.org/1999/02/22-rdf-syntax-ns#">
   <cc:Work>
    <dc:type rdf:resource="http://purl.org/dc/dcmitype/StillImage"/>
    <dc:date>2021-10-23T13:09:52.265297</dc:date>
    <dc:format>image/svg+xml</dc:format>
    <dc:creator>
     <cc:Agent>
      <dc:title>Matplotlib v3.3.4, https://matplotlib.org/</dc:title>
     </cc:Agent>
    </dc:creator>
   </cc:Work>
  </rdf:RDF>
 </metadata>
 <defs>
  <style type="text/css">*{stroke-linecap:butt;stroke-linejoin:round;}</style>
 </defs>
 <g id="figure_1">
  <g id="patch_1">
   <path d="M -0 280.8 
L 323.692692 280.8 
L 323.692692 0 
L -0 0 
z
" style="fill:none;"/>
  </g>
  <g id="axes_1">
   <g id="patch_2">
    <path d="M 7.2 273.6 
L 316.492692 273.6 
L 316.492692 7.2 
L 7.2 7.2 
z
" style="fill:#ffffff;"/>
   </g>
   <g id="PathCollection_1">
    <path clip-path="url(#pc5a3d3fc50)" d="M 156.226475 203.88278 
C 156.645798 203.88278 157.048003 203.716182 157.344509 203.419675 
C 157.641015 203.123169 157.807614 202.720964 157.807614 202.301641 
C 157.807614 201.882319 157.641015 201.480114 157.344509 201.183607 
C 157.048003 200.887101 156.645798 200.720503 156.226475 200.720503 
C 155.807152 200.720503 155.404947 200.887101 155.108441 201.183607 
C 154.811935 201.480114 154.645336 201.882319 154.645336 202.301641 
C 154.645336 202.720964 154.811935 203.123169 155.108441 203.419675 
C 155.404947 203.716182 155.807152 203.88278 156.226475 203.88278 
z
"/>
   </g>
   <g id="patch_3">
    <path clip-path="url(#pc5a3d3fc50)" d="M 151.332669 193.361941 
L 165.479295 199.811809 
L 166.062877 207.28859 
L 166.278935 223.948391 
L 158.126007 226.319158 
L 149.589612 225.569204 
L 139.094731 222.936127 
L 140.61241 209.2744 
L 141.865426 198.508181 
z
" style="fill:#0000ff;opacity:0.2;"/>
   </g>
   <g id="line2d_1">
    <path clip-path="url(#pc5a3d3fc50)" d="M 156.226475 154.661867 
L 197.483729 226.121528 
" style="fill:none;stroke:#808080;stroke-linecap:square;"/>
   </g>
   <g id="line2d_2">
    <path clip-path="url(#pc5a3d3fc50)" d="M 156.226475 154.661867 
L 114.96922 226.121528 
" style="fill:none;stroke:#808080;stroke-linecap:square;"/>
   </g>
   <g id="line2d_3">
    <path clip-path="url(#pc5a3d3fc50)" d="M 197.483729 226.121528 
L 114.96922 226.121528 
" style="fill:none;stroke:#808080;stroke-linecap:square;"/>
   </g>
   <g id="line2d_4">
    <path clip-path="url(#pc5a3d3fc50)" d="M 138.82601 224.623581 
L 163.534398 12.323077 
" style="fill:none;stroke:#800080;stroke-linecap:square;"/>
   </g>
   <g id="line2d_5">
    <path clip-path="url(#pc5a3d3fc50)" d="M 138.82601 224.623581 
L 166.319016 227.038945 
" style="fill:none;stroke:#800080;stroke-linecap:square;"/>
   </g>
   <g id="line2d_6">
    <path clip-path="url(#pc5a3d3fc50)" d="M 163.534398 12.323077 
L 166.319016 227.038945 
" style="fill:none;stroke:#800080;stroke-linecap:square;"/>
   </g>
   <g id="line2d_7">
    <path clip-path="url(#pc5a3d3fc50)" d="M 142.811701 189.476977 
L 139.094731 222.936127 
" style="fill:none;stroke:#ffa500;stroke-linecap:square;"/>
   </g>
   <g id="line2d_8">
    <path clip-path="url(#pc5a3d3fc50)" d="M 142.811701 189.476977 
L 310.544756 265.951481 
" style="fill:none;stroke:#ffa500;stroke-linecap:square;"/>
   </g>
   <g id="line2d_9">
    <path clip-path="url(#pc5a3d3fc50)" d="M 139.094731 222.936127 
L 310.544756 265.951481 
" style="fill:none;stroke:#ffa500;stroke-linecap:square;"/>
   </g>
   <g id="line2d_10">
    <path clip-path="url(#pc5a3d3fc50)" d="M 13.147936 268.476923 
L 167.339155 223.640093 
" style="fill:none;stroke:#008000;stroke-linecap:square;"/>
   </g>
   <g id="line2d_11">
    <path clip-path="url(#pc5a3d3fc50)" d="M 13.147936 268.476923 
L 164.42057 186.247569 
" style="fill:none;stroke:#008000;stroke-linecap:square;"/>
   </g>
   <g id="line2d_12">
    <path clip-path="url(#pc5a3d3fc50)" d="M 167.339155 223.640093 
L 164.42057 186.247569 
" style="fill:none;stroke:#008000;stroke-linecap:square;"/>
   </g>
   <g id="line2d_13">
    <path clip-path="url(#pc5a3d3fc50)" d="M 165.479295 199.811809 
L 166.062877 207.28859 
" style="fill:none;stroke:#0000ff;stroke-linecap:square;stroke-opacity:0.2;"/>
   </g>
   <g id="line2d_14">
    <path clip-path="url(#pc5a3d3fc50)" d="M 165.479295 199.811809 
L 151.332669 193.361941 
" style="fill:none;stroke:#0000ff;stroke-linecap:square;stroke-opacity:0.2;"/>
   </g>
   <g id="line2d_15">
    <path clip-path="url(#pc5a3d3fc50)" d="M 166.062877 207.28859 
L 166.278935 223.948391 
" style="fill:none;stroke:#0000ff;stroke-linecap:square;stroke-opacity:0.2;"/>
   </g>
   <g id="line2d_16">
    <path clip-path="url(#pc5a3d3fc50)" d="M 166.278935 223.948391 
L 158.126007 226.319158 
" style="fill:none;stroke:#0000ff;stroke-linecap:square;stroke-opacity:0.2;"/>
   </g>
   <g id="line2d_17">
    <path clip-path="url(#pc5a3d3fc50)" d="M 158.126007 226.319158 
L 149.589612 225.569204 
" style="fill:none;stroke:#0000ff;stroke-linecap:square;stroke-opacity:0.2;"/>
   </g>
   <g id="line2d_18">
    <path clip-path="url(#pc5a3d3fc50)" d="M 140.61241 209.2744 
L 139.094731 222.936127 
" style="fill:none;stroke:#0000ff;stroke-linecap:square;stroke-opacity:0.2;"/>
   </g>
   <g id="line2d_19">
    <path clip-path="url(#pc5a3d3fc50)" d="M 140.61241 209.2744 
L 141.865426 198.508181 
" style="fill:none;stroke:#0000ff;stroke-linecap:square;stroke-opacity:0.2;"/>
   </g>
   <g id="line2d_20">
    <path clip-path="url(#pc5a3d3fc50)" d="M 149.589612 225.569204 
L 139.094731 222.936127 
" style="fill:none;stroke:#0000ff;stroke-linecap:square;stroke-opacity:0.2;"/>
   </g>
   <g id="line2d_21">
    <path clip-path="url(#pc5a3d3fc50)" d="M 141.865426 198.508181 
L 151.332669 193.361941 
" style="fill:none;stroke:#0000ff;stroke-linecap:square;stroke-opacity:0.2;"/>
   </g>
   <g id="matplotlib.axis_1"/>
   <g id="matplotlib.axis_2"/>
   <g id="PathCollection_2">
    <defs>
     <path d="M 0 1.581139 
C 0.419323 1.581139 0.821528 1.41454 1.118034 1.118034 
C 1.41454 0.821528 1.581139 0.419323 1.581139 -0 
C 1.581139 -0.419323 1.41454 -0.821528 1.118034 -1.118034 
C 0.821528 -1.41454 0.419323 -1.581139 0 -1.581139 
C -0.419323 -1.581139 -0.821528 -1.41454 -1.118034 -1.118034 
C -1.41454 -0.821528 -1.581139 -0.419323 -1.581139 0 
C -1.581139 0.419323 -1.41454 0.821528 -1.118034 1.118034 
C -0.821528 1.41454 -0.419323 1.581139 0 1.581139 
z
" id="C0_0_ca559a9056"/>
    </defs>
    <g clip-path="url(#pc5a3d3fc50)">
     <use style="fill:#808080;" x="156.226475" xlink:href="#C0_0_ca559a9056" y="154.661867"/>
    </g>
    <g clip-path="url(#pc5a3d3fc50)">
     <use style="fill:#808080;" x="197.483729" xlink:href="#C0_0_ca559a9056" y="226.121528"/>
    </g>
    <g clip-path="url(#pc5a3d3fc50)">
     <use style="fill:#808080;" x="114.96922" xlink:href="#C0_0_ca559a9056" y="226.121528"/>
    </g>
   </g>
   <g id="PathCollection_3">
    <defs>
     <path d="M 0 1.581139 
C 0.419323 1.581139 0.821528 1.41454 1.118034 1.118034 
C 1.41454 0.821528 1.581139 0.419323 1.581139 -0 
C 1.581139 -0.419323 1.41454 -0.821528 1.118034 -1.118034 
C 0.821528 -1.41454 0.419323 -1.581139 0 -1.581139 
C -0.419323 -1.581139 -0.821528 -1.41454 -1.118034 -1.118034 
C -1.41454 -0.821528 -1.581139 -0.419323 -1.581139 0 
C -1.581139 0.419323 -1.41454 0.821528 -1.118034 1.118034 
C -0.821528 1.41454 -0.419323 1.581139 0 1.581139 
z
" id="C1_0_51a18bb4d6"/>
    </defs>
    <g clip-path="url(#pc5a3d3fc50)">
     <use style="fill:#800080;" x="138.82601" xlink:href="#C1_0_51a18bb4d6" y="224.623581"/>
    </g>
    <g clip-path="url(#pc5a3d3fc50)">
     <use style="fill:#800080;" x="163.534398" xlink:href="#C1_0_51a18bb4d6" y="12.323077"/>
    </g>
    <g clip-path="url(#pc5a3d3fc50)">
     <use style="fill:#800080;" x="166.319016" xlink:href="#C1_0_51a18bb4d6" y="227.038945"/>
    </g>
   </g>
   <g id="PathCollection_4">
    <defs>
     <path d="M 0 1.581139 
C 0.419323 1.581139 0.821528 1.41454 1.118034 1.118034 
C 1.41454 0.821528 1.581139 0.419323 1.581139 -0 
C 1.581139 -0.419323 1.41454 -0.821528 1.118034 -1.118034 
C 0.821528 -1.41454 0.419323 -1.581139 0 -1.581139 
C -0.419323 -1.581139 -0.821528 -1.41454 -1.118034 -1.118034 
C -1.41454 -0.821528 -1.581139 -0.419323 -1.581139 0 
C -1.581139 0.419323 -1.41454 0.821528 -1.118034 1.118034 
C -0.821528 1.41454 -0.419323 1.581139 0 1.581139 
z
" id="C2_0_0907a8f115"/>
    </defs>
    <g clip-path="url(#pc5a3d3fc50)">
     <use style="fill:#ffa500;" x="142.811701" xlink:href="#C2_0_0907a8f115" y="189.476977"/>
    </g>
    <g clip-path="url(#pc5a3d3fc50)">
     <use style="fill:#ffa500;" x="139.094731" xlink:href="#C2_0_0907a8f115" y="222.936127"/>
    </g>
    <g clip-path="url(#pc5a3d3fc50)">
     <use style="fill:#ffa500;" x="310.544756" xlink:href="#C2_0_0907a8f115" y="265.951481"/>
    </g>
   </g>
   <g id="PathCollection_5">
    <defs>
     <path d="M 0 1.581139 
C 0.419323 1.581139 0.821528 1.41454 1.118034 1.118034 
C 1.41454 0.821528 1.581139 0.419323 1.581139 -0 
C 1.581139 -0.419323 1.41454 -0.821528 1.118034 -1.118034 
C 0.821528 -1.41454 0.419323 -1.581139 0 -1.581139 
C -0.419323 -1.581139 -0.821528 -1.41454 -1.118034 -1.118034 
C -1.41454 -0.821528 -1.581139 -0.419323 -1.581139 0 
C -1.581139 0.419323 -1.41454 0.821528 -1.118034 1.118034 
C -0.821528 1.41454 -0.419323 1.581139 0 1.581139 
z
" id="C3_0_1555cfb954"/>
    </defs>
    <g clip-path="url(#pc5a3d3fc50)">
     <use style="fill:#008000;" x="13.147936" xlink:href="#C3_0_1555cfb954" y="268.476923"/>
    </g>
    <g clip-path="url(#pc5a3d3fc50)">
     <use style="fill:#008000;" x="167.339155" xlink:href="#C3_0_1555cfb954" y="223.640093"/>
    </g>
    <g clip-path="url(#pc5a3d3fc50)">
     <use style="fill:#008000;" x="164.42057" xlink:href="#C3_0_1555cfb954" y="186.247569"/>
    </g>
   </g>
   <g id="PathCollection_6">
    <defs>
     <path d="M 0 1.581139 
C 0.419323 1.581139 0.821528 1.41454 1.118034 1.118034 
C 1.41454 0.821528 1.581139 0.419323 1.581139 -0 
C 1.581139 -0.419323 1.41454 -0.821528 1.118034 -1.118034 
C 0.821528 -1.41454 0.419323 -1.581139 0 -1.581139 
C -0.419323 -1.581139 -0.821528 -1.41454 -1.118034 -1.118034 
C -1.41454 -0.821528 -1.581139 -0.419323 -1.581139 0 
C -1.581139 0.419323 -1.41454 0.821528 -1.118034 1.118034 
C -0.821528 1.41454 -0.419323 1.581139 0 1.581139 
z
" id="C4_0_38cd4be26b"/>
    </defs>
    <g clip-path="url(#pc5a3d3fc50)">
     <use style="fill:#0000ff;fill-opacity:0.2;" x="165.479295" xlink:href="#C4_0_38cd4be26b" y="199.811809"/>
    </g>
    <g clip-path="url(#pc5a3d3fc50)">
     <use style="fill:#0000ff;fill-opacity:0.2;" x="166.062877" xlink:href="#C4_0_38cd4be26b" y="207.28859"/>
    </g>
    <g clip-path="url(#pc5a3d3fc50)">
     <use style="fill:#0000ff;fill-opacity:0.2;" x="166.278935" xlink:href="#C4_0_38cd4be26b" y="223.948391"/>
    </g>
    <g clip-path="url(#pc5a3d3fc50)">
     <use style="fill:#0000ff;fill-opacity:0.2;" x="158.126007" xlink:href="#C4_0_38cd4be26b" y="226.319158"/>
    </g>
    <g clip-path="url(#pc5a3d3fc50)">
     <use style="fill:#0000ff;fill-opacity:0.2;" x="140.61241" xlink:href="#C4_0_38cd4be26b" y="209.2744"/>
    </g>
    <g clip-path="url(#pc5a3d3fc50)">
     <use style="fill:#0000ff;fill-opacity:0.2;" x="149.589612" xlink:href="#C4_0_38cd4be26b" y="225.569204"/>
    </g>
    <g clip-path="url(#pc5a3d3fc50)">
     <use style="fill:#0000ff;fill-opacity:0.2;" x="139.094731" xlink:href="#C4_0_38cd4be26b" y="222.936127"/>
    </g>
    <g clip-path="url(#pc5a3d3fc50)">
     <use style="fill:#0000ff;fill-opacity:0.2;" x="141.865426" xlink:href="#C4_0_38cd4be26b" y="198.508181"/>
    </g>
    <g clip-path="url(#pc5a3d3fc50)">
     <use style="fill:#0000ff;fill-opacity:0.2;" x="151.332669" xlink:href="#C4_0_38cd4be26b" y="193.361941"/>
    </g>
   </g>
  </g>
 </g>
 <defs>
  <clipPath id="pc5a3d3fc50">
   <rect height="266.4" width="309.292692" x="7.2" y="7.2"/>
  </clipPath>
 </defs>
</svg>
