<?xml version="1.0" encoding="utf-8" standalone="no"?>
<!DOCTYPE svg PUBLIC "-//W3C//DTD SVG 1.1//EN"
  "http://www.w3.org/Graphics/SVG/1.1/DTD/svg11.dtd">
<!-- Created with matplotlib (http://matplotlib.org/) -->
<svg height="463pt" version="1.1" viewBox="0 0 634 463" width="634pt" xmlns="http://www.w3.org/2000/svg" xmlns:xlink="http://www.w3.org/1999/xlink">
 <defs>
  <style type="text/css">
*{stroke-linecap:butt;stroke-linejoin:round;stroke-miterlimit:100000;}
  </style>
 </defs>
 <g id="figure_1">
  <g id="patch_1">
   <path d="M 0 463.202139 
L 634.367404 463.202139 
L 634.367404 0 
L 0 0 
z
" style="fill:#ffffff;"/>
  </g>
  <g id="axes_1">
   <g id="patch_2">
    <path d="M 7.2 456.002139 
L 557.28 456.002139 
L 557.28 49.922139 
L 7.2 49.922139 
z
" style="fill:#ffffff;"/>
   </g>
   <g id="PathCollection_1">
    <defs>
     <path d="M 0 1.581139 
C 0.419323 1.581139 0.821528 1.41454 1.118034 1.118034 
C 1.41454 0.821528 1.581139 0.419323 1.581139 0 
C 1.581139 -0.419323 1.41454 -0.821528 1.118034 -1.118034 
C 0.821528 -1.41454 0.419323 -1.581139 0 -1.581139 
C -0.419323 -1.581139 -0.821528 -1.41454 -1.118034 -1.118034 
C -1.41454 -0.821528 -1.581139 -0.419323 -1.581139 0 
C -1.581139 0.419323 -1.41454 0.821528 -1.118034 1.118034 
C -0.821528 1.41454 -0.419323 1.581139 0 1.581139 
z
" id="C0_0_66b7a8609c"/>
    </defs>
    <g clip-path="url(#p6cbbb08cae)">
     <use style="fill:#808080;" x="150.009230769" xlink:href="#C0_0_66b7a8609c" y="448.192908654"/>
    </g>
    <g clip-path="url(#p6cbbb08cae)">
     <use style="fill:#808080;" x="216.124615385" xlink:href="#C0_0_66b7a8609c" y="448.192908654"/>
    </g>
    <g clip-path="url(#p6cbbb08cae)">
     <use style="fill:#808080;" x="282.24" xlink:href="#C0_0_66b7a8609c" y="448.192908654"/>
    </g>
    <g clip-path="url(#p6cbbb08cae)">
     <use style="fill:#808080;" x="348.355384615" xlink:href="#C0_0_66b7a8609c" y="448.192908654"/>
    </g>
    <g clip-path="url(#p6cbbb08cae)">
     <use style="fill:#808080;" x="414.470769231" xlink:href="#C0_0_66b7a8609c" y="448.192908654"/>
    </g>
    <g clip-path="url(#p6cbbb08cae)">
     <use style="fill:#808080;" x="116.951538462" xlink:href="#C0_0_66b7a8609c" y="399.385216346"/>
    </g>
    <g clip-path="url(#p6cbbb08cae)">
     <use style="fill:#808080;" x="183.066923077" xlink:href="#C0_0_66b7a8609c" y="399.385216346"/>
    </g>
    <g clip-path="url(#p6cbbb08cae)">
     <use style="fill:#808080;" x="249.182307692" xlink:href="#C0_0_66b7a8609c" y="399.385216346"/>
    </g>
    <g clip-path="url(#p6cbbb08cae)">
     <use style="fill:#808080;" x="315.297692308" xlink:href="#C0_0_66b7a8609c" y="399.385216346"/>
    </g>
    <g clip-path="url(#p6cbbb08cae)">
     <use style="fill:#808080;" x="381.413076923" xlink:href="#C0_0_66b7a8609c" y="399.385216346"/>
    </g>
    <g clip-path="url(#p6cbbb08cae)">
     <use style="fill:#808080;" x="447.528461538" xlink:href="#C0_0_66b7a8609c" y="399.385216346"/>
    </g>
    <g clip-path="url(#p6cbbb08cae)">
     <use style="fill:#808080;" x="83.8938461538" xlink:href="#C0_0_66b7a8609c" y="350.577524038"/>
    </g>
    <g clip-path="url(#p6cbbb08cae)">
     <use style="fill:#808080;" x="150.009230769" xlink:href="#C0_0_66b7a8609c" y="350.577524038"/>
    </g>
    <g clip-path="url(#p6cbbb08cae)">
     <use style="fill:#808080;" x="216.124615385" xlink:href="#C0_0_66b7a8609c" y="350.577524038"/>
    </g>
    <g clip-path="url(#p6cbbb08cae)">
     <use style="fill:#808080;" x="282.24" xlink:href="#C0_0_66b7a8609c" y="350.577524038"/>
    </g>
    <g clip-path="url(#p6cbbb08cae)">
     <use style="fill:#808080;" x="348.355384615" xlink:href="#C0_0_66b7a8609c" y="350.577524038"/>
    </g>
    <g clip-path="url(#p6cbbb08cae)">
     <use style="fill:#808080;" x="414.470769231" xlink:href="#C0_0_66b7a8609c" y="350.577524038"/>
    </g>
    <g clip-path="url(#p6cbbb08cae)">
     <use style="fill:#808080;" x="480.586153846" xlink:href="#C0_0_66b7a8609c" y="350.577524038"/>
    </g>
    <g clip-path="url(#p6cbbb08cae)">
     <use style="fill:#808080;" x="50.8361538462" xlink:href="#C0_0_66b7a8609c" y="301.769831731"/>
    </g>
    <g clip-path="url(#p6cbbb08cae)">
     <use style="fill:#808080;" x="116.951538462" xlink:href="#C0_0_66b7a8609c" y="301.769831731"/>
    </g>
    <g clip-path="url(#p6cbbb08cae)">
     <use style="fill:#808080;" x="183.066923077" xlink:href="#C0_0_66b7a8609c" y="301.769831731"/>
    </g>
    <g clip-path="url(#p6cbbb08cae)">
     <use style="fill:#808080;" x="249.182307692" xlink:href="#C0_0_66b7a8609c" y="301.769831731"/>
    </g>
    <g clip-path="url(#p6cbbb08cae)">
     <use style="fill:#808080;" x="315.297692308" xlink:href="#C0_0_66b7a8609c" y="301.769831731"/>
    </g>
    <g clip-path="url(#p6cbbb08cae)">
     <use style="fill:#808080;" x="381.413076923" xlink:href="#C0_0_66b7a8609c" y="301.769831731"/>
    </g>
    <g clip-path="url(#p6cbbb08cae)">
     <use style="fill:#808080;" x="447.528461538" xlink:href="#C0_0_66b7a8609c" y="301.769831731"/>
    </g>
    <g clip-path="url(#p6cbbb08cae)">
     <use style="fill:#808080;" x="513.643846154" xlink:href="#C0_0_66b7a8609c" y="301.769831731"/>
    </g>
    <g clip-path="url(#p6cbbb08cae)">
     <use style="fill:#808080;" x="17.7784615385" xlink:href="#C0_0_66b7a8609c" y="252.962139423"/>
    </g>
    <g clip-path="url(#p6cbbb08cae)">
     <use style="fill:#808080;" x="83.8938461538" xlink:href="#C0_0_66b7a8609c" y="252.962139423"/>
    </g>
    <g clip-path="url(#p6cbbb08cae)">
     <use style="fill:#808080;" x="150.009230769" xlink:href="#C0_0_66b7a8609c" y="252.962139423"/>
    </g>
    <g clip-path="url(#p6cbbb08cae)">
     <use style="fill:#808080;" x="216.124615385" xlink:href="#C0_0_66b7a8609c" y="252.962139423"/>
    </g>
    <g clip-path="url(#p6cbbb08cae)">
     <use style="fill:#808080;" x="282.24" xlink:href="#C0_0_66b7a8609c" y="252.962139423"/>
    </g>
    <g clip-path="url(#p6cbbb08cae)">
     <use style="fill:#808080;" x="348.355384615" xlink:href="#C0_0_66b7a8609c" y="252.962139423"/>
    </g>
    <g clip-path="url(#p6cbbb08cae)">
     <use style="fill:#808080;" x="414.470769231" xlink:href="#C0_0_66b7a8609c" y="252.962139423"/>
    </g>
    <g clip-path="url(#p6cbbb08cae)">
     <use style="fill:#808080;" x="480.586153846" xlink:href="#C0_0_66b7a8609c" y="252.962139423"/>
    </g>
    <g clip-path="url(#p6cbbb08cae)">
     <use style="fill:#808080;" x="546.701538462" xlink:href="#C0_0_66b7a8609c" y="252.962139423"/>
    </g>
    <g clip-path="url(#p6cbbb08cae)">
     <use style="fill:#808080;" x="50.8361538462" xlink:href="#C0_0_66b7a8609c" y="204.154447115"/>
    </g>
    <g clip-path="url(#p6cbbb08cae)">
     <use style="fill:#808080;" x="116.951538462" xlink:href="#C0_0_66b7a8609c" y="204.154447115"/>
    </g>
    <g clip-path="url(#p6cbbb08cae)">
     <use style="fill:#808080;" x="183.066923077" xlink:href="#C0_0_66b7a8609c" y="204.154447115"/>
    </g>
    <g clip-path="url(#p6cbbb08cae)">
     <use style="fill:#808080;" x="249.182307692" xlink:href="#C0_0_66b7a8609c" y="204.154447115"/>
    </g>
    <g clip-path="url(#p6cbbb08cae)">
     <use style="fill:#808080;" x="315.297692308" xlink:href="#C0_0_66b7a8609c" y="204.154447115"/>
    </g>
    <g clip-path="url(#p6cbbb08cae)">
     <use style="fill:#808080;" x="381.413076923" xlink:href="#C0_0_66b7a8609c" y="204.154447115"/>
    </g>
    <g clip-path="url(#p6cbbb08cae)">
     <use style="fill:#808080;" x="447.528461538" xlink:href="#C0_0_66b7a8609c" y="204.154447115"/>
    </g>
    <g clip-path="url(#p6cbbb08cae)">
     <use style="fill:#808080;" x="513.643846154" xlink:href="#C0_0_66b7a8609c" y="204.154447115"/>
    </g>
    <g clip-path="url(#p6cbbb08cae)">
     <use style="fill:#808080;" x="83.8938461538" xlink:href="#C0_0_66b7a8609c" y="155.346754808"/>
    </g>
    <g clip-path="url(#p6cbbb08cae)">
     <use style="fill:#808080;" x="150.009230769" xlink:href="#C0_0_66b7a8609c" y="155.346754808"/>
    </g>
    <g clip-path="url(#p6cbbb08cae)">
     <use style="fill:#808080;" x="216.124615385" xlink:href="#C0_0_66b7a8609c" y="155.346754808"/>
    </g>
    <g clip-path="url(#p6cbbb08cae)">
     <use style="fill:#808080;" x="282.24" xlink:href="#C0_0_66b7a8609c" y="155.346754808"/>
    </g>
    <g clip-path="url(#p6cbbb08cae)">
     <use style="fill:#808080;" x="348.355384615" xlink:href="#C0_0_66b7a8609c" y="155.346754808"/>
    </g>
    <g clip-path="url(#p6cbbb08cae)">
     <use style="fill:#808080;" x="414.470769231" xlink:href="#C0_0_66b7a8609c" y="155.346754808"/>
    </g>
    <g clip-path="url(#p6cbbb08cae)">
     <use style="fill:#808080;" x="480.586153846" xlink:href="#C0_0_66b7a8609c" y="155.346754808"/>
    </g>
    <g clip-path="url(#p6cbbb08cae)">
     <use style="fill:#808080;" x="116.951538462" xlink:href="#C0_0_66b7a8609c" y="106.5390625"/>
    </g>
    <g clip-path="url(#p6cbbb08cae)">
     <use style="fill:#808080;" x="183.066923077" xlink:href="#C0_0_66b7a8609c" y="106.5390625"/>
    </g>
    <g clip-path="url(#p6cbbb08cae)">
     <use style="fill:#808080;" x="249.182307692" xlink:href="#C0_0_66b7a8609c" y="106.5390625"/>
    </g>
    <g clip-path="url(#p6cbbb08cae)">
     <use style="fill:#808080;" x="315.297692308" xlink:href="#C0_0_66b7a8609c" y="106.5390625"/>
    </g>
    <g clip-path="url(#p6cbbb08cae)">
     <use style="fill:#808080;" x="381.413076923" xlink:href="#C0_0_66b7a8609c" y="106.5390625"/>
    </g>
    <g clip-path="url(#p6cbbb08cae)">
     <use style="fill:#808080;" x="447.528461538" xlink:href="#C0_0_66b7a8609c" y="106.5390625"/>
    </g>
    <g clip-path="url(#p6cbbb08cae)">
     <use style="fill:#808080;" x="150.009230769" xlink:href="#C0_0_66b7a8609c" y="57.7313701923"/>
    </g>
    <g clip-path="url(#p6cbbb08cae)">
     <use style="fill:#808080;" x="216.124615385" xlink:href="#C0_0_66b7a8609c" y="57.7313701923"/>
    </g>
    <g clip-path="url(#p6cbbb08cae)">
     <use style="fill:#808080;" x="282.24" xlink:href="#C0_0_66b7a8609c" y="57.7313701923"/>
    </g>
    <g clip-path="url(#p6cbbb08cae)">
     <use style="fill:#808080;" x="348.355384615" xlink:href="#C0_0_66b7a8609c" y="57.7313701923"/>
    </g>
    <g clip-path="url(#p6cbbb08cae)">
     <use style="fill:#808080;" x="414.470769231" xlink:href="#C0_0_66b7a8609c" y="57.7313701923"/>
    </g>
   </g>
   <g id="PathCollection_2">
    <defs>
     <path d="M 0 3.535534 
C 0.937635 3.535534 1.836992 3.163008 2.5 2.5 
C 3.163008 1.836992 3.535534 0.937635 3.535534 0 
C 3.535534 -0.937635 3.163008 -1.836992 2.5 -2.5 
C 1.836992 -3.163008 0.937635 -3.535534 0 -3.535534 
C -0.937635 -3.535534 -1.836992 -3.163008 -2.5 -2.5 
C -3.163008 -1.836992 -3.535534 -0.937635 -3.535534 0 
C -3.535534 0.937635 -3.163008 1.836992 -2.5 2.5 
C -1.836992 3.163008 -0.937635 3.535534 0 3.535534 
z
" id="C1_0_97de410787"/>
    </defs>
    <g clip-path="url(#p6cbbb08cae)">
     <use style="fill:#ff0000;" x="249.182307692" xlink:href="#C1_0_97de410787" y="301.769831731"/>
    </g>
    <g clip-path="url(#p6cbbb08cae)">
     <use style="fill:#ff0000;" x="348.355384615" xlink:href="#C1_0_97de410787" y="252.962139423"/>
    </g>
    <g clip-path="url(#p6cbbb08cae)">
     <use style="fill:#ff0000;" x="249.182307692" xlink:href="#C1_0_97de410787" y="204.154447115"/>
    </g>
   </g>
   <g id="matplotlib.axis_1"/>
   <g id="matplotlib.axis_2"/>
   <g id="text_1">
    <!--   0 -->
    <defs>
     <path id="BitstreamVeraSans-Roman-20"/>
     <path d="M 31.78125 66.40625 
Q 24.171875 66.40625 20.328125 58.90625 
Q 16.5 51.421875 16.5 36.375 
Q 16.5 21.390625 20.328125 13.890625 
Q 24.171875 6.390625 31.78125 6.390625 
Q 39.453125 6.390625 43.28125 13.890625 
Q 47.125 21.390625 47.125 36.375 
Q 47.125 51.421875 43.28125 58.90625 
Q 39.453125 66.40625 31.78125 66.40625 
M 31.78125 74.21875 
Q 44.046875 74.21875 50.515625 64.515625 
Q 56.984375 54.828125 56.984375 36.375 
Q 56.984375 17.96875 50.515625 8.265625 
Q 44.046875 -1.421875 31.78125 -1.421875 
Q 19.53125 -1.421875 13.0625 8.265625 
Q 6.59375 17.96875 6.59375 36.375 
Q 6.59375 54.828125 13.0625 64.515625 
Q 19.53125 74.21875 31.78125 74.21875 
" id="BitstreamVeraSans-Roman-30"/>
    </defs>
    <g transform="translate(150.009230769 450.952283654)scale(0.1 -0.1)">
     <use xlink:href="#BitstreamVeraSans-Roman-20"/>
     <use x="31.787109375" xlink:href="#BitstreamVeraSans-Roman-20"/>
     <use x="63.57421875" xlink:href="#BitstreamVeraSans-Roman-30"/>
    </g>
   </g>
   <g id="text_2">
    <!--   1 -->
    <defs>
     <path d="M 12.40625 8.296875 
L 28.515625 8.296875 
L 28.515625 63.921875 
L 10.984375 60.40625 
L 10.984375 69.390625 
L 28.421875 72.90625 
L 38.28125 72.90625 
L 38.28125 8.296875 
L 54.390625 8.296875 
L 54.390625 0 
L 12.40625 0 
z
" id="BitstreamVeraSans-Roman-31"/>
    </defs>
    <g transform="translate(216.124615385 450.952283654)scale(0.1 -0.1)">
     <use xlink:href="#BitstreamVeraSans-Roman-20"/>
     <use x="31.787109375" xlink:href="#BitstreamVeraSans-Roman-20"/>
     <use x="63.57421875" xlink:href="#BitstreamVeraSans-Roman-31"/>
    </g>
   </g>
   <g id="text_3">
    <!--   2 -->
    <defs>
     <path d="M 19.1875 8.296875 
L 53.609375 8.296875 
L 53.609375 0 
L 7.328125 0 
L 7.328125 8.296875 
Q 12.9375 14.109375 22.625 23.890625 
Q 32.328125 33.6875 34.8125 36.53125 
Q 39.546875 41.84375 41.421875 45.53125 
Q 43.3125 49.21875 43.3125 52.78125 
Q 43.3125 58.59375 39.234375 62.25 
Q 35.15625 65.921875 28.609375 65.921875 
Q 23.96875 65.921875 18.8125 64.3125 
Q 13.671875 62.703125 7.8125 59.421875 
L 7.8125 69.390625 
Q 13.765625 71.78125 18.9375 73 
Q 24.125 74.21875 28.421875 74.21875 
Q 39.75 74.21875 46.484375 68.546875 
Q 53.21875 62.890625 53.21875 53.421875 
Q 53.21875 48.921875 51.53125 44.890625 
Q 49.859375 40.875 45.40625 35.40625 
Q 44.1875 33.984375 37.640625 27.21875 
Q 31.109375 20.453125 19.1875 8.296875 
" id="BitstreamVeraSans-Roman-32"/>
    </defs>
    <g transform="translate(282.24 450.952283654)scale(0.1 -0.1)">
     <use xlink:href="#BitstreamVeraSans-Roman-20"/>
     <use x="31.787109375" xlink:href="#BitstreamVeraSans-Roman-20"/>
     <use x="63.57421875" xlink:href="#BitstreamVeraSans-Roman-32"/>
    </g>
   </g>
   <g id="text_4">
    <!--   3 -->
    <defs>
     <path d="M 40.578125 39.3125 
Q 47.65625 37.796875 51.625 33 
Q 55.609375 28.21875 55.609375 21.1875 
Q 55.609375 10.40625 48.1875 4.484375 
Q 40.765625 -1.421875 27.09375 -1.421875 
Q 22.515625 -1.421875 17.65625 -0.515625 
Q 12.796875 0.390625 7.625 2.203125 
L 7.625 11.71875 
Q 11.71875 9.328125 16.59375 8.109375 
Q 21.484375 6.890625 26.8125 6.890625 
Q 36.078125 6.890625 40.9375 10.546875 
Q 45.796875 14.203125 45.796875 21.1875 
Q 45.796875 27.640625 41.28125 31.265625 
Q 36.765625 34.90625 28.71875 34.90625 
L 20.21875 34.90625 
L 20.21875 43.015625 
L 29.109375 43.015625 
Q 36.375 43.015625 40.234375 45.921875 
Q 44.09375 48.828125 44.09375 54.296875 
Q 44.09375 59.90625 40.109375 62.90625 
Q 36.140625 65.921875 28.71875 65.921875 
Q 24.65625 65.921875 20.015625 65.03125 
Q 15.375 64.15625 9.8125 62.3125 
L 9.8125 71.09375 
Q 15.4375 72.65625 20.34375 73.4375 
Q 25.25 74.21875 29.59375 74.21875 
Q 40.828125 74.21875 47.359375 69.109375 
Q 53.90625 64.015625 53.90625 55.328125 
Q 53.90625 49.265625 50.4375 45.09375 
Q 46.96875 40.921875 40.578125 39.3125 
" id="BitstreamVeraSans-Roman-33"/>
    </defs>
    <g transform="translate(348.355384615 450.952283654)scale(0.1 -0.1)">
     <use xlink:href="#BitstreamVeraSans-Roman-20"/>
     <use x="31.787109375" xlink:href="#BitstreamVeraSans-Roman-20"/>
     <use x="63.57421875" xlink:href="#BitstreamVeraSans-Roman-33"/>
    </g>
   </g>
   <g id="text_5">
    <!--   4 -->
    <defs>
     <path d="M 37.796875 64.3125 
L 12.890625 25.390625 
L 37.796875 25.390625 
z
M 35.203125 72.90625 
L 47.609375 72.90625 
L 47.609375 25.390625 
L 58.015625 25.390625 
L 58.015625 17.1875 
L 47.609375 17.1875 
L 47.609375 0 
L 37.796875 0 
L 37.796875 17.1875 
L 4.890625 17.1875 
L 4.890625 26.703125 
z
" id="BitstreamVeraSans-Roman-34"/>
    </defs>
    <g transform="translate(414.470769231 450.952283654)scale(0.1 -0.1)">
     <use xlink:href="#BitstreamVeraSans-Roman-20"/>
     <use x="31.787109375" xlink:href="#BitstreamVeraSans-Roman-20"/>
     <use x="63.57421875" xlink:href="#BitstreamVeraSans-Roman-34"/>
    </g>
   </g>
   <g id="text_6">
    <!--   5 -->
    <defs>
     <path d="M 10.796875 72.90625 
L 49.515625 72.90625 
L 49.515625 64.59375 
L 19.828125 64.59375 
L 19.828125 46.734375 
Q 21.96875 47.46875 24.109375 47.828125 
Q 26.265625 48.1875 28.421875 48.1875 
Q 40.625 48.1875 47.75 41.5 
Q 54.890625 34.8125 54.890625 23.390625 
Q 54.890625 11.625 47.5625 5.09375 
Q 40.234375 -1.421875 26.90625 -1.421875 
Q 22.3125 -1.421875 17.546875 -0.640625 
Q 12.796875 0.140625 7.71875 1.703125 
L 7.71875 11.625 
Q 12.109375 9.234375 16.796875 8.0625 
Q 21.484375 6.890625 26.703125 6.890625 
Q 35.15625 6.890625 40.078125 11.328125 
Q 45.015625 15.765625 45.015625 23.390625 
Q 45.015625 31 40.078125 35.4375 
Q 35.15625 39.890625 26.703125 39.890625 
Q 22.75 39.890625 18.8125 39.015625 
Q 14.890625 38.140625 10.796875 36.28125 
z
" id="BitstreamVeraSans-Roman-35"/>
    </defs>
    <g transform="translate(116.951538462 402.144591346)scale(0.1 -0.1)">
     <use xlink:href="#BitstreamVeraSans-Roman-20"/>
     <use x="31.787109375" xlink:href="#BitstreamVeraSans-Roman-20"/>
     <use x="63.57421875" xlink:href="#BitstreamVeraSans-Roman-35"/>
    </g>
   </g>
   <g id="text_7">
    <!--   6 -->
    <defs>
     <path d="M 33.015625 40.375 
Q 26.375 40.375 22.484375 35.828125 
Q 18.609375 31.296875 18.609375 23.390625 
Q 18.609375 15.53125 22.484375 10.953125 
Q 26.375 6.390625 33.015625 6.390625 
Q 39.65625 6.390625 43.53125 10.953125 
Q 47.40625 15.53125 47.40625 23.390625 
Q 47.40625 31.296875 43.53125 35.828125 
Q 39.65625 40.375 33.015625 40.375 
M 52.59375 71.296875 
L 52.59375 62.3125 
Q 48.875 64.0625 45.09375 64.984375 
Q 41.3125 65.921875 37.59375 65.921875 
Q 27.828125 65.921875 22.671875 59.328125 
Q 17.53125 52.734375 16.796875 39.40625 
Q 19.671875 43.65625 24.015625 45.921875 
Q 28.375 48.1875 33.59375 48.1875 
Q 44.578125 48.1875 50.953125 41.515625 
Q 57.328125 34.859375 57.328125 23.390625 
Q 57.328125 12.15625 50.6875 5.359375 
Q 44.046875 -1.421875 33.015625 -1.421875 
Q 20.359375 -1.421875 13.671875 8.265625 
Q 6.984375 17.96875 6.984375 36.375 
Q 6.984375 53.65625 15.1875 63.9375 
Q 23.390625 74.21875 37.203125 74.21875 
Q 40.921875 74.21875 44.703125 73.484375 
Q 48.484375 72.75 52.59375 71.296875 
" id="BitstreamVeraSans-Roman-36"/>
    </defs>
    <g transform="translate(183.066923077 402.144591346)scale(0.1 -0.1)">
     <use xlink:href="#BitstreamVeraSans-Roman-20"/>
     <use x="31.787109375" xlink:href="#BitstreamVeraSans-Roman-20"/>
     <use x="63.57421875" xlink:href="#BitstreamVeraSans-Roman-36"/>
    </g>
   </g>
   <g id="text_8">
    <!--   7 -->
    <defs>
     <path d="M 8.203125 72.90625 
L 55.078125 72.90625 
L 55.078125 68.703125 
L 28.609375 0 
L 18.3125 0 
L 43.21875 64.59375 
L 8.203125 64.59375 
z
" id="BitstreamVeraSans-Roman-37"/>
    </defs>
    <g transform="translate(249.182307692 402.144591346)scale(0.1 -0.1)">
     <use xlink:href="#BitstreamVeraSans-Roman-20"/>
     <use x="31.787109375" xlink:href="#BitstreamVeraSans-Roman-20"/>
     <use x="63.57421875" xlink:href="#BitstreamVeraSans-Roman-37"/>
    </g>
   </g>
   <g id="text_9">
    <!--   8 -->
    <defs>
     <path d="M 31.78125 34.625 
Q 24.75 34.625 20.71875 30.859375 
Q 16.703125 27.09375 16.703125 20.515625 
Q 16.703125 13.921875 20.71875 10.15625 
Q 24.75 6.390625 31.78125 6.390625 
Q 38.8125 6.390625 42.859375 10.171875 
Q 46.921875 13.96875 46.921875 20.515625 
Q 46.921875 27.09375 42.890625 30.859375 
Q 38.875 34.625 31.78125 34.625 
M 21.921875 38.8125 
Q 15.578125 40.375 12.03125 44.71875 
Q 8.5 49.078125 8.5 55.328125 
Q 8.5 64.0625 14.71875 69.140625 
Q 20.953125 74.21875 31.78125 74.21875 
Q 42.671875 74.21875 48.875 69.140625 
Q 55.078125 64.0625 55.078125 55.328125 
Q 55.078125 49.078125 51.53125 44.71875 
Q 48 40.375 41.703125 38.8125 
Q 48.828125 37.15625 52.796875 32.3125 
Q 56.78125 27.484375 56.78125 20.515625 
Q 56.78125 9.90625 50.3125 4.234375 
Q 43.84375 -1.421875 31.78125 -1.421875 
Q 19.734375 -1.421875 13.25 4.234375 
Q 6.78125 9.90625 6.78125 20.515625 
Q 6.78125 27.484375 10.78125 32.3125 
Q 14.796875 37.15625 21.921875 38.8125 
M 18.3125 54.390625 
Q 18.3125 48.734375 21.84375 45.5625 
Q 25.390625 42.390625 31.78125 42.390625 
Q 38.140625 42.390625 41.71875 45.5625 
Q 45.3125 48.734375 45.3125 54.390625 
Q 45.3125 60.0625 41.71875 63.234375 
Q 38.140625 66.40625 31.78125 66.40625 
Q 25.390625 66.40625 21.84375 63.234375 
Q 18.3125 60.0625 18.3125 54.390625 
" id="BitstreamVeraSans-Roman-38"/>
    </defs>
    <g transform="translate(315.297692308 402.144591346)scale(0.1 -0.1)">
     <use xlink:href="#BitstreamVeraSans-Roman-20"/>
     <use x="31.787109375" xlink:href="#BitstreamVeraSans-Roman-20"/>
     <use x="63.57421875" xlink:href="#BitstreamVeraSans-Roman-38"/>
    </g>
   </g>
   <g id="text_10">
    <!--   9 -->
    <defs>
     <path d="M 10.984375 1.515625 
L 10.984375 10.5 
Q 14.703125 8.734375 18.5 7.8125 
Q 22.3125 6.890625 25.984375 6.890625 
Q 35.75 6.890625 40.890625 13.453125 
Q 46.046875 20.015625 46.78125 33.40625 
Q 43.953125 29.203125 39.59375 26.953125 
Q 35.25 24.703125 29.984375 24.703125 
Q 19.046875 24.703125 12.671875 31.3125 
Q 6.296875 37.9375 6.296875 49.421875 
Q 6.296875 60.640625 12.9375 67.421875 
Q 19.578125 74.21875 30.609375 74.21875 
Q 43.265625 74.21875 49.921875 64.515625 
Q 56.59375 54.828125 56.59375 36.375 
Q 56.59375 19.140625 48.40625 8.859375 
Q 40.234375 -1.421875 26.421875 -1.421875 
Q 22.703125 -1.421875 18.890625 -0.6875 
Q 15.09375 0.046875 10.984375 1.515625 
M 30.609375 32.421875 
Q 37.25 32.421875 41.125 36.953125 
Q 45.015625 41.5 45.015625 49.421875 
Q 45.015625 57.28125 41.125 61.84375 
Q 37.25 66.40625 30.609375 66.40625 
Q 23.96875 66.40625 20.09375 61.84375 
Q 16.21875 57.28125 16.21875 49.421875 
Q 16.21875 41.5 20.09375 36.953125 
Q 23.96875 32.421875 30.609375 32.421875 
" id="BitstreamVeraSans-Roman-39"/>
    </defs>
    <g transform="translate(381.413076923 402.144591346)scale(0.1 -0.1)">
     <use xlink:href="#BitstreamVeraSans-Roman-20"/>
     <use x="31.787109375" xlink:href="#BitstreamVeraSans-Roman-20"/>
     <use x="63.57421875" xlink:href="#BitstreamVeraSans-Roman-39"/>
    </g>
   </g>
   <g id="text_11">
    <!--   10 -->
    <g transform="translate(447.528461538 402.144591346)scale(0.1 -0.1)">
     <use xlink:href="#BitstreamVeraSans-Roman-20"/>
     <use x="31.787109375" xlink:href="#BitstreamVeraSans-Roman-20"/>
     <use x="63.57421875" xlink:href="#BitstreamVeraSans-Roman-31"/>
     <use x="127.197265625" xlink:href="#BitstreamVeraSans-Roman-30"/>
    </g>
   </g>
   <g id="text_12">
    <!--   11 -->
    <g transform="translate(83.8938461538 353.336899038)scale(0.1 -0.1)">
     <use xlink:href="#BitstreamVeraSans-Roman-20"/>
     <use x="31.787109375" xlink:href="#BitstreamVeraSans-Roman-20"/>
     <use x="63.57421875" xlink:href="#BitstreamVeraSans-Roman-31"/>
     <use x="127.197265625" xlink:href="#BitstreamVeraSans-Roman-31"/>
    </g>
   </g>
   <g id="text_13">
    <!--   12 -->
    <g transform="translate(150.009230769 353.336899038)scale(0.1 -0.1)">
     <use xlink:href="#BitstreamVeraSans-Roman-20"/>
     <use x="31.787109375" xlink:href="#BitstreamVeraSans-Roman-20"/>
     <use x="63.57421875" xlink:href="#BitstreamVeraSans-Roman-31"/>
     <use x="127.197265625" xlink:href="#BitstreamVeraSans-Roman-32"/>
    </g>
   </g>
   <g id="text_14">
    <!--   13 -->
    <g transform="translate(216.124615385 353.336899038)scale(0.1 -0.1)">
     <use xlink:href="#BitstreamVeraSans-Roman-20"/>
     <use x="31.787109375" xlink:href="#BitstreamVeraSans-Roman-20"/>
     <use x="63.57421875" xlink:href="#BitstreamVeraSans-Roman-31"/>
     <use x="127.197265625" xlink:href="#BitstreamVeraSans-Roman-33"/>
    </g>
   </g>
   <g id="text_15">
    <!--   14 -->
    <g transform="translate(282.24 353.336899038)scale(0.1 -0.1)">
     <use xlink:href="#BitstreamVeraSans-Roman-20"/>
     <use x="31.787109375" xlink:href="#BitstreamVeraSans-Roman-20"/>
     <use x="63.57421875" xlink:href="#BitstreamVeraSans-Roman-31"/>
     <use x="127.197265625" xlink:href="#BitstreamVeraSans-Roman-34"/>
    </g>
   </g>
   <g id="text_16">
    <!--   15 -->
    <g transform="translate(348.355384615 353.336899038)scale(0.1 -0.1)">
     <use xlink:href="#BitstreamVeraSans-Roman-20"/>
     <use x="31.787109375" xlink:href="#BitstreamVeraSans-Roman-20"/>
     <use x="63.57421875" xlink:href="#BitstreamVeraSans-Roman-31"/>
     <use x="127.197265625" xlink:href="#BitstreamVeraSans-Roman-35"/>
    </g>
   </g>
   <g id="text_17">
    <!--   16 -->
    <g transform="translate(414.470769231 353.336899038)scale(0.1 -0.1)">
     <use xlink:href="#BitstreamVeraSans-Roman-20"/>
     <use x="31.787109375" xlink:href="#BitstreamVeraSans-Roman-20"/>
     <use x="63.57421875" xlink:href="#BitstreamVeraSans-Roman-31"/>
     <use x="127.197265625" xlink:href="#BitstreamVeraSans-Roman-36"/>
    </g>
   </g>
   <g id="text_18">
    <!--   17 -->
    <g transform="translate(480.586153846 353.336899038)scale(0.1 -0.1)">
     <use xlink:href="#BitstreamVeraSans-Roman-20"/>
     <use x="31.787109375" xlink:href="#BitstreamVeraSans-Roman-20"/>
     <use x="63.57421875" xlink:href="#BitstreamVeraSans-Roman-31"/>
     <use x="127.197265625" xlink:href="#BitstreamVeraSans-Roman-37"/>
    </g>
   </g>
   <g id="text_19">
    <!--   18 -->
    <g transform="translate(50.8361538462 304.529206731)scale(0.1 -0.1)">
     <use xlink:href="#BitstreamVeraSans-Roman-20"/>
     <use x="31.787109375" xlink:href="#BitstreamVeraSans-Roman-20"/>
     <use x="63.57421875" xlink:href="#BitstreamVeraSans-Roman-31"/>
     <use x="127.197265625" xlink:href="#BitstreamVeraSans-Roman-38"/>
    </g>
   </g>
   <g id="text_20">
    <!--   19 -->
    <g transform="translate(116.951538462 304.529206731)scale(0.1 -0.1)">
     <use xlink:href="#BitstreamVeraSans-Roman-20"/>
     <use x="31.787109375" xlink:href="#BitstreamVeraSans-Roman-20"/>
     <use x="63.57421875" xlink:href="#BitstreamVeraSans-Roman-31"/>
     <use x="127.197265625" xlink:href="#BitstreamVeraSans-Roman-39"/>
    </g>
   </g>
   <g id="text_21">
    <!--   20 -->
    <g transform="translate(183.066923077 304.529206731)scale(0.1 -0.1)">
     <use xlink:href="#BitstreamVeraSans-Roman-20"/>
     <use x="31.787109375" xlink:href="#BitstreamVeraSans-Roman-20"/>
     <use x="63.57421875" xlink:href="#BitstreamVeraSans-Roman-32"/>
     <use x="127.197265625" xlink:href="#BitstreamVeraSans-Roman-30"/>
    </g>
   </g>
   <g id="text_22">
    <!--   21 -->
    <g transform="translate(249.182307692 304.529206731)scale(0.1 -0.1)">
     <use xlink:href="#BitstreamVeraSans-Roman-20"/>
     <use x="31.787109375" xlink:href="#BitstreamVeraSans-Roman-20"/>
     <use x="63.57421875" xlink:href="#BitstreamVeraSans-Roman-32"/>
     <use x="127.197265625" xlink:href="#BitstreamVeraSans-Roman-31"/>
    </g>
   </g>
   <g id="text_23">
    <!--   22 -->
    <g transform="translate(315.297692308 304.529206731)scale(0.1 -0.1)">
     <use xlink:href="#BitstreamVeraSans-Roman-20"/>
     <use x="31.787109375" xlink:href="#BitstreamVeraSans-Roman-20"/>
     <use x="63.57421875" xlink:href="#BitstreamVeraSans-Roman-32"/>
     <use x="127.197265625" xlink:href="#BitstreamVeraSans-Roman-32"/>
    </g>
   </g>
   <g id="text_24">
    <!--   23 -->
    <g transform="translate(381.413076923 304.529206731)scale(0.1 -0.1)">
     <use xlink:href="#BitstreamVeraSans-Roman-20"/>
     <use x="31.787109375" xlink:href="#BitstreamVeraSans-Roman-20"/>
     <use x="63.57421875" xlink:href="#BitstreamVeraSans-Roman-32"/>
     <use x="127.197265625" xlink:href="#BitstreamVeraSans-Roman-33"/>
    </g>
   </g>
   <g id="text_25">
    <!--   24 -->
    <g transform="translate(447.528461538 304.529206731)scale(0.1 -0.1)">
     <use xlink:href="#BitstreamVeraSans-Roman-20"/>
     <use x="31.787109375" xlink:href="#BitstreamVeraSans-Roman-20"/>
     <use x="63.57421875" xlink:href="#BitstreamVeraSans-Roman-32"/>
     <use x="127.197265625" xlink:href="#BitstreamVeraSans-Roman-34"/>
    </g>
   </g>
   <g id="text_26">
    <!--   25 -->
    <g transform="translate(513.643846154 304.529206731)scale(0.1 -0.1)">
     <use xlink:href="#BitstreamVeraSans-Roman-20"/>
     <use x="31.787109375" xlink:href="#BitstreamVeraSans-Roman-20"/>
     <use x="63.57421875" xlink:href="#BitstreamVeraSans-Roman-32"/>
     <use x="127.197265625" xlink:href="#BitstreamVeraSans-Roman-35"/>
    </g>
   </g>
   <g id="text_27">
    <!--   26 -->
    <g transform="translate(17.7784615385 255.721514423)scale(0.1 -0.1)">
     <use xlink:href="#BitstreamVeraSans-Roman-20"/>
     <use x="31.787109375" xlink:href="#BitstreamVeraSans-Roman-20"/>
     <use x="63.57421875" xlink:href="#BitstreamVeraSans-Roman-32"/>
     <use x="127.197265625" xlink:href="#BitstreamVeraSans-Roman-36"/>
    </g>
   </g>
   <g id="text_28">
    <!--   27 -->
    <g transform="translate(83.8938461538 255.721514423)scale(0.1 -0.1)">
     <use xlink:href="#BitstreamVeraSans-Roman-20"/>
     <use x="31.787109375" xlink:href="#BitstreamVeraSans-Roman-20"/>
     <use x="63.57421875" xlink:href="#BitstreamVeraSans-Roman-32"/>
     <use x="127.197265625" xlink:href="#BitstreamVeraSans-Roman-37"/>
    </g>
   </g>
   <g id="text_29">
    <!--   28 -->
    <g transform="translate(150.009230769 255.721514423)scale(0.1 -0.1)">
     <use xlink:href="#BitstreamVeraSans-Roman-20"/>
     <use x="31.787109375" xlink:href="#BitstreamVeraSans-Roman-20"/>
     <use x="63.57421875" xlink:href="#BitstreamVeraSans-Roman-32"/>
     <use x="127.197265625" xlink:href="#BitstreamVeraSans-Roman-38"/>
    </g>
   </g>
   <g id="text_30">
    <!--   29 -->
    <g transform="translate(216.124615385 255.721514423)scale(0.1 -0.1)">
     <use xlink:href="#BitstreamVeraSans-Roman-20"/>
     <use x="31.787109375" xlink:href="#BitstreamVeraSans-Roman-20"/>
     <use x="63.57421875" xlink:href="#BitstreamVeraSans-Roman-32"/>
     <use x="127.197265625" xlink:href="#BitstreamVeraSans-Roman-39"/>
    </g>
   </g>
   <g id="text_31">
    <!--   30 -->
    <g transform="translate(282.24 255.721514423)scale(0.1 -0.1)">
     <use xlink:href="#BitstreamVeraSans-Roman-20"/>
     <use x="31.787109375" xlink:href="#BitstreamVeraSans-Roman-20"/>
     <use x="63.57421875" xlink:href="#BitstreamVeraSans-Roman-33"/>
     <use x="127.197265625" xlink:href="#BitstreamVeraSans-Roman-30"/>
    </g>
   </g>
   <g id="text_32">
    <!--   31 -->
    <g transform="translate(348.355384615 255.721514423)scale(0.1 -0.1)">
     <use xlink:href="#BitstreamVeraSans-Roman-20"/>
     <use x="31.787109375" xlink:href="#BitstreamVeraSans-Roman-20"/>
     <use x="63.57421875" xlink:href="#BitstreamVeraSans-Roman-33"/>
     <use x="127.197265625" xlink:href="#BitstreamVeraSans-Roman-31"/>
    </g>
   </g>
   <g id="text_33">
    <!--   32 -->
    <g transform="translate(414.470769231 255.721514423)scale(0.1 -0.1)">
     <use xlink:href="#BitstreamVeraSans-Roman-20"/>
     <use x="31.787109375" xlink:href="#BitstreamVeraSans-Roman-20"/>
     <use x="63.57421875" xlink:href="#BitstreamVeraSans-Roman-33"/>
     <use x="127.197265625" xlink:href="#BitstreamVeraSans-Roman-32"/>
    </g>
   </g>
   <g id="text_34">
    <!--   33 -->
    <g transform="translate(480.586153846 255.721514423)scale(0.1 -0.1)">
     <use xlink:href="#BitstreamVeraSans-Roman-20"/>
     <use x="31.787109375" xlink:href="#BitstreamVeraSans-Roman-20"/>
     <use x="63.57421875" xlink:href="#BitstreamVeraSans-Roman-33"/>
     <use x="127.197265625" xlink:href="#BitstreamVeraSans-Roman-33"/>
    </g>
   </g>
   <g id="text_35">
    <!--   34 -->
    <g transform="translate(546.701538462 255.721514423)scale(0.1 -0.1)">
     <use xlink:href="#BitstreamVeraSans-Roman-20"/>
     <use x="31.787109375" xlink:href="#BitstreamVeraSans-Roman-20"/>
     <use x="63.57421875" xlink:href="#BitstreamVeraSans-Roman-33"/>
     <use x="127.197265625" xlink:href="#BitstreamVeraSans-Roman-34"/>
    </g>
   </g>
   <g id="text_36">
    <!--   35 -->
    <g transform="translate(50.8361538462 206.913822115)scale(0.1 -0.1)">
     <use xlink:href="#BitstreamVeraSans-Roman-20"/>
     <use x="31.787109375" xlink:href="#BitstreamVeraSans-Roman-20"/>
     <use x="63.57421875" xlink:href="#BitstreamVeraSans-Roman-33"/>
     <use x="127.197265625" xlink:href="#BitstreamVeraSans-Roman-35"/>
    </g>
   </g>
   <g id="text_37">
    <!--   36 -->
    <g transform="translate(116.951538462 206.913822115)scale(0.1 -0.1)">
     <use xlink:href="#BitstreamVeraSans-Roman-20"/>
     <use x="31.787109375" xlink:href="#BitstreamVeraSans-Roman-20"/>
     <use x="63.57421875" xlink:href="#BitstreamVeraSans-Roman-33"/>
     <use x="127.197265625" xlink:href="#BitstreamVeraSans-Roman-36"/>
    </g>
   </g>
   <g id="text_38">
    <!--   37 -->
    <g transform="translate(183.066923077 206.913822115)scale(0.1 -0.1)">
     <use xlink:href="#BitstreamVeraSans-Roman-20"/>
     <use x="31.787109375" xlink:href="#BitstreamVeraSans-Roman-20"/>
     <use x="63.57421875" xlink:href="#BitstreamVeraSans-Roman-33"/>
     <use x="127.197265625" xlink:href="#BitstreamVeraSans-Roman-37"/>
    </g>
   </g>
   <g id="text_39">
    <!--   38 -->
    <g transform="translate(249.182307692 206.913822115)scale(0.1 -0.1)">
     <use xlink:href="#BitstreamVeraSans-Roman-20"/>
     <use x="31.787109375" xlink:href="#BitstreamVeraSans-Roman-20"/>
     <use x="63.57421875" xlink:href="#BitstreamVeraSans-Roman-33"/>
     <use x="127.197265625" xlink:href="#BitstreamVeraSans-Roman-38"/>
    </g>
   </g>
   <g id="text_40">
    <!--   39 -->
    <g transform="translate(315.297692308 206.913822115)scale(0.1 -0.1)">
     <use xlink:href="#BitstreamVeraSans-Roman-20"/>
     <use x="31.787109375" xlink:href="#BitstreamVeraSans-Roman-20"/>
     <use x="63.57421875" xlink:href="#BitstreamVeraSans-Roman-33"/>
     <use x="127.197265625" xlink:href="#BitstreamVeraSans-Roman-39"/>
    </g>
   </g>
   <g id="text_41">
    <!--   40 -->
    <g transform="translate(381.413076923 206.913822115)scale(0.1 -0.1)">
     <use xlink:href="#BitstreamVeraSans-Roman-20"/>
     <use x="31.787109375" xlink:href="#BitstreamVeraSans-Roman-20"/>
     <use x="63.57421875" xlink:href="#BitstreamVeraSans-Roman-34"/>
     <use x="127.197265625" xlink:href="#BitstreamVeraSans-Roman-30"/>
    </g>
   </g>
   <g id="text_42">
    <!--   41 -->
    <g transform="translate(447.528461538 206.913822115)scale(0.1 -0.1)">
     <use xlink:href="#BitstreamVeraSans-Roman-20"/>
     <use x="31.787109375" xlink:href="#BitstreamVeraSans-Roman-20"/>
     <use x="63.57421875" xlink:href="#BitstreamVeraSans-Roman-34"/>
     <use x="127.197265625" xlink:href="#BitstreamVeraSans-Roman-31"/>
    </g>
   </g>
   <g id="text_43">
    <!--   42 -->
    <g transform="translate(513.643846154 206.913822115)scale(0.1 -0.1)">
     <use xlink:href="#BitstreamVeraSans-Roman-20"/>
     <use x="31.787109375" xlink:href="#BitstreamVeraSans-Roman-20"/>
     <use x="63.57421875" xlink:href="#BitstreamVeraSans-Roman-34"/>
     <use x="127.197265625" xlink:href="#BitstreamVeraSans-Roman-32"/>
    </g>
   </g>
   <g id="text_44">
    <!--   43 -->
    <g transform="translate(83.8938461538 158.106129808)scale(0.1 -0.1)">
     <use xlink:href="#BitstreamVeraSans-Roman-20"/>
     <use x="31.787109375" xlink:href="#BitstreamVeraSans-Roman-20"/>
     <use x="63.57421875" xlink:href="#BitstreamVeraSans-Roman-34"/>
     <use x="127.197265625" xlink:href="#BitstreamVeraSans-Roman-33"/>
    </g>
   </g>
   <g id="text_45">
    <!--   44 -->
    <g transform="translate(150.009230769 158.106129808)scale(0.1 -0.1)">
     <use xlink:href="#BitstreamVeraSans-Roman-20"/>
     <use x="31.787109375" xlink:href="#BitstreamVeraSans-Roman-20"/>
     <use x="63.57421875" xlink:href="#BitstreamVeraSans-Roman-34"/>
     <use x="127.197265625" xlink:href="#BitstreamVeraSans-Roman-34"/>
    </g>
   </g>
   <g id="text_46">
    <!--   45 -->
    <g transform="translate(216.124615385 158.106129808)scale(0.1 -0.1)">
     <use xlink:href="#BitstreamVeraSans-Roman-20"/>
     <use x="31.787109375" xlink:href="#BitstreamVeraSans-Roman-20"/>
     <use x="63.57421875" xlink:href="#BitstreamVeraSans-Roman-34"/>
     <use x="127.197265625" xlink:href="#BitstreamVeraSans-Roman-35"/>
    </g>
   </g>
   <g id="text_47">
    <!--   46 -->
    <g transform="translate(282.24 158.106129808)scale(0.1 -0.1)">
     <use xlink:href="#BitstreamVeraSans-Roman-20"/>
     <use x="31.787109375" xlink:href="#BitstreamVeraSans-Roman-20"/>
     <use x="63.57421875" xlink:href="#BitstreamVeraSans-Roman-34"/>
     <use x="127.197265625" xlink:href="#BitstreamVeraSans-Roman-36"/>
    </g>
   </g>
   <g id="text_48">
    <!--   47 -->
    <g transform="translate(348.355384615 158.106129808)scale(0.1 -0.1)">
     <use xlink:href="#BitstreamVeraSans-Roman-20"/>
     <use x="31.787109375" xlink:href="#BitstreamVeraSans-Roman-20"/>
     <use x="63.57421875" xlink:href="#BitstreamVeraSans-Roman-34"/>
     <use x="127.197265625" xlink:href="#BitstreamVeraSans-Roman-37"/>
    </g>
   </g>
   <g id="text_49">
    <!--   48 -->
    <g transform="translate(414.470769231 158.106129808)scale(0.1 -0.1)">
     <use xlink:href="#BitstreamVeraSans-Roman-20"/>
     <use x="31.787109375" xlink:href="#BitstreamVeraSans-Roman-20"/>
     <use x="63.57421875" xlink:href="#BitstreamVeraSans-Roman-34"/>
     <use x="127.197265625" xlink:href="#BitstreamVeraSans-Roman-38"/>
    </g>
   </g>
   <g id="text_50">
    <!--   49 -->
    <g transform="translate(480.586153846 158.106129808)scale(0.1 -0.1)">
     <use xlink:href="#BitstreamVeraSans-Roman-20"/>
     <use x="31.787109375" xlink:href="#BitstreamVeraSans-Roman-20"/>
     <use x="63.57421875" xlink:href="#BitstreamVeraSans-Roman-34"/>
     <use x="127.197265625" xlink:href="#BitstreamVeraSans-Roman-39"/>
    </g>
   </g>
   <g id="text_51">
    <!--   50 -->
    <g transform="translate(116.951538462 109.2984375)scale(0.1 -0.1)">
     <use xlink:href="#BitstreamVeraSans-Roman-20"/>
     <use x="31.787109375" xlink:href="#BitstreamVeraSans-Roman-20"/>
     <use x="63.57421875" xlink:href="#BitstreamVeraSans-Roman-35"/>
     <use x="127.197265625" xlink:href="#BitstreamVeraSans-Roman-30"/>
    </g>
   </g>
   <g id="text_52">
    <!--   51 -->
    <g transform="translate(183.066923077 109.2984375)scale(0.1 -0.1)">
     <use xlink:href="#BitstreamVeraSans-Roman-20"/>
     <use x="31.787109375" xlink:href="#BitstreamVeraSans-Roman-20"/>
     <use x="63.57421875" xlink:href="#BitstreamVeraSans-Roman-35"/>
     <use x="127.197265625" xlink:href="#BitstreamVeraSans-Roman-31"/>
    </g>
   </g>
   <g id="text_53">
    <!--   52 -->
    <g transform="translate(249.182307692 109.2984375)scale(0.1 -0.1)">
     <use xlink:href="#BitstreamVeraSans-Roman-20"/>
     <use x="31.787109375" xlink:href="#BitstreamVeraSans-Roman-20"/>
     <use x="63.57421875" xlink:href="#BitstreamVeraSans-Roman-35"/>
     <use x="127.197265625" xlink:href="#BitstreamVeraSans-Roman-32"/>
    </g>
   </g>
   <g id="text_54">
    <!--   53 -->
    <g transform="translate(315.297692308 109.2984375)scale(0.1 -0.1)">
     <use xlink:href="#BitstreamVeraSans-Roman-20"/>
     <use x="31.787109375" xlink:href="#BitstreamVeraSans-Roman-20"/>
     <use x="63.57421875" xlink:href="#BitstreamVeraSans-Roman-35"/>
     <use x="127.197265625" xlink:href="#BitstreamVeraSans-Roman-33"/>
    </g>
   </g>
   <g id="text_55">
    <!--   54 -->
    <g transform="translate(381.413076923 109.2984375)scale(0.1 -0.1)">
     <use xlink:href="#BitstreamVeraSans-Roman-20"/>
     <use x="31.787109375" xlink:href="#BitstreamVeraSans-Roman-20"/>
     <use x="63.57421875" xlink:href="#BitstreamVeraSans-Roman-35"/>
     <use x="127.197265625" xlink:href="#BitstreamVeraSans-Roman-34"/>
    </g>
   </g>
   <g id="text_56">
    <!--   55 -->
    <g transform="translate(447.528461538 109.2984375)scale(0.1 -0.1)">
     <use xlink:href="#BitstreamVeraSans-Roman-20"/>
     <use x="31.787109375" xlink:href="#BitstreamVeraSans-Roman-20"/>
     <use x="63.57421875" xlink:href="#BitstreamVeraSans-Roman-35"/>
     <use x="127.197265625" xlink:href="#BitstreamVeraSans-Roman-35"/>
    </g>
   </g>
   <g id="text_57">
    <!--   56 -->
    <g transform="translate(150.009230769 60.4907451923)scale(0.1 -0.1)">
     <use xlink:href="#BitstreamVeraSans-Roman-20"/>
     <use x="31.787109375" xlink:href="#BitstreamVeraSans-Roman-20"/>
     <use x="63.57421875" xlink:href="#BitstreamVeraSans-Roman-35"/>
     <use x="127.197265625" xlink:href="#BitstreamVeraSans-Roman-36"/>
    </g>
   </g>
   <g id="text_58">
    <!--   57 -->
    <g transform="translate(216.124615385 60.4907451923)scale(0.1 -0.1)">
     <use xlink:href="#BitstreamVeraSans-Roman-20"/>
     <use x="31.787109375" xlink:href="#BitstreamVeraSans-Roman-20"/>
     <use x="63.57421875" xlink:href="#BitstreamVeraSans-Roman-35"/>
     <use x="127.197265625" xlink:href="#BitstreamVeraSans-Roman-37"/>
    </g>
   </g>
   <g id="text_59">
    <!--   58 -->
    <g transform="translate(282.24 60.4907451923)scale(0.1 -0.1)">
     <use xlink:href="#BitstreamVeraSans-Roman-20"/>
     <use x="31.787109375" xlink:href="#BitstreamVeraSans-Roman-20"/>
     <use x="63.57421875" xlink:href="#BitstreamVeraSans-Roman-35"/>
     <use x="127.197265625" xlink:href="#BitstreamVeraSans-Roman-38"/>
    </g>
   </g>
   <g id="text_60">
    <!--   59 -->
    <g transform="translate(348.355384615 60.4907451923)scale(0.1 -0.1)">
     <use xlink:href="#BitstreamVeraSans-Roman-20"/>
     <use x="31.787109375" xlink:href="#BitstreamVeraSans-Roman-20"/>
     <use x="63.57421875" xlink:href="#BitstreamVeraSans-Roman-35"/>
     <use x="127.197265625" xlink:href="#BitstreamVeraSans-Roman-39"/>
    </g>
   </g>
   <g id="text_61">
    <!--   60 -->
    <g transform="translate(414.470769231 60.4907451923)scale(0.1 -0.1)">
     <use xlink:href="#BitstreamVeraSans-Roman-20"/>
     <use x="31.787109375" xlink:href="#BitstreamVeraSans-Roman-20"/>
     <use x="63.57421875" xlink:href="#BitstreamVeraSans-Roman-36"/>
     <use x="127.197265625" xlink:href="#BitstreamVeraSans-Roman-30"/>
    </g>
   </g>
  </g>
 </g>
 <defs>
  <clipPath id="p6cbbb08cae">
   <rect height="406.08" width="550.08" x="7.2" y="49.9221394231"/>
  </clipPath>
 </defs>
</svg>
