<?xml version="1.0" encoding="utf-8" standalone="no"?>
<!DOCTYPE svg PUBLIC "-//W3C//DTD SVG 1.1//EN"
  "http://www.w3.org/Graphics/SVG/1.1/DTD/svg11.dtd">
<!-- Created with matplotlib (http://matplotlib.org/) -->
<svg height="189pt" version="1.1" viewBox="0 0 420 189" width="420pt" xmlns="http://www.w3.org/2000/svg" xmlns:xlink="http://www.w3.org/1999/xlink">
 <defs>
  <style type="text/css">
*{stroke-linecap:butt;stroke-linejoin:round;}
  </style>
 </defs>
 <g id="figure_1">
  <g id="patch_1">
   <path d="M 0 189.355063 
L 420.48 189.355063 
L 420.48 -0 
L 0 -0 
z
" style="fill:#ffffff;"/>
  </g>
  <g id="axes_1">
   <g id="patch_2">
    <path d="M 7.2 182.155063 
L 413.28 182.155063 
L 413.28 37.126492 
L 7.2 37.126492 
z
" style="fill:#ffffff;"/>
   </g>
   <g id="patch_3">
    <path clip-path="url(#p45cda23f90)" d="M 204.661978 112.429788 
L 204.661978 56.649569 
L 226.974066 56.649569 
L 226.974066 112.429788 
L 215.818022 112.429788 
L 271.598242 112.429788 
L 271.598242 134.741876 
L 215.818022 134.741876 
L 215.818022 123.585832 
L 215.818022 179.366052 
L 193.505934 179.366052 
L 193.505934 123.585832 
L 204.661978 123.585832 
L 204.661978 123.585832 
L 148.881758 123.585832 
L 148.881758 101.273745 
L 204.661978 101.273745 
z
" style="fill:#808080;"/>
   </g>
   <g id="line2d_1">
    <path clip-path="url(#p45cda23f90)" d="M 70.789451 112.429788 
L 70.789451 56.649569 
" style="fill:none;stroke:#008000;stroke-linecap:square;"/>
   </g>
   <g id="line2d_2">
    <path clip-path="url(#p45cda23f90)" d="M 70.789451 112.429788 
L 93.101538 112.429788 
" style="fill:none;stroke:#008000;stroke-linecap:square;"/>
   </g>
   <g id="line2d_3">
    <path clip-path="url(#p45cda23f90)" d="M 70.789451 56.649569 
L 93.101538 56.649569 
" style="fill:none;stroke:#008000;stroke-linecap:square;"/>
   </g>
   <g id="line2d_4">
    <path clip-path="url(#p45cda23f90)" d="M 93.101538 112.429788 
L 93.101538 56.649569 
" style="fill:none;stroke:#008000;stroke-linecap:square;"/>
   </g>
   <g id="line2d_5">
    <path clip-path="url(#p45cda23f90)" d="M 81.945495 134.741876 
L 81.945495 112.429788 
" style="fill:none;stroke:#008000;stroke-linecap:square;"/>
   </g>
   <g id="line2d_6">
    <path clip-path="url(#p45cda23f90)" d="M 81.945495 134.741876 
L 137.725714 134.741876 
" style="fill:none;stroke:#008000;stroke-linecap:square;"/>
   </g>
   <g id="line2d_7">
    <path clip-path="url(#p45cda23f90)" d="M 81.945495 112.429788 
L 137.725714 112.429788 
" style="fill:none;stroke:#008000;stroke-linecap:square;"/>
   </g>
   <g id="line2d_8">
    <path clip-path="url(#p45cda23f90)" d="M 137.725714 134.741876 
L 137.725714 112.429788 
" style="fill:none;stroke:#008000;stroke-linecap:square;"/>
   </g>
   <g id="line2d_9">
    <path clip-path="url(#p45cda23f90)" d="M 59.633407 179.366052 
L 59.633407 123.585832 
" style="fill:none;stroke:#008000;stroke-linecap:square;"/>
   </g>
   <g id="line2d_10">
    <path clip-path="url(#p45cda23f90)" d="M 59.633407 179.366052 
L 81.945495 179.366052 
" style="fill:none;stroke:#008000;stroke-linecap:square;"/>
   </g>
   <g id="line2d_11">
    <path clip-path="url(#p45cda23f90)" d="M 59.633407 123.585832 
L 81.945495 123.585832 
" style="fill:none;stroke:#008000;stroke-linecap:square;"/>
   </g>
   <g id="line2d_12">
    <path clip-path="url(#p45cda23f90)" d="M 81.945495 179.366052 
L 81.945495 123.585832 
" style="fill:none;stroke:#008000;stroke-linecap:square;"/>
   </g>
   <g id="line2d_13">
    <path clip-path="url(#p45cda23f90)" d="M 15.009231 123.585832 
L 15.009231 101.273745 
" style="fill:none;stroke:#008000;stroke-linecap:square;"/>
   </g>
   <g id="line2d_14">
    <path clip-path="url(#p45cda23f90)" d="M 15.009231 123.585832 
L 70.789451 123.585832 
" style="fill:none;stroke:#008000;stroke-linecap:square;"/>
   </g>
   <g id="line2d_15">
    <path clip-path="url(#p45cda23f90)" d="M 15.009231 101.273745 
L 70.789451 101.273745 
" style="fill:none;stroke:#008000;stroke-linecap:square;"/>
   </g>
   <g id="line2d_16">
    <path clip-path="url(#p45cda23f90)" d="M 70.789451 123.585832 
L 70.789451 101.273745 
" style="fill:none;stroke:#008000;stroke-linecap:square;"/>
   </g>
   <g id="line2d_17">
    <path clip-path="url(#p45cda23f90)" d="M 70.789451 123.585832 
L 70.789451 112.429788 
" style="fill:none;stroke:#0000ff;stroke-linecap:square;"/>
   </g>
   <g id="line2d_18">
    <path clip-path="url(#p45cda23f90)" d="M 70.789451 123.585832 
L 81.945495 123.585832 
" style="fill:none;stroke:#0000ff;stroke-linecap:square;"/>
   </g>
   <g id="line2d_19">
    <path clip-path="url(#p45cda23f90)" d="M 70.789451 112.429788 
L 81.945495 112.429788 
" style="fill:none;stroke:#0000ff;stroke-linecap:square;"/>
   </g>
   <g id="line2d_20">
    <path clip-path="url(#p45cda23f90)" d="M 81.945495 123.585832 
L 81.945495 112.429788 
" style="fill:none;stroke:#0000ff;stroke-linecap:square;"/>
   </g>
   <g id="line2d_21">
    <path clip-path="url(#p45cda23f90)" d="M 327.378462 101.273745 
L 327.378462 56.649569 
" style="fill:none;stroke:#008000;stroke-linecap:square;"/>
   </g>
   <g id="line2d_22">
    <path clip-path="url(#p45cda23f90)" d="M 327.378462 101.273745 
L 349.690549 101.273745 
" style="fill:none;stroke:#008000;stroke-linecap:square;"/>
   </g>
   <g id="line2d_23">
    <path clip-path="url(#p45cda23f90)" d="M 327.378462 56.649569 
L 349.690549 56.649569 
" style="fill:none;stroke:#008000;stroke-linecap:square;"/>
   </g>
   <g id="line2d_24">
    <path clip-path="url(#p45cda23f90)" d="M 349.690549 101.273745 
L 349.690549 56.649569 
" style="fill:none;stroke:#008000;stroke-linecap:square;"/>
   </g>
   <g id="line2d_25">
    <path clip-path="url(#p45cda23f90)" d="M 360.846593 123.585832 
L 360.846593 101.273745 
" style="fill:none;stroke:#008000;stroke-linecap:square;"/>
   </g>
   <g id="line2d_26">
    <path clip-path="url(#p45cda23f90)" d="M 360.846593 123.585832 
L 405.470769 123.585832 
" style="fill:none;stroke:#008000;stroke-linecap:square;"/>
   </g>
   <g id="line2d_27">
    <path clip-path="url(#p45cda23f90)" d="M 360.846593 101.273745 
L 405.470769 101.273745 
" style="fill:none;stroke:#008000;stroke-linecap:square;"/>
   </g>
   <g id="line2d_28">
    <path clip-path="url(#p45cda23f90)" d="M 405.470769 123.585832 
L 405.470769 101.273745 
" style="fill:none;stroke:#008000;stroke-linecap:square;"/>
   </g>
   <g id="line2d_29">
    <path clip-path="url(#p45cda23f90)" d="M 338.534505 179.366052 
L 338.534505 134.741876 
" style="fill:none;stroke:#008000;stroke-linecap:square;"/>
   </g>
   <g id="line2d_30">
    <path clip-path="url(#p45cda23f90)" d="M 338.534505 179.366052 
L 360.846593 179.366052 
" style="fill:none;stroke:#008000;stroke-linecap:square;"/>
   </g>
   <g id="line2d_31">
    <path clip-path="url(#p45cda23f90)" d="M 338.534505 134.741876 
L 360.846593 134.741876 
" style="fill:none;stroke:#008000;stroke-linecap:square;"/>
   </g>
   <g id="line2d_32">
    <path clip-path="url(#p45cda23f90)" d="M 360.846593 179.366052 
L 360.846593 134.741876 
" style="fill:none;stroke:#008000;stroke-linecap:square;"/>
   </g>
   <g id="line2d_33">
    <path clip-path="url(#p45cda23f90)" d="M 282.754286 134.741876 
L 282.754286 112.429788 
" style="fill:none;stroke:#008000;stroke-linecap:square;"/>
   </g>
   <g id="line2d_34">
    <path clip-path="url(#p45cda23f90)" d="M 282.754286 134.741876 
L 327.378462 134.741876 
" style="fill:none;stroke:#008000;stroke-linecap:square;"/>
   </g>
   <g id="line2d_35">
    <path clip-path="url(#p45cda23f90)" d="M 282.754286 112.429788 
L 327.378462 112.429788 
" style="fill:none;stroke:#008000;stroke-linecap:square;"/>
   </g>
   <g id="line2d_36">
    <path clip-path="url(#p45cda23f90)" d="M 327.378462 134.741876 
L 327.378462 112.429788 
" style="fill:none;stroke:#008000;stroke-linecap:square;"/>
   </g>
   <g id="line2d_37">
    <path clip-path="url(#p45cda23f90)" d="M 327.378462 134.741876 
L 327.378462 101.273745 
" style="fill:none;stroke:#0000ff;stroke-linecap:square;"/>
   </g>
   <g id="line2d_38">
    <path clip-path="url(#p45cda23f90)" d="M 327.378462 134.741876 
L 360.846593 134.741876 
" style="fill:none;stroke:#0000ff;stroke-linecap:square;"/>
   </g>
   <g id="line2d_39">
    <path clip-path="url(#p45cda23f90)" d="M 327.378462 101.273745 
L 360.846593 101.273745 
" style="fill:none;stroke:#0000ff;stroke-linecap:square;"/>
   </g>
   <g id="line2d_40">
    <path clip-path="url(#p45cda23f90)" d="M 360.846593 134.741876 
L 360.846593 101.273745 
" style="fill:none;stroke:#0000ff;stroke-linecap:square;"/>
   </g>
   <g id="PathCollection_1">
    <defs>
     <path d="M 0 1.581139 
C 0.419323 1.581139 0.821528 1.41454 1.118034 1.118034 
C 1.41454 0.821528 1.581139 0.419323 1.581139 0 
C 1.581139 -0.419323 1.41454 -0.821528 1.118034 -1.118034 
C 0.821528 -1.41454 0.419323 -1.581139 0 -1.581139 
C -0.419323 -1.581139 -0.821528 -1.41454 -1.118034 -1.118034 
C -1.41454 -0.821528 -1.581139 -0.419323 -1.581139 0 
C -1.581139 0.419323 -1.41454 0.821528 -1.118034 1.118034 
C -0.821528 1.41454 -0.419323 1.581139 0 1.581139 
z
" id="C0_0_a7409a52f6"/>
    </defs>
    <g clip-path="url(#p45cda23f90)">
     <use style="fill:#008000;" x="70.789451" xlink:href="#C0_0_a7409a52f6" y="112.429788"/>
    </g>
    <g clip-path="url(#p45cda23f90)">
     <use style="fill:#008000;" x="70.789451" xlink:href="#C0_0_a7409a52f6" y="56.649569"/>
    </g>
    <g clip-path="url(#p45cda23f90)">
     <use style="fill:#008000;" x="93.101538" xlink:href="#C0_0_a7409a52f6" y="112.429788"/>
    </g>
    <g clip-path="url(#p45cda23f90)">
     <use style="fill:#008000;" x="93.101538" xlink:href="#C0_0_a7409a52f6" y="56.649569"/>
    </g>
   </g>
   <g id="PathCollection_2">
    <defs>
     <path d="M 0 1.581139 
C 0.419323 1.581139 0.821528 1.41454 1.118034 1.118034 
C 1.41454 0.821528 1.581139 0.419323 1.581139 0 
C 1.581139 -0.419323 1.41454 -0.821528 1.118034 -1.118034 
C 0.821528 -1.41454 0.419323 -1.581139 0 -1.581139 
C -0.419323 -1.581139 -0.821528 -1.41454 -1.118034 -1.118034 
C -1.41454 -0.821528 -1.581139 -0.419323 -1.581139 0 
C -1.581139 0.419323 -1.41454 0.821528 -1.118034 1.118034 
C -0.821528 1.41454 -0.419323 1.581139 0 1.581139 
z
" id="C1_0_a9245e2a16"/>
    </defs>
    <g clip-path="url(#p45cda23f90)">
     <use style="fill:#008000;" x="81.945495" xlink:href="#C1_0_a9245e2a16" y="134.741876"/>
    </g>
    <g clip-path="url(#p45cda23f90)">
     <use style="fill:#008000;" x="81.945495" xlink:href="#C1_0_a9245e2a16" y="112.429788"/>
    </g>
    <g clip-path="url(#p45cda23f90)">
     <use style="fill:#008000;" x="137.725714" xlink:href="#C1_0_a9245e2a16" y="134.741876"/>
    </g>
    <g clip-path="url(#p45cda23f90)">
     <use style="fill:#008000;" x="137.725714" xlink:href="#C1_0_a9245e2a16" y="112.429788"/>
    </g>
   </g>
   <g id="PathCollection_3">
    <defs>
     <path d="M 0 1.581139 
C 0.419323 1.581139 0.821528 1.41454 1.118034 1.118034 
C 1.41454 0.821528 1.581139 0.419323 1.581139 0 
C 1.581139 -0.419323 1.41454 -0.821528 1.118034 -1.118034 
C 0.821528 -1.41454 0.419323 -1.581139 0 -1.581139 
C -0.419323 -1.581139 -0.821528 -1.41454 -1.118034 -1.118034 
C -1.41454 -0.821528 -1.581139 -0.419323 -1.581139 0 
C -1.581139 0.419323 -1.41454 0.821528 -1.118034 1.118034 
C -0.821528 1.41454 -0.419323 1.581139 0 1.581139 
z
" id="C2_0_29041ae956"/>
    </defs>
    <g clip-path="url(#p45cda23f90)">
     <use style="fill:#008000;" x="59.633407" xlink:href="#C2_0_29041ae956" y="179.366052"/>
    </g>
    <g clip-path="url(#p45cda23f90)">
     <use style="fill:#008000;" x="59.633407" xlink:href="#C2_0_29041ae956" y="123.585832"/>
    </g>
    <g clip-path="url(#p45cda23f90)">
     <use style="fill:#008000;" x="81.945495" xlink:href="#C2_0_29041ae956" y="179.366052"/>
    </g>
    <g clip-path="url(#p45cda23f90)">
     <use style="fill:#008000;" x="81.945495" xlink:href="#C2_0_29041ae956" y="123.585832"/>
    </g>
   </g>
   <g id="PathCollection_4">
    <defs>
     <path d="M 0 1.581139 
C 0.419323 1.581139 0.821528 1.41454 1.118034 1.118034 
C 1.41454 0.821528 1.581139 0.419323 1.581139 0 
C 1.581139 -0.419323 1.41454 -0.821528 1.118034 -1.118034 
C 0.821528 -1.41454 0.419323 -1.581139 0 -1.581139 
C -0.419323 -1.581139 -0.821528 -1.41454 -1.118034 -1.118034 
C -1.41454 -0.821528 -1.581139 -0.419323 -1.581139 0 
C -1.581139 0.419323 -1.41454 0.821528 -1.118034 1.118034 
C -0.821528 1.41454 -0.419323 1.581139 0 1.581139 
z
" id="C3_0_dfa1094ecf"/>
    </defs>
    <g clip-path="url(#p45cda23f90)">
     <use style="fill:#008000;" x="15.009231" xlink:href="#C3_0_dfa1094ecf" y="123.585832"/>
    </g>
    <g clip-path="url(#p45cda23f90)">
     <use style="fill:#008000;" x="15.009231" xlink:href="#C3_0_dfa1094ecf" y="101.273745"/>
    </g>
    <g clip-path="url(#p45cda23f90)">
     <use style="fill:#008000;" x="70.789451" xlink:href="#C3_0_dfa1094ecf" y="123.585832"/>
    </g>
    <g clip-path="url(#p45cda23f90)">
     <use style="fill:#008000;" x="70.789451" xlink:href="#C3_0_dfa1094ecf" y="101.273745"/>
    </g>
   </g>
   <g id="PathCollection_5">
    <defs>
     <path d="M 0 1.581139 
C 0.419323 1.581139 0.821528 1.41454 1.118034 1.118034 
C 1.41454 0.821528 1.581139 0.419323 1.581139 0 
C 1.581139 -0.419323 1.41454 -0.821528 1.118034 -1.118034 
C 0.821528 -1.41454 0.419323 -1.581139 0 -1.581139 
C -0.419323 -1.581139 -0.821528 -1.41454 -1.118034 -1.118034 
C -1.41454 -0.821528 -1.581139 -0.419323 -1.581139 0 
C -1.581139 0.419323 -1.41454 0.821528 -1.118034 1.118034 
C -0.821528 1.41454 -0.419323 1.581139 0 1.581139 
z
" id="C4_0_ef2493095c"/>
    </defs>
    <g clip-path="url(#p45cda23f90)">
     <use style="fill:#0000ff;" x="70.789451" xlink:href="#C4_0_ef2493095c" y="123.585832"/>
    </g>
    <g clip-path="url(#p45cda23f90)">
     <use style="fill:#0000ff;" x="70.789451" xlink:href="#C4_0_ef2493095c" y="112.429788"/>
    </g>
    <g clip-path="url(#p45cda23f90)">
     <use style="fill:#0000ff;" x="81.945495" xlink:href="#C4_0_ef2493095c" y="123.585832"/>
    </g>
    <g clip-path="url(#p45cda23f90)">
     <use style="fill:#0000ff;" x="81.945495" xlink:href="#C4_0_ef2493095c" y="112.429788"/>
    </g>
   </g>
   <g id="PathCollection_6">
    <defs>
     <path d="M 0 1.581139 
C 0.419323 1.581139 0.821528 1.41454 1.118034 1.118034 
C 1.41454 0.821528 1.581139 0.419323 1.581139 0 
C 1.581139 -0.419323 1.41454 -0.821528 1.118034 -1.118034 
C 0.821528 -1.41454 0.419323 -1.581139 0 -1.581139 
C -0.419323 -1.581139 -0.821528 -1.41454 -1.118034 -1.118034 
C -1.41454 -0.821528 -1.581139 -0.419323 -1.581139 0 
C -1.581139 0.419323 -1.41454 0.821528 -1.118034 1.118034 
C -0.821528 1.41454 -0.419323 1.581139 0 1.581139 
z
" id="C5_0_8e5d826901"/>
    </defs>
    <g clip-path="url(#p45cda23f90)">
     <use style="fill:#008000;" x="327.378462" xlink:href="#C5_0_8e5d826901" y="101.273745"/>
    </g>
    <g clip-path="url(#p45cda23f90)">
     <use style="fill:#008000;" x="327.378462" xlink:href="#C5_0_8e5d826901" y="56.649569"/>
    </g>
    <g clip-path="url(#p45cda23f90)">
     <use style="fill:#008000;" x="349.690549" xlink:href="#C5_0_8e5d826901" y="101.273745"/>
    </g>
    <g clip-path="url(#p45cda23f90)">
     <use style="fill:#008000;" x="349.690549" xlink:href="#C5_0_8e5d826901" y="56.649569"/>
    </g>
   </g>
   <g id="PathCollection_7">
    <defs>
     <path d="M 0 1.581139 
C 0.419323 1.581139 0.821528 1.41454 1.118034 1.118034 
C 1.41454 0.821528 1.581139 0.419323 1.581139 0 
C 1.581139 -0.419323 1.41454 -0.821528 1.118034 -1.118034 
C 0.821528 -1.41454 0.419323 -1.581139 0 -1.581139 
C -0.419323 -1.581139 -0.821528 -1.41454 -1.118034 -1.118034 
C -1.41454 -0.821528 -1.581139 -0.419323 -1.581139 0 
C -1.581139 0.419323 -1.41454 0.821528 -1.118034 1.118034 
C -0.821528 1.41454 -0.419323 1.581139 0 1.581139 
z
" id="C6_0_78ac005ff6"/>
    </defs>
    <g clip-path="url(#p45cda23f90)">
     <use style="fill:#008000;" x="360.846593" xlink:href="#C6_0_78ac005ff6" y="123.585832"/>
    </g>
    <g clip-path="url(#p45cda23f90)">
     <use style="fill:#008000;" x="360.846593" xlink:href="#C6_0_78ac005ff6" y="101.273745"/>
    </g>
    <g clip-path="url(#p45cda23f90)">
     <use style="fill:#008000;" x="405.470769" xlink:href="#C6_0_78ac005ff6" y="123.585832"/>
    </g>
    <g clip-path="url(#p45cda23f90)">
     <use style="fill:#008000;" x="405.470769" xlink:href="#C6_0_78ac005ff6" y="101.273745"/>
    </g>
   </g>
   <g id="PathCollection_8">
    <defs>
     <path d="M 0 1.581139 
C 0.419323 1.581139 0.821528 1.41454 1.118034 1.118034 
C 1.41454 0.821528 1.581139 0.419323 1.581139 0 
C 1.581139 -0.419323 1.41454 -0.821528 1.118034 -1.118034 
C 0.821528 -1.41454 0.419323 -1.581139 0 -1.581139 
C -0.419323 -1.581139 -0.821528 -1.41454 -1.118034 -1.118034 
C -1.41454 -0.821528 -1.581139 -0.419323 -1.581139 0 
C -1.581139 0.419323 -1.41454 0.821528 -1.118034 1.118034 
C -0.821528 1.41454 -0.419323 1.581139 0 1.581139 
z
" id="C7_0_5d0453584c"/>
    </defs>
    <g clip-path="url(#p45cda23f90)">
     <use style="fill:#008000;" x="338.534505" xlink:href="#C7_0_5d0453584c" y="179.366052"/>
    </g>
    <g clip-path="url(#p45cda23f90)">
     <use style="fill:#008000;" x="338.534505" xlink:href="#C7_0_5d0453584c" y="134.741876"/>
    </g>
    <g clip-path="url(#p45cda23f90)">
     <use style="fill:#008000;" x="360.846593" xlink:href="#C7_0_5d0453584c" y="179.366052"/>
    </g>
    <g clip-path="url(#p45cda23f90)">
     <use style="fill:#008000;" x="360.846593" xlink:href="#C7_0_5d0453584c" y="134.741876"/>
    </g>
   </g>
   <g id="PathCollection_9">
    <defs>
     <path d="M 0 1.581139 
C 0.419323 1.581139 0.821528 1.41454 1.118034 1.118034 
C 1.41454 0.821528 1.581139 0.419323 1.581139 0 
C 1.581139 -0.419323 1.41454 -0.821528 1.118034 -1.118034 
C 0.821528 -1.41454 0.419323 -1.581139 0 -1.581139 
C -0.419323 -1.581139 -0.821528 -1.41454 -1.118034 -1.118034 
C -1.41454 -0.821528 -1.581139 -0.419323 -1.581139 0 
C -1.581139 0.419323 -1.41454 0.821528 -1.118034 1.118034 
C -0.821528 1.41454 -0.419323 1.581139 0 1.581139 
z
" id="C8_0_febb5ec99f"/>
    </defs>
    <g clip-path="url(#p45cda23f90)">
     <use style="fill:#008000;" x="282.754286" xlink:href="#C8_0_febb5ec99f" y="134.741876"/>
    </g>
    <g clip-path="url(#p45cda23f90)">
     <use style="fill:#008000;" x="282.754286" xlink:href="#C8_0_febb5ec99f" y="112.429788"/>
    </g>
    <g clip-path="url(#p45cda23f90)">
     <use style="fill:#008000;" x="327.378462" xlink:href="#C8_0_febb5ec99f" y="134.741876"/>
    </g>
    <g clip-path="url(#p45cda23f90)">
     <use style="fill:#008000;" x="327.378462" xlink:href="#C8_0_febb5ec99f" y="112.429788"/>
    </g>
   </g>
   <g id="PathCollection_10">
    <defs>
     <path d="M 0 1.581139 
C 0.419323 1.581139 0.821528 1.41454 1.118034 1.118034 
C 1.41454 0.821528 1.581139 0.419323 1.581139 0 
C 1.581139 -0.419323 1.41454 -0.821528 1.118034 -1.118034 
C 0.821528 -1.41454 0.419323 -1.581139 0 -1.581139 
C -0.419323 -1.581139 -0.821528 -1.41454 -1.118034 -1.118034 
C -1.41454 -0.821528 -1.581139 -0.419323 -1.581139 0 
C -1.581139 0.419323 -1.41454 0.821528 -1.118034 1.118034 
C -0.821528 1.41454 -0.419323 1.581139 0 1.581139 
z
" id="C9_0_d79a2a7d7c"/>
    </defs>
    <g clip-path="url(#p45cda23f90)">
     <use style="fill:#0000ff;" x="327.378462" xlink:href="#C9_0_d79a2a7d7c" y="134.741876"/>
    </g>
    <g clip-path="url(#p45cda23f90)">
     <use style="fill:#0000ff;" x="327.378462" xlink:href="#C9_0_d79a2a7d7c" y="101.273745"/>
    </g>
    <g clip-path="url(#p45cda23f90)">
     <use style="fill:#0000ff;" x="360.846593" xlink:href="#C9_0_d79a2a7d7c" y="134.741876"/>
    </g>
    <g clip-path="url(#p45cda23f90)">
     <use style="fill:#0000ff;" x="360.846593" xlink:href="#C9_0_d79a2a7d7c" y="101.273745"/>
    </g>
   </g>
   <g id="matplotlib.axis_1"/>
   <g id="matplotlib.axis_2"/>
   <g id="text_1">
    <!-- $ \left(1, 2, 5\right) $ -->
    <defs>
     <path d="M 31 -24.8125 
Q 25.4375 -20.40625 21.40625 -14.71875 
Q 17.390625 -9.03125 14.8125 -2.578125 
Q 12.25 3.859375 10.984375 10.890625 
Q 9.71875 17.921875 9.71875 25 
Q 9.71875 32.171875 10.984375 39.203125 
Q 12.25 46.234375 14.859375 52.734375 
Q 17.484375 59.234375 21.53125 64.890625 
Q 25.59375 70.5625 31 74.8125 
Q 31 75 31.5 75 
L 32.421875 75 
Q 32.71875 75 32.953125 74.734375 
Q 33.203125 74.46875 33.203125 74.125 
Q 33.203125 73.6875 33.015625 73.484375 
Q 28.125 68.703125 24.875 63.234375 
Q 21.625 57.765625 19.640625 51.578125 
Q 17.671875 45.40625 16.796875 38.78125 
Q 15.921875 32.171875 15.921875 25 
Q 15.921875 -6.78125 32.90625 -23.296875 
Q 33.203125 -23.578125 33.203125 -24.125 
Q 33.203125 -24.359375 32.9375 -24.671875 
Q 32.671875 -25 32.421875 -25 
L 31.5 -25 
Q 31 -25 31 -24.8125 
z
" id="Cmr10-28"/>
     <path d="M 9.28125 0 
L 9.28125 3.515625 
Q 21.78125 3.515625 21.78125 6.6875 
L 21.78125 59.1875 
Q 16.609375 56.6875 8.6875 56.6875 
L 8.6875 60.203125 
Q 20.953125 60.203125 27.203125 66.609375 
L 28.609375 66.609375 
Q 28.953125 66.609375 29.265625 66.328125 
Q 29.59375 66.0625 29.59375 65.71875 
L 29.59375 6.6875 
Q 29.59375 3.515625 42.09375 3.515625 
L 42.09375 0 
z
" id="Cmr10-31"/>
     <path d="M 9.90625 -18.015625 
Q 9.90625 -17.578125 10.296875 -17.1875 
Q 13.921875 -13.71875 15.921875 -9.171875 
Q 17.921875 -4.640625 17.921875 0.390625 
L 17.921875 1.609375 
Q 16.3125 0 13.921875 0 
Q 11.625 0 10.015625 1.609375 
Q 8.40625 3.21875 8.40625 5.515625 
Q 8.40625 7.859375 10.015625 9.421875 
Q 11.625 10.984375 13.921875 10.984375 
Q 17.484375 10.984375 19 7.6875 
Q 20.515625 4.390625 20.515625 0.390625 
Q 20.515625 -5.171875 18.28125 -10.171875 
Q 16.0625 -15.1875 12.015625 -19.1875 
Q 11.625 -19.390625 11.375 -19.390625 
Q 10.890625 -19.390625 10.390625 -18.9375 
Q 9.90625 -18.5 9.90625 -18.015625 
z
" id="Cmmi10-3b"/>
     <path d="M 4.984375 0 
L 4.984375 2.6875 
Q 4.984375 2.9375 5.171875 3.21875 
L 20.703125 20.40625 
Q 24.21875 24.21875 26.40625 26.796875 
Q 28.609375 29.390625 30.75 32.765625 
Q 32.90625 36.140625 34.15625 39.625 
Q 35.40625 43.109375 35.40625 47.015625 
Q 35.40625 51.125 33.890625 54.859375 
Q 32.375 58.59375 29.375 60.84375 
Q 26.375 63.09375 22.125 63.09375 
Q 17.78125 63.09375 14.3125 60.46875 
Q 10.84375 57.859375 9.421875 53.71875 
Q 9.8125 53.8125 10.5 53.8125 
Q 12.75 53.8125 14.328125 52.296875 
Q 15.921875 50.78125 15.921875 48.390625 
Q 15.921875 46.09375 14.328125 44.5 
Q 12.75 42.921875 10.5 42.921875 
Q 8.15625 42.921875 6.5625 44.546875 
Q 4.984375 46.1875 4.984375 48.390625 
Q 4.984375 52.15625 6.390625 55.4375 
Q 7.8125 58.734375 10.46875 61.296875 
Q 13.140625 63.875 16.484375 65.234375 
Q 19.828125 66.609375 23.578125 66.609375 
Q 29.296875 66.609375 34.21875 64.1875 
Q 39.15625 61.765625 42.03125 57.34375 
Q 44.921875 52.9375 44.921875 47.015625 
Q 44.921875 42.671875 43.015625 38.765625 
Q 41.109375 34.859375 38.125 31.65625 
Q 35.15625 28.46875 30.515625 24.40625 
Q 25.875 20.359375 24.421875 19 
L 13.09375 8.109375 
L 22.703125 8.109375 
Q 29.78125 8.109375 34.546875 8.21875 
Q 39.3125 8.34375 39.59375 8.59375 
Q 40.765625 9.859375 42 17.828125 
L 44.921875 17.828125 
L 42.09375 0 
z
" id="Cmr10-32"/>
     <path d="M 8.6875 11.375 
Q 9.71875 8.453125 11.84375 6.046875 
Q 13.96875 3.65625 16.875 2.3125 
Q 19.78125 0.984375 22.90625 0.984375 
Q 30.125 0.984375 32.859375 6.59375 
Q 35.59375 12.203125 35.59375 20.21875 
Q 35.59375 23.6875 35.46875 26.046875 
Q 35.359375 28.421875 34.8125 30.609375 
Q 33.890625 34.125 31.5625 36.765625 
Q 29.25 39.40625 25.875 39.40625 
Q 22.515625 39.40625 20.09375 38.375 
Q 17.671875 37.359375 16.15625 35.984375 
Q 14.65625 34.625 13.484375 33.109375 
Q 12.3125 31.59375 12.015625 31.5 
L 10.890625 31.5 
Q 10.640625 31.5 10.265625 31.8125 
Q 9.90625 32.125 9.90625 32.421875 
L 9.90625 65.828125 
Q 9.90625 66.0625 10.21875 66.328125 
Q 10.546875 66.609375 10.890625 66.609375 
L 11.1875 66.609375 
Q 17.921875 63.375 25.484375 63.375 
Q 32.90625 63.375 39.796875 66.609375 
L 40.09375 66.609375 
Q 40.4375 66.609375 40.71875 66.359375 
Q 41.015625 66.109375 41.015625 65.828125 
L 41.015625 64.890625 
Q 41.015625 64.40625 40.828125 64.40625 
Q 37.40625 59.859375 32.25 57.3125 
Q 27.09375 54.78125 21.578125 54.78125 
Q 17.578125 54.78125 13.375 55.90625 
L 13.375 37.015625 
Q 16.703125 39.703125 19.3125 40.84375 
Q 21.921875 42 25.984375 42 
Q 31.5 42 35.859375 38.8125 
Q 40.234375 35.640625 42.578125 30.53125 
Q 44.921875 25.4375 44.921875 20.125 
Q 44.921875 14.109375 41.96875 8.984375 
Q 39.015625 3.859375 33.9375 0.828125 
Q 28.859375 -2.203125 22.90625 -2.203125 
Q 17.96875 -2.203125 13.84375 0.328125 
Q 9.71875 2.875 7.34375 7.171875 
Q 4.984375 11.46875 4.984375 16.3125 
Q 4.984375 18.5625 6.4375 19.96875 
Q 7.90625 21.390625 10.109375 21.390625 
Q 12.3125 21.390625 13.796875 19.9375 
Q 15.28125 18.5 15.28125 16.3125 
Q 15.28125 14.15625 13.796875 12.671875 
Q 12.3125 11.1875 10.109375 11.1875 
Q 9.765625 11.1875 9.328125 11.25 
Q 8.890625 11.328125 8.6875 11.375 
z
" id="Cmr10-35"/>
     <path d="M 6.5 -25 
Q 5.609375 -25 5.609375 -24.125 
Q 5.609375 -23.6875 5.8125 -23.484375 
Q 22.90625 -6.78125 22.90625 25 
Q 22.90625 56.78125 6 73.296875 
Q 5.609375 73.53125 5.609375 74.125 
Q 5.609375 74.46875 5.875 74.734375 
Q 6.15625 75 6.5 75 
L 7.421875 75 
Q 7.71875 75 7.90625 74.8125 
Q 15.09375 69.140625 19.875 61.03125 
Q 24.65625 52.9375 26.875 43.75 
Q 29.109375 34.578125 29.109375 25 
Q 29.109375 17.921875 27.90625 11.0625 
Q 26.703125 4.203125 24.09375 -2.453125 
Q 21.484375 -9.125 17.484375 -14.765625 
Q 13.484375 -20.40625 7.90625 -24.8125 
Q 7.71875 -25 7.421875 -25 
z
" id="Cmr10-29"/>
    </defs>
    <g transform="translate(54.191473 43.889003)scale(0.144 -0.144)">
     <use transform="translate(0 2.5)scale(0.86)" xlink:href="#Cmr10-28"/>
     <use transform="translate(33.383789 0.390625)" xlink:href="#Cmr10-31"/>
     <use transform="translate(83.383789 0.390625)" xlink:href="#Cmmi10-3b"/>
     <use transform="translate(128.62793 0.390625)" xlink:href="#Cmr10-32"/>
     <use transform="translate(178.62793 0.390625)" xlink:href="#Cmmi10-3b"/>
     <use transform="translate(223.87207 0.390625)" xlink:href="#Cmr10-35"/>
     <use transform="translate(273.87207 2.5)scale(0.86)" xlink:href="#Cmr10-29"/>
    </g>
   </g>
   <g id="text_2">
    <!-- $ \left(3, 2, 4\right) $ -->
    <defs>
     <path d="M 9.515625 7.71875 
Q 11.859375 4.296875 15.8125 2.640625 
Q 19.78125 0.984375 24.3125 0.984375 
Q 30.125 0.984375 32.5625 5.9375 
Q 35.015625 10.890625 35.015625 17.1875 
Q 35.015625 20.015625 34.5 22.84375 
Q 33.984375 25.6875 32.765625 28.125 
Q 31.546875 30.5625 29.421875 32.03125 
Q 27.296875 33.5 24.21875 33.5 
L 17.578125 33.5 
Q 16.703125 33.5 16.703125 34.421875 
L 16.703125 35.296875 
Q 16.703125 36.078125 17.578125 36.078125 
L 23.09375 36.53125 
Q 26.609375 36.53125 28.921875 39.15625 
Q 31.25 41.796875 32.328125 45.578125 
Q 33.40625 49.359375 33.40625 52.78125 
Q 33.40625 57.5625 31.15625 60.640625 
Q 28.90625 63.71875 24.3125 63.71875 
Q 20.515625 63.71875 17.046875 62.28125 
Q 13.578125 60.84375 11.53125 57.90625 
Q 11.71875 57.953125 11.859375 57.984375 
Q 12.015625 58.015625 12.203125 58.015625 
Q 14.453125 58.015625 15.96875 56.453125 
Q 17.484375 54.890625 17.484375 52.6875 
Q 17.484375 50.53125 15.96875 48.96875 
Q 14.453125 47.40625 12.203125 47.40625 
Q 10.015625 47.40625 8.453125 48.96875 
Q 6.890625 50.53125 6.890625 52.6875 
Q 6.890625 56.984375 9.46875 60.15625 
Q 12.0625 63.328125 16.140625 64.96875 
Q 20.21875 66.609375 24.3125 66.609375 
Q 27.34375 66.609375 30.703125 65.703125 
Q 34.078125 64.796875 36.8125 63.109375 
Q 39.546875 61.421875 41.28125 58.78125 
Q 43.015625 56.15625 43.015625 52.78125 
Q 43.015625 48.578125 41.140625 45.015625 
Q 39.265625 41.453125 35.984375 38.859375 
Q 32.71875 36.28125 28.8125 35.015625 
Q 33.15625 34.1875 37.0625 31.734375 
Q 40.96875 29.296875 43.328125 25.484375 
Q 45.703125 21.6875 45.703125 17.28125 
Q 45.703125 11.765625 42.671875 7.296875 
Q 39.65625 2.828125 34.71875 0.3125 
Q 29.78125 -2.203125 24.3125 -2.203125 
Q 19.625 -2.203125 14.90625 -0.40625 
Q 10.203125 1.375 7.203125 4.9375 
Q 4.203125 8.5 4.203125 13.484375 
Q 4.203125 15.96875 5.859375 17.625 
Q 7.515625 19.28125 10.015625 19.28125 
Q 11.625 19.28125 12.96875 18.53125 
Q 14.3125 17.78125 15.0625 16.40625 
Q 15.828125 15.046875 15.828125 13.484375 
Q 15.828125 11.03125 14.109375 9.375 
Q 12.40625 7.71875 10.015625 7.71875 
z
" id="Cmr10-33"/>
     <path d="M 2.78125 16.5 
L 2.78125 20.015625 
L 33.6875 66.109375 
Q 34.03125 66.609375 34.71875 66.609375 
L 36.1875 66.609375 
Q 37.3125 66.609375 37.3125 65.484375 
L 37.3125 20.015625 
L 47.125 20.015625 
L 47.125 16.5 
L 37.3125 16.5 
L 37.3125 6.6875 
Q 37.3125 4.640625 40.234375 4.078125 
Q 43.171875 3.515625 47.015625 3.515625 
L 47.015625 0 
L 19.484375 0 
L 19.484375 3.515625 
Q 23.34375 3.515625 26.265625 4.078125 
Q 29.203125 4.640625 29.203125 6.6875 
L 29.203125 16.5 
z
M 6.109375 20.015625 
L 29.78125 20.015625 
L 29.78125 55.421875 
z
" id="Cmr10-34"/>
    </defs>
    <g transform="translate(321.936527 43.889003)scale(0.144 -0.144)">
     <use transform="translate(0 2.5)scale(0.86)" xlink:href="#Cmr10-28"/>
     <use transform="translate(33.383789 0.390625)" xlink:href="#Cmr10-33"/>
     <use transform="translate(83.383789 0.390625)" xlink:href="#Cmmi10-3b"/>
     <use transform="translate(128.62793 0.390625)" xlink:href="#Cmr10-32"/>
     <use transform="translate(178.62793 0.390625)" xlink:href="#Cmmi10-3b"/>
     <use transform="translate(223.87207 0.390625)" xlink:href="#Cmr10-34"/>
     <use transform="translate(273.87207 2.5)scale(0.86)" xlink:href="#Cmr10-29"/>
    </g>
   </g>
  </g>
 </g>
 <defs>
  <clipPath id="p45cda23f90">
   <rect height="145.028571" width="406.08" x="7.2" y="37.126492"/>
  </clipPath>
 </defs>
</svg>
