<?xml version="1.0" encoding="utf-8" standalone="no"?>
<!DOCTYPE svg PUBLIC "-//W3C//DTD SVG 1.1//EN"
  "http://www.w3.org/Graphics/SVG/1.1/DTD/svg11.dtd">
<!-- Created with matplotlib (http://matplotlib.org/) -->
<svg height="185pt" version="1.1" viewBox="0 0 420 185" width="420pt" xmlns="http://www.w3.org/2000/svg" xmlns:xlink="http://www.w3.org/1999/xlink">
 <defs>
  <style type="text/css">
*{stroke-linecap:butt;stroke-linejoin:round;}
  </style>
 </defs>
 <g id="figure_1">
  <g id="patch_1">
   <path d="M 0 185.287624 
L 420.48 185.287624 
L 420.48 0 
L 0 0 
z
" style="fill:#ffffff;"/>
  </g>
  <g id="axes_1">
   <g id="patch_2">
    <path d="M 7.2 178.087624 
L 413.28 178.087624 
L 413.28 36.992031 
L 7.2 36.992031 
z
" style="fill:#ffffff;"/>
   </g>
   <g id="patch_3">
    <path clip-path="url(#p5b9e3a02e2)" d="M 206.931004 109.194326 
L 206.931004 102.576333 
L 273.110926 102.576333 
L 273.110926 109.194326 
L 213.548996 109.194326 
L 220.166988 109.194326 
L 220.166988 175.374247 
L 213.548996 175.374247 
L 213.548996 115.812318 
L 213.548996 122.43031 
L 147.369074 122.43031 
L 147.369074 115.812318 
L 206.931004 115.812318 
L 206.931004 115.812318 
L 200.313012 115.812318 
L 200.313012 49.632396 
L 206.931004 49.632396 
z
" style="fill:#808080;"/>
   </g>
   <g id="line2d_1">
    <path clip-path="url(#p5b9e3a02e2)" d="M 74.57116 109.194326 
L 74.57116 102.576333 
" style="fill:none;stroke:#008000;stroke-linecap:square;"/>
   </g>
   <g id="line2d_2">
    <path clip-path="url(#p5b9e3a02e2)" d="M 74.57116 109.194326 
L 140.751082 109.194326 
" style="fill:none;stroke:#008000;stroke-linecap:square;"/>
   </g>
   <g id="line2d_3">
    <path clip-path="url(#p5b9e3a02e2)" d="M 74.57116 102.576333 
L 140.751082 102.576333 
" style="fill:none;stroke:#008000;stroke-linecap:square;"/>
   </g>
   <g id="line2d_4">
    <path clip-path="url(#p5b9e3a02e2)" d="M 140.751082 109.194326 
L 140.751082 102.576333 
" style="fill:none;stroke:#008000;stroke-linecap:square;"/>
   </g>
   <g id="line2d_5">
    <path clip-path="url(#p5b9e3a02e2)" d="M 81.189153 175.374247 
L 81.189153 109.194326 
" style="fill:none;stroke:#008000;stroke-linecap:square;"/>
   </g>
   <g id="line2d_6">
    <path clip-path="url(#p5b9e3a02e2)" d="M 81.189153 175.374247 
L 87.807145 175.374247 
" style="fill:none;stroke:#008000;stroke-linecap:square;"/>
   </g>
   <g id="line2d_7">
    <path clip-path="url(#p5b9e3a02e2)" d="M 81.189153 109.194326 
L 87.807145 109.194326 
" style="fill:none;stroke:#008000;stroke-linecap:square;"/>
   </g>
   <g id="line2d_8">
    <path clip-path="url(#p5b9e3a02e2)" d="M 87.807145 175.374247 
L 87.807145 109.194326 
" style="fill:none;stroke:#008000;stroke-linecap:square;"/>
   </g>
   <g id="line2d_9">
    <path clip-path="url(#p5b9e3a02e2)" d="M 15.009231 122.43031 
L 15.009231 115.812318 
" style="fill:none;stroke:#008000;stroke-linecap:square;"/>
   </g>
   <g id="line2d_10">
    <path clip-path="url(#p5b9e3a02e2)" d="M 15.009231 122.43031 
L 81.189153 122.43031 
" style="fill:none;stroke:#008000;stroke-linecap:square;"/>
   </g>
   <g id="line2d_11">
    <path clip-path="url(#p5b9e3a02e2)" d="M 15.009231 115.812318 
L 81.189153 115.812318 
" style="fill:none;stroke:#008000;stroke-linecap:square;"/>
   </g>
   <g id="line2d_12">
    <path clip-path="url(#p5b9e3a02e2)" d="M 81.189153 122.43031 
L 81.189153 115.812318 
" style="fill:none;stroke:#008000;stroke-linecap:square;"/>
   </g>
   <g id="line2d_13">
    <path clip-path="url(#p5b9e3a02e2)" d="M 67.953168 115.812318 
L 67.953168 49.632396 
" style="fill:none;stroke:#008000;stroke-linecap:square;"/>
   </g>
   <g id="line2d_14">
    <path clip-path="url(#p5b9e3a02e2)" d="M 67.953168 115.812318 
L 74.57116 115.812318 
" style="fill:none;stroke:#008000;stroke-linecap:square;"/>
   </g>
   <g id="line2d_15">
    <path clip-path="url(#p5b9e3a02e2)" d="M 67.953168 49.632396 
L 74.57116 49.632396 
" style="fill:none;stroke:#008000;stroke-linecap:square;"/>
   </g>
   <g id="line2d_16">
    <path clip-path="url(#p5b9e3a02e2)" d="M 74.57116 115.812318 
L 74.57116 49.632396 
" style="fill:none;stroke:#008000;stroke-linecap:square;"/>
   </g>
   <g id="line2d_17">
    <path clip-path="url(#p5b9e3a02e2)" d="M 74.57116 115.812318 
L 74.57116 109.194326 
" style="fill:none;stroke:#0000ff;stroke-linecap:square;"/>
   </g>
   <g id="line2d_18">
    <path clip-path="url(#p5b9e3a02e2)" d="M 74.57116 115.812318 
L 81.189153 115.812318 
" style="fill:none;stroke:#0000ff;stroke-linecap:square;"/>
   </g>
   <g id="line2d_19">
    <path clip-path="url(#p5b9e3a02e2)" d="M 74.57116 109.194326 
L 81.189153 109.194326 
" style="fill:none;stroke:#0000ff;stroke-linecap:square;"/>
   </g>
   <g id="line2d_20">
    <path clip-path="url(#p5b9e3a02e2)" d="M 81.189153 115.812318 
L 81.189153 109.194326 
" style="fill:none;stroke:#0000ff;stroke-linecap:square;"/>
   </g>
   <g id="line2d_21">
    <path clip-path="url(#p5b9e3a02e2)" d="M 332.672855 102.576333 
L 332.672855 49.632396 
" style="fill:none;stroke:#008000;stroke-linecap:square;"/>
   </g>
   <g id="line2d_22">
    <path clip-path="url(#p5b9e3a02e2)" d="M 332.672855 102.576333 
L 339.290847 102.576333 
" style="fill:none;stroke:#008000;stroke-linecap:square;"/>
   </g>
   <g id="line2d_23">
    <path clip-path="url(#p5b9e3a02e2)" d="M 332.672855 49.632396 
L 339.290847 49.632396 
" style="fill:none;stroke:#008000;stroke-linecap:square;"/>
   </g>
   <g id="line2d_24">
    <path clip-path="url(#p5b9e3a02e2)" d="M 339.290847 102.576333 
L 339.290847 49.632396 
" style="fill:none;stroke:#008000;stroke-linecap:square;"/>
   </g>
   <g id="line2d_25">
    <path clip-path="url(#p5b9e3a02e2)" d="M 352.526832 109.194326 
L 352.526832 102.576333 
" style="fill:none;stroke:#008000;stroke-linecap:square;"/>
   </g>
   <g id="line2d_26">
    <path clip-path="url(#p5b9e3a02e2)" d="M 352.526832 109.194326 
L 405.470769 109.194326 
" style="fill:none;stroke:#008000;stroke-linecap:square;"/>
   </g>
   <g id="line2d_27">
    <path clip-path="url(#p5b9e3a02e2)" d="M 352.526832 102.576333 
L 405.470769 102.576333 
" style="fill:none;stroke:#008000;stroke-linecap:square;"/>
   </g>
   <g id="line2d_28">
    <path clip-path="url(#p5b9e3a02e2)" d="M 405.470769 109.194326 
L 405.470769 102.576333 
" style="fill:none;stroke:#008000;stroke-linecap:square;"/>
   </g>
   <g id="line2d_29">
    <path clip-path="url(#p5b9e3a02e2)" d="M 345.90884 175.374247 
L 345.90884 122.43031 
" style="fill:none;stroke:#008000;stroke-linecap:square;"/>
   </g>
   <g id="line2d_30">
    <path clip-path="url(#p5b9e3a02e2)" d="M 345.90884 175.374247 
L 352.526832 175.374247 
" style="fill:none;stroke:#008000;stroke-linecap:square;"/>
   </g>
   <g id="line2d_31">
    <path clip-path="url(#p5b9e3a02e2)" d="M 345.90884 122.43031 
L 352.526832 122.43031 
" style="fill:none;stroke:#008000;stroke-linecap:square;"/>
   </g>
   <g id="line2d_32">
    <path clip-path="url(#p5b9e3a02e2)" d="M 352.526832 175.374247 
L 352.526832 122.43031 
" style="fill:none;stroke:#008000;stroke-linecap:square;"/>
   </g>
   <g id="line2d_33">
    <path clip-path="url(#p5b9e3a02e2)" d="M 279.728918 122.43031 
L 279.728918 115.812318 
" style="fill:none;stroke:#008000;stroke-linecap:square;"/>
   </g>
   <g id="line2d_34">
    <path clip-path="url(#p5b9e3a02e2)" d="M 279.728918 122.43031 
L 332.672855 122.43031 
" style="fill:none;stroke:#008000;stroke-linecap:square;"/>
   </g>
   <g id="line2d_35">
    <path clip-path="url(#p5b9e3a02e2)" d="M 279.728918 115.812318 
L 332.672855 115.812318 
" style="fill:none;stroke:#008000;stroke-linecap:square;"/>
   </g>
   <g id="line2d_36">
    <path clip-path="url(#p5b9e3a02e2)" d="M 332.672855 122.43031 
L 332.672855 115.812318 
" style="fill:none;stroke:#008000;stroke-linecap:square;"/>
   </g>
   <g id="line2d_37">
    <path clip-path="url(#p5b9e3a02e2)" d="M 332.672855 122.43031 
L 332.672855 102.576333 
" style="fill:none;stroke:#0000ff;stroke-linecap:square;"/>
   </g>
   <g id="line2d_38">
    <path clip-path="url(#p5b9e3a02e2)" d="M 332.672855 122.43031 
L 352.526832 122.43031 
" style="fill:none;stroke:#0000ff;stroke-linecap:square;"/>
   </g>
   <g id="line2d_39">
    <path clip-path="url(#p5b9e3a02e2)" d="M 332.672855 102.576333 
L 352.526832 102.576333 
" style="fill:none;stroke:#0000ff;stroke-linecap:square;"/>
   </g>
   <g id="line2d_40">
    <path clip-path="url(#p5b9e3a02e2)" d="M 352.526832 122.43031 
L 352.526832 102.576333 
" style="fill:none;stroke:#0000ff;stroke-linecap:square;"/>
   </g>
   <g id="PathCollection_1">
    <defs>
     <path d="M 0 1.581139 
C 0.419323 1.581139 0.821528 1.41454 1.118034 1.118034 
C 1.41454 0.821528 1.581139 0.419323 1.581139 0 
C 1.581139 -0.419323 1.41454 -0.821528 1.118034 -1.118034 
C 0.821528 -1.41454 0.419323 -1.581139 0 -1.581139 
C -0.419323 -1.581139 -0.821528 -1.41454 -1.118034 -1.118034 
C -1.41454 -0.821528 -1.581139 -0.419323 -1.581139 0 
C -1.581139 0.419323 -1.41454 0.821528 -1.118034 1.118034 
C -0.821528 1.41454 -0.419323 1.581139 0 1.581139 
z
" id="C0_0_f3a374e9be"/>
    </defs>
    <g clip-path="url(#p5b9e3a02e2)">
     <use style="fill:#008000;" x="74.57116" xlink:href="#C0_0_f3a374e9be" y="109.194326"/>
    </g>
    <g clip-path="url(#p5b9e3a02e2)">
     <use style="fill:#008000;" x="74.57116" xlink:href="#C0_0_f3a374e9be" y="102.576333"/>
    </g>
    <g clip-path="url(#p5b9e3a02e2)">
     <use style="fill:#008000;" x="140.751082" xlink:href="#C0_0_f3a374e9be" y="109.194326"/>
    </g>
    <g clip-path="url(#p5b9e3a02e2)">
     <use style="fill:#008000;" x="140.751082" xlink:href="#C0_0_f3a374e9be" y="102.576333"/>
    </g>
   </g>
   <g id="PathCollection_2">
    <defs>
     <path d="M 0 1.581139 
C 0.419323 1.581139 0.821528 1.41454 1.118034 1.118034 
C 1.41454 0.821528 1.581139 0.419323 1.581139 0 
C 1.581139 -0.419323 1.41454 -0.821528 1.118034 -1.118034 
C 0.821528 -1.41454 0.419323 -1.581139 0 -1.581139 
C -0.419323 -1.581139 -0.821528 -1.41454 -1.118034 -1.118034 
C -1.41454 -0.821528 -1.581139 -0.419323 -1.581139 0 
C -1.581139 0.419323 -1.41454 0.821528 -1.118034 1.118034 
C -0.821528 1.41454 -0.419323 1.581139 0 1.581139 
z
" id="C1_0_3dad4e079b"/>
    </defs>
    <g clip-path="url(#p5b9e3a02e2)">
     <use style="fill:#008000;" x="81.189153" xlink:href="#C1_0_3dad4e079b" y="175.374247"/>
    </g>
    <g clip-path="url(#p5b9e3a02e2)">
     <use style="fill:#008000;" x="81.189153" xlink:href="#C1_0_3dad4e079b" y="109.194326"/>
    </g>
    <g clip-path="url(#p5b9e3a02e2)">
     <use style="fill:#008000;" x="87.807145" xlink:href="#C1_0_3dad4e079b" y="175.374247"/>
    </g>
    <g clip-path="url(#p5b9e3a02e2)">
     <use style="fill:#008000;" x="87.807145" xlink:href="#C1_0_3dad4e079b" y="109.194326"/>
    </g>
   </g>
   <g id="PathCollection_3">
    <defs>
     <path d="M 0 1.581139 
C 0.419323 1.581139 0.821528 1.41454 1.118034 1.118034 
C 1.41454 0.821528 1.581139 0.419323 1.581139 0 
C 1.581139 -0.419323 1.41454 -0.821528 1.118034 -1.118034 
C 0.821528 -1.41454 0.419323 -1.581139 0 -1.581139 
C -0.419323 -1.581139 -0.821528 -1.41454 -1.118034 -1.118034 
C -1.41454 -0.821528 -1.581139 -0.419323 -1.581139 0 
C -1.581139 0.419323 -1.41454 0.821528 -1.118034 1.118034 
C -0.821528 1.41454 -0.419323 1.581139 0 1.581139 
z
" id="C2_0_ba9c495170"/>
    </defs>
    <g clip-path="url(#p5b9e3a02e2)">
     <use style="fill:#008000;" x="15.009231" xlink:href="#C2_0_ba9c495170" y="122.43031"/>
    </g>
    <g clip-path="url(#p5b9e3a02e2)">
     <use style="fill:#008000;" x="15.009231" xlink:href="#C2_0_ba9c495170" y="115.812318"/>
    </g>
    <g clip-path="url(#p5b9e3a02e2)">
     <use style="fill:#008000;" x="81.189153" xlink:href="#C2_0_ba9c495170" y="122.43031"/>
    </g>
    <g clip-path="url(#p5b9e3a02e2)">
     <use style="fill:#008000;" x="81.189153" xlink:href="#C2_0_ba9c495170" y="115.812318"/>
    </g>
   </g>
   <g id="PathCollection_4">
    <defs>
     <path d="M 0 1.581139 
C 0.419323 1.581139 0.821528 1.41454 1.118034 1.118034 
C 1.41454 0.821528 1.581139 0.419323 1.581139 0 
C 1.581139 -0.419323 1.41454 -0.821528 1.118034 -1.118034 
C 0.821528 -1.41454 0.419323 -1.581139 0 -1.581139 
C -0.419323 -1.581139 -0.821528 -1.41454 -1.118034 -1.118034 
C -1.41454 -0.821528 -1.581139 -0.419323 -1.581139 0 
C -1.581139 0.419323 -1.41454 0.821528 -1.118034 1.118034 
C -0.821528 1.41454 -0.419323 1.581139 0 1.581139 
z
" id="C3_0_6916d1e95c"/>
    </defs>
    <g clip-path="url(#p5b9e3a02e2)">
     <use style="fill:#008000;" x="67.953168" xlink:href="#C3_0_6916d1e95c" y="115.812318"/>
    </g>
    <g clip-path="url(#p5b9e3a02e2)">
     <use style="fill:#008000;" x="67.953168" xlink:href="#C3_0_6916d1e95c" y="49.632396"/>
    </g>
    <g clip-path="url(#p5b9e3a02e2)">
     <use style="fill:#008000;" x="74.57116" xlink:href="#C3_0_6916d1e95c" y="115.812318"/>
    </g>
    <g clip-path="url(#p5b9e3a02e2)">
     <use style="fill:#008000;" x="74.57116" xlink:href="#C3_0_6916d1e95c" y="49.632396"/>
    </g>
   </g>
   <g id="PathCollection_5">
    <defs>
     <path d="M 0 1.581139 
C 0.419323 1.581139 0.821528 1.41454 1.118034 1.118034 
C 1.41454 0.821528 1.581139 0.419323 1.581139 0 
C 1.581139 -0.419323 1.41454 -0.821528 1.118034 -1.118034 
C 0.821528 -1.41454 0.419323 -1.581139 0 -1.581139 
C -0.419323 -1.581139 -0.821528 -1.41454 -1.118034 -1.118034 
C -1.41454 -0.821528 -1.581139 -0.419323 -1.581139 0 
C -1.581139 0.419323 -1.41454 0.821528 -1.118034 1.118034 
C -0.821528 1.41454 -0.419323 1.581139 0 1.581139 
z
" id="C4_0_64f67bc90a"/>
    </defs>
    <g clip-path="url(#p5b9e3a02e2)">
     <use style="fill:#0000ff;" x="74.57116" xlink:href="#C4_0_64f67bc90a" y="115.812318"/>
    </g>
    <g clip-path="url(#p5b9e3a02e2)">
     <use style="fill:#0000ff;" x="74.57116" xlink:href="#C4_0_64f67bc90a" y="109.194326"/>
    </g>
    <g clip-path="url(#p5b9e3a02e2)">
     <use style="fill:#0000ff;" x="81.189153" xlink:href="#C4_0_64f67bc90a" y="115.812318"/>
    </g>
    <g clip-path="url(#p5b9e3a02e2)">
     <use style="fill:#0000ff;" x="81.189153" xlink:href="#C4_0_64f67bc90a" y="109.194326"/>
    </g>
   </g>
   <g id="PathCollection_6">
    <defs>
     <path d="M 0 1.581139 
C 0.419323 1.581139 0.821528 1.41454 1.118034 1.118034 
C 1.41454 0.821528 1.581139 0.419323 1.581139 0 
C 1.581139 -0.419323 1.41454 -0.821528 1.118034 -1.118034 
C 0.821528 -1.41454 0.419323 -1.581139 0 -1.581139 
C -0.419323 -1.581139 -0.821528 -1.41454 -1.118034 -1.118034 
C -1.41454 -0.821528 -1.581139 -0.419323 -1.581139 0 
C -1.581139 0.419323 -1.41454 0.821528 -1.118034 1.118034 
C -0.821528 1.41454 -0.419323 1.581139 0 1.581139 
z
" id="C5_0_3917e47ce6"/>
    </defs>
    <g clip-path="url(#p5b9e3a02e2)">
     <use style="fill:#008000;" x="332.672855" xlink:href="#C5_0_3917e47ce6" y="102.576333"/>
    </g>
    <g clip-path="url(#p5b9e3a02e2)">
     <use style="fill:#008000;" x="332.672855" xlink:href="#C5_0_3917e47ce6" y="49.632396"/>
    </g>
    <g clip-path="url(#p5b9e3a02e2)">
     <use style="fill:#008000;" x="339.290847" xlink:href="#C5_0_3917e47ce6" y="102.576333"/>
    </g>
    <g clip-path="url(#p5b9e3a02e2)">
     <use style="fill:#008000;" x="339.290847" xlink:href="#C5_0_3917e47ce6" y="49.632396"/>
    </g>
   </g>
   <g id="PathCollection_7">
    <defs>
     <path d="M 0 1.581139 
C 0.419323 1.581139 0.821528 1.41454 1.118034 1.118034 
C 1.41454 0.821528 1.581139 0.419323 1.581139 0 
C 1.581139 -0.419323 1.41454 -0.821528 1.118034 -1.118034 
C 0.821528 -1.41454 0.419323 -1.581139 0 -1.581139 
C -0.419323 -1.581139 -0.821528 -1.41454 -1.118034 -1.118034 
C -1.41454 -0.821528 -1.581139 -0.419323 -1.581139 0 
C -1.581139 0.419323 -1.41454 0.821528 -1.118034 1.118034 
C -0.821528 1.41454 -0.419323 1.581139 0 1.581139 
z
" id="C6_0_4aa974445b"/>
    </defs>
    <g clip-path="url(#p5b9e3a02e2)">
     <use style="fill:#008000;" x="352.526832" xlink:href="#C6_0_4aa974445b" y="109.194326"/>
    </g>
    <g clip-path="url(#p5b9e3a02e2)">
     <use style="fill:#008000;" x="352.526832" xlink:href="#C6_0_4aa974445b" y="102.576333"/>
    </g>
    <g clip-path="url(#p5b9e3a02e2)">
     <use style="fill:#008000;" x="405.470769" xlink:href="#C6_0_4aa974445b" y="109.194326"/>
    </g>
    <g clip-path="url(#p5b9e3a02e2)">
     <use style="fill:#008000;" x="405.470769" xlink:href="#C6_0_4aa974445b" y="102.576333"/>
    </g>
   </g>
   <g id="PathCollection_8">
    <defs>
     <path d="M 0 1.581139 
C 0.419323 1.581139 0.821528 1.41454 1.118034 1.118034 
C 1.41454 0.821528 1.581139 0.419323 1.581139 0 
C 1.581139 -0.419323 1.41454 -0.821528 1.118034 -1.118034 
C 0.821528 -1.41454 0.419323 -1.581139 0 -1.581139 
C -0.419323 -1.581139 -0.821528 -1.41454 -1.118034 -1.118034 
C -1.41454 -0.821528 -1.581139 -0.419323 -1.581139 0 
C -1.581139 0.419323 -1.41454 0.821528 -1.118034 1.118034 
C -0.821528 1.41454 -0.419323 1.581139 0 1.581139 
z
" id="C7_0_2c7ee0d9f5"/>
    </defs>
    <g clip-path="url(#p5b9e3a02e2)">
     <use style="fill:#008000;" x="345.90884" xlink:href="#C7_0_2c7ee0d9f5" y="175.374247"/>
    </g>
    <g clip-path="url(#p5b9e3a02e2)">
     <use style="fill:#008000;" x="345.90884" xlink:href="#C7_0_2c7ee0d9f5" y="122.43031"/>
    </g>
    <g clip-path="url(#p5b9e3a02e2)">
     <use style="fill:#008000;" x="352.526832" xlink:href="#C7_0_2c7ee0d9f5" y="175.374247"/>
    </g>
    <g clip-path="url(#p5b9e3a02e2)">
     <use style="fill:#008000;" x="352.526832" xlink:href="#C7_0_2c7ee0d9f5" y="122.43031"/>
    </g>
   </g>
   <g id="PathCollection_9">
    <defs>
     <path d="M 0 1.581139 
C 0.419323 1.581139 0.821528 1.41454 1.118034 1.118034 
C 1.41454 0.821528 1.581139 0.419323 1.581139 0 
C 1.581139 -0.419323 1.41454 -0.821528 1.118034 -1.118034 
C 0.821528 -1.41454 0.419323 -1.581139 0 -1.581139 
C -0.419323 -1.581139 -0.821528 -1.41454 -1.118034 -1.118034 
C -1.41454 -0.821528 -1.581139 -0.419323 -1.581139 0 
C -1.581139 0.419323 -1.41454 0.821528 -1.118034 1.118034 
C -0.821528 1.41454 -0.419323 1.581139 0 1.581139 
z
" id="C8_0_1a38e9921c"/>
    </defs>
    <g clip-path="url(#p5b9e3a02e2)">
     <use style="fill:#008000;" x="279.728918" xlink:href="#C8_0_1a38e9921c" y="122.43031"/>
    </g>
    <g clip-path="url(#p5b9e3a02e2)">
     <use style="fill:#008000;" x="279.728918" xlink:href="#C8_0_1a38e9921c" y="115.812318"/>
    </g>
    <g clip-path="url(#p5b9e3a02e2)">
     <use style="fill:#008000;" x="332.672855" xlink:href="#C8_0_1a38e9921c" y="122.43031"/>
    </g>
    <g clip-path="url(#p5b9e3a02e2)">
     <use style="fill:#008000;" x="332.672855" xlink:href="#C8_0_1a38e9921c" y="115.812318"/>
    </g>
   </g>
   <g id="PathCollection_10">
    <defs>
     <path d="M 0 1.581139 
C 0.419323 1.581139 0.821528 1.41454 1.118034 1.118034 
C 1.41454 0.821528 1.581139 0.419323 1.581139 0 
C 1.581139 -0.419323 1.41454 -0.821528 1.118034 -1.118034 
C 0.821528 -1.41454 0.419323 -1.581139 0 -1.581139 
C -0.419323 -1.581139 -0.821528 -1.41454 -1.118034 -1.118034 
C -1.41454 -0.821528 -1.581139 -0.419323 -1.581139 0 
C -1.581139 0.419323 -1.41454 0.821528 -1.118034 1.118034 
C -0.821528 1.41454 -0.419323 1.581139 0 1.581139 
z
" id="C9_0_c830e11c6f"/>
    </defs>
    <g clip-path="url(#p5b9e3a02e2)">
     <use style="fill:#0000ff;" x="332.672855" xlink:href="#C9_0_c830e11c6f" y="122.43031"/>
    </g>
    <g clip-path="url(#p5b9e3a02e2)">
     <use style="fill:#0000ff;" x="332.672855" xlink:href="#C9_0_c830e11c6f" y="102.576333"/>
    </g>
    <g clip-path="url(#p5b9e3a02e2)">
     <use style="fill:#0000ff;" x="352.526832" xlink:href="#C9_0_c830e11c6f" y="122.43031"/>
    </g>
    <g clip-path="url(#p5b9e3a02e2)">
     <use style="fill:#0000ff;" x="352.526832" xlink:href="#C9_0_c830e11c6f" y="102.576333"/>
    </g>
   </g>
   <g id="matplotlib.axis_1"/>
   <g id="matplotlib.axis_2"/>
   <g id="text_1">
    <!-- $ \left(1, 10, 1\right) $ -->
    <defs>
     <path d="M 31 -24.8125 
Q 25.4375 -20.40625 21.40625 -14.71875 
Q 17.390625 -9.03125 14.8125 -2.578125 
Q 12.25 3.859375 10.984375 10.890625 
Q 9.71875 17.921875 9.71875 25 
Q 9.71875 32.171875 10.984375 39.203125 
Q 12.25 46.234375 14.859375 52.734375 
Q 17.484375 59.234375 21.53125 64.890625 
Q 25.59375 70.5625 31 74.8125 
Q 31 75 31.5 75 
L 32.421875 75 
Q 32.71875 75 32.953125 74.734375 
Q 33.203125 74.46875 33.203125 74.125 
Q 33.203125 73.6875 33.015625 73.484375 
Q 28.125 68.703125 24.875 63.234375 
Q 21.625 57.765625 19.640625 51.578125 
Q 17.671875 45.40625 16.796875 38.78125 
Q 15.921875 32.171875 15.921875 25 
Q 15.921875 -6.78125 32.90625 -23.296875 
Q 33.203125 -23.578125 33.203125 -24.125 
Q 33.203125 -24.359375 32.9375 -24.671875 
Q 32.671875 -25 32.421875 -25 
L 31.5 -25 
Q 31 -25 31 -24.8125 
z
" id="Cmr10-28"/>
     <path d="M 9.28125 0 
L 9.28125 3.515625 
Q 21.78125 3.515625 21.78125 6.6875 
L 21.78125 59.1875 
Q 16.609375 56.6875 8.6875 56.6875 
L 8.6875 60.203125 
Q 20.953125 60.203125 27.203125 66.609375 
L 28.609375 66.609375 
Q 28.953125 66.609375 29.265625 66.328125 
Q 29.59375 66.0625 29.59375 65.71875 
L 29.59375 6.6875 
Q 29.59375 3.515625 42.09375 3.515625 
L 42.09375 0 
z
" id="Cmr10-31"/>
     <path d="M 9.90625 -18.015625 
Q 9.90625 -17.578125 10.296875 -17.1875 
Q 13.921875 -13.71875 15.921875 -9.171875 
Q 17.921875 -4.640625 17.921875 0.390625 
L 17.921875 1.609375 
Q 16.3125 0 13.921875 0 
Q 11.625 0 10.015625 1.609375 
Q 8.40625 3.21875 8.40625 5.515625 
Q 8.40625 7.859375 10.015625 9.421875 
Q 11.625 10.984375 13.921875 10.984375 
Q 17.484375 10.984375 19 7.6875 
Q 20.515625 4.390625 20.515625 0.390625 
Q 20.515625 -5.171875 18.28125 -10.171875 
Q 16.0625 -15.1875 12.015625 -19.1875 
Q 11.625 -19.390625 11.375 -19.390625 
Q 10.890625 -19.390625 10.390625 -18.9375 
Q 9.90625 -18.5 9.90625 -18.015625 
z
" id="Cmmi10-3b"/>
     <path d="M 25 -2.203125 
Q 12.75 -2.203125 8.328125 7.875 
Q 3.90625 17.96875 3.90625 31.890625 
Q 3.90625 40.578125 5.484375 48.234375 
Q 7.078125 55.90625 11.78125 61.25 
Q 16.5 66.609375 25 66.609375 
Q 31.59375 66.609375 35.78125 63.375 
Q 39.984375 60.15625 42.1875 55.046875 
Q 44.390625 49.953125 45.1875 44.109375 
Q 46 38.28125 46 31.890625 
Q 46 23.296875 44.40625 15.796875 
Q 42.828125 8.296875 38.1875 3.046875 
Q 33.546875 -2.203125 25 -2.203125 
z
M 25 0.390625 
Q 30.5625 0.390625 33.296875 6.09375 
Q 36.03125 11.8125 36.671875 18.75 
Q 37.3125 25.6875 37.3125 33.5 
Q 37.3125 41.015625 36.671875 47.359375 
Q 36.03125 53.71875 33.3125 58.859375 
Q 30.609375 64.015625 25 64.015625 
Q 19.34375 64.015625 16.609375 58.828125 
Q 13.875 53.65625 13.234375 47.328125 
Q 12.59375 41.015625 12.59375 33.5 
Q 12.59375 27.9375 12.859375 23 
Q 13.140625 18.0625 14.3125 12.8125 
Q 15.484375 7.5625 18.09375 3.96875 
Q 20.703125 0.390625 25 0.390625 
z
" id="Cmr10-30"/>
     <path d="M 6.5 -25 
Q 5.609375 -25 5.609375 -24.125 
Q 5.609375 -23.6875 5.8125 -23.484375 
Q 22.90625 -6.78125 22.90625 25 
Q 22.90625 56.78125 6 73.296875 
Q 5.609375 73.53125 5.609375 74.125 
Q 5.609375 74.46875 5.875 74.734375 
Q 6.15625 75 6.5 75 
L 7.421875 75 
Q 7.71875 75 7.90625 74.8125 
Q 15.09375 69.140625 19.875 61.03125 
Q 24.65625 52.9375 26.875 43.75 
Q 29.109375 34.578125 29.109375 25 
Q 29.109375 17.921875 27.90625 11.0625 
Q 26.703125 4.203125 24.09375 -2.453125 
Q 21.484375 -9.125 17.484375 -14.765625 
Q 13.484375 -20.40625 7.90625 -24.8125 
Q 7.71875 -25 7.421875 -25 
z
" id="Cmr10-29"/>
    </defs>
    <g transform="translate(52.104156 43.678908)scale(0.144 -0.144)">
     <use transform="translate(0 2.5)scale(0.86)" xlink:href="#Cmr10-28"/>
     <use transform="translate(33.383789 0.390625)" xlink:href="#Cmr10-31"/>
     <use transform="translate(83.383789 0.390625)" xlink:href="#Cmmi10-3b"/>
     <use transform="translate(128.62793 0.390625)" xlink:href="#Cmr10-31"/>
     <use transform="translate(178.62793 0.390625)" xlink:href="#Cmr10-30"/>
     <use transform="translate(228.62793 0.390625)" xlink:href="#Cmmi10-3b"/>
     <use transform="translate(273.87207 0.390625)" xlink:href="#Cmr10-31"/>
     <use transform="translate(323.87207 2.5)scale(0.86)" xlink:href="#Cmr10-29"/>
    </g>
   </g>
   <g id="text_2">
    <!-- $ \left(3, 1, 8\right) $ -->
    <defs>
     <path d="M 9.515625 7.71875 
Q 11.859375 4.296875 15.8125 2.640625 
Q 19.78125 0.984375 24.3125 0.984375 
Q 30.125 0.984375 32.5625 5.9375 
Q 35.015625 10.890625 35.015625 17.1875 
Q 35.015625 20.015625 34.5 22.84375 
Q 33.984375 25.6875 32.765625 28.125 
Q 31.546875 30.5625 29.421875 32.03125 
Q 27.296875 33.5 24.21875 33.5 
L 17.578125 33.5 
Q 16.703125 33.5 16.703125 34.421875 
L 16.703125 35.296875 
Q 16.703125 36.078125 17.578125 36.078125 
L 23.09375 36.53125 
Q 26.609375 36.53125 28.921875 39.15625 
Q 31.25 41.796875 32.328125 45.578125 
Q 33.40625 49.359375 33.40625 52.78125 
Q 33.40625 57.5625 31.15625 60.640625 
Q 28.90625 63.71875 24.3125 63.71875 
Q 20.515625 63.71875 17.046875 62.28125 
Q 13.578125 60.84375 11.53125 57.90625 
Q 11.71875 57.953125 11.859375 57.984375 
Q 12.015625 58.015625 12.203125 58.015625 
Q 14.453125 58.015625 15.96875 56.453125 
Q 17.484375 54.890625 17.484375 52.6875 
Q 17.484375 50.53125 15.96875 48.96875 
Q 14.453125 47.40625 12.203125 47.40625 
Q 10.015625 47.40625 8.453125 48.96875 
Q 6.890625 50.53125 6.890625 52.6875 
Q 6.890625 56.984375 9.46875 60.15625 
Q 12.0625 63.328125 16.140625 64.96875 
Q 20.21875 66.609375 24.3125 66.609375 
Q 27.34375 66.609375 30.703125 65.703125 
Q 34.078125 64.796875 36.8125 63.109375 
Q 39.546875 61.421875 41.28125 58.78125 
Q 43.015625 56.15625 43.015625 52.78125 
Q 43.015625 48.578125 41.140625 45.015625 
Q 39.265625 41.453125 35.984375 38.859375 
Q 32.71875 36.28125 28.8125 35.015625 
Q 33.15625 34.1875 37.0625 31.734375 
Q 40.96875 29.296875 43.328125 25.484375 
Q 45.703125 21.6875 45.703125 17.28125 
Q 45.703125 11.765625 42.671875 7.296875 
Q 39.65625 2.828125 34.71875 0.3125 
Q 29.78125 -2.203125 24.3125 -2.203125 
Q 19.625 -2.203125 14.90625 -0.40625 
Q 10.203125 1.375 7.203125 4.9375 
Q 4.203125 8.5 4.203125 13.484375 
Q 4.203125 15.96875 5.859375 17.625 
Q 7.515625 19.28125 10.015625 19.28125 
Q 11.625 19.28125 12.96875 18.53125 
Q 14.3125 17.78125 15.0625 16.40625 
Q 15.828125 15.046875 15.828125 13.484375 
Q 15.828125 11.03125 14.109375 9.375 
Q 12.40625 7.71875 10.015625 7.71875 
z
" id="Cmr10-33"/>
     <path d="M 4.203125 15.1875 
Q 4.203125 21.1875 8.15625 25.796875 
Q 12.109375 30.421875 18.3125 33.5 
L 14.59375 35.890625 
Q 11.1875 38.140625 9.03125 41.875 
Q 6.890625 45.609375 6.890625 49.703125 
Q 6.890625 54.5 9.40625 58.34375 
Q 11.921875 62.203125 16.09375 64.40625 
Q 20.265625 66.609375 25 66.609375 
Q 29.4375 66.609375 33.5625 64.796875 
Q 37.703125 62.984375 40.359375 59.609375 
Q 43.015625 56.25 43.015625 51.609375 
Q 43.015625 48.25 41.421875 45.359375 
Q 39.84375 42.484375 37.078125 40.1875 
Q 34.328125 37.890625 31.203125 36.28125 
L 36.921875 32.625 
Q 40.875 30.03125 43.28125 25.828125 
Q 45.703125 21.625 45.703125 17 
Q 45.703125 11.578125 42.796875 7.125 
Q 39.890625 2.6875 35.109375 0.234375 
Q 30.328125 -2.203125 25 -2.203125 
Q 19.828125 -2.203125 15.015625 -0.09375 
Q 10.203125 2 7.203125 5.984375 
Q 4.203125 9.96875 4.203125 15.1875 
z
M 9.625 15.1875 
Q 9.625 11.234375 11.796875 7.953125 
Q 13.96875 4.6875 17.53125 2.828125 
Q 21.09375 0.984375 25 0.984375 
Q 30.8125 0.984375 35.546875 4.375 
Q 40.28125 7.765625 40.28125 13.375 
Q 40.28125 15.28125 39.515625 17.15625 
Q 38.765625 19.046875 37.421875 20.578125 
Q 36.078125 22.125 34.421875 23.09375 
L 21 31.78125 
Q 17.875 30.125 15.25 27.578125 
Q 12.640625 25.046875 11.125 21.875 
Q 9.625 18.703125 9.625 15.1875 
z
M 16.5 45.703125 
L 28.609375 37.890625 
Q 32.8125 40.328125 35.5 43.796875 
Q 38.1875 47.265625 38.1875 51.609375 
Q 38.1875 54.984375 36.296875 57.78125 
Q 34.421875 60.59375 31.390625 62.15625 
Q 28.375 63.71875 24.90625 63.71875 
Q 21.875 63.71875 18.796875 62.546875 
Q 15.71875 61.375 13.71875 59.046875 
Q 11.71875 56.734375 11.71875 53.609375 
Q 11.71875 48.921875 16.5 45.703125 
z
" id="Cmr10-38"/>
    </defs>
    <g transform="translate(320.423844 43.678908)scale(0.144 -0.144)">
     <use transform="translate(0 2.5)scale(0.86)" xlink:href="#Cmr10-28"/>
     <use transform="translate(33.383789 0.390625)" xlink:href="#Cmr10-33"/>
     <use transform="translate(83.383789 0.390625)" xlink:href="#Cmmi10-3b"/>
     <use transform="translate(128.62793 0.390625)" xlink:href="#Cmr10-31"/>
     <use transform="translate(178.62793 0.390625)" xlink:href="#Cmmi10-3b"/>
     <use transform="translate(223.87207 0.390625)" xlink:href="#Cmr10-38"/>
     <use transform="translate(273.87207 2.5)scale(0.86)" xlink:href="#Cmr10-29"/>
    </g>
   </g>
  </g>
 </g>
 <defs>
  <clipPath id="p5b9e3a02e2">
   <rect height="141.095593" width="406.08" x="7.2" y="36.992031"/>
  </clipPath>
 </defs>
</svg>
