<?xml version="1.0" encoding="utf-8" standalone="no"?>
<!DOCTYPE svg PUBLIC "-//W3C//DTD SVG 1.1//EN"
  "http://www.w3.org/Graphics/SVG/1.1/DTD/svg11.dtd">
<!-- Created with matplotlib (http://matplotlib.org/) -->
<svg height="187pt" version="1.1" viewBox="0 0 420 187" width="420pt" xmlns="http://www.w3.org/2000/svg" xmlns:xlink="http://www.w3.org/1999/xlink">
 <defs>
  <style type="text/css">
*{stroke-linecap:butt;stroke-linejoin:round;}
  </style>
 </defs>
 <g id="figure_1">
  <g id="patch_1">
   <path d="M 0 187.891777 
L 420.48 187.891777 
L 420.48 0 
L 0 0 
z
" style="fill:#ffffff;"/>
  </g>
  <g id="axes_1">
   <g id="patch_2">
    <path d="M 7.2 180.691777 
L 413.28 180.691777 
L 413.28 37.078119 
L 7.2 37.078119 
z
" style="fill:#ffffff;"/>
   </g>
   <g id="patch_3">
    <path clip-path="url(#p74076cc5cd)" d="M 195.954822 101.742359 
L 195.954822 92.218907 
L 272.142439 92.218907 
L 272.142439 101.742359 
L 224.525178 101.742359 
L 234.04863 101.742359 
L 234.04863 177.929976 
L 224.525178 177.929976 
L 224.525178 130.312715 
L 224.525178 139.836167 
L 148.337561 139.836167 
L 148.337561 130.312715 
L 195.954822 130.312715 
L 195.954822 130.312715 
L 186.43137 130.312715 
L 186.43137 54.125098 
L 195.954822 54.125098 
z
" style="fill:#808080;"/>
   </g>
   <g id="line2d_1">
    <path clip-path="url(#p74076cc5cd)" d="M 62.626492 101.742359 
L 62.626492 92.218907 
" style="fill:none;stroke:#008000;stroke-linecap:square;"/>
   </g>
   <g id="line2d_2">
    <path clip-path="url(#p74076cc5cd)" d="M 62.626492 101.742359 
L 138.814109 101.742359 
" style="fill:none;stroke:#008000;stroke-linecap:square;"/>
   </g>
   <g id="line2d_3">
    <path clip-path="url(#p74076cc5cd)" d="M 62.626492 92.218907 
L 138.814109 92.218907 
" style="fill:none;stroke:#008000;stroke-linecap:square;"/>
   </g>
   <g id="line2d_4">
    <path clip-path="url(#p74076cc5cd)" d="M 138.814109 101.742359 
L 138.814109 92.218907 
" style="fill:none;stroke:#008000;stroke-linecap:square;"/>
   </g>
   <g id="line2d_5">
    <path clip-path="url(#p74076cc5cd)" d="M 91.196848 177.929976 
L 91.196848 101.742359 
" style="fill:none;stroke:#008000;stroke-linecap:square;"/>
   </g>
   <g id="line2d_6">
    <path clip-path="url(#p74076cc5cd)" d="M 91.196848 177.929976 
L 100.7203 177.929976 
" style="fill:none;stroke:#008000;stroke-linecap:square;"/>
   </g>
   <g id="line2d_7">
    <path clip-path="url(#p74076cc5cd)" d="M 91.196848 101.742359 
L 100.7203 101.742359 
" style="fill:none;stroke:#008000;stroke-linecap:square;"/>
   </g>
   <g id="line2d_8">
    <path clip-path="url(#p74076cc5cd)" d="M 100.7203 177.929976 
L 100.7203 101.742359 
" style="fill:none;stroke:#008000;stroke-linecap:square;"/>
   </g>
   <g id="line2d_9">
    <path clip-path="url(#p74076cc5cd)" d="M 15.009231 139.836167 
L 15.009231 130.312715 
" style="fill:none;stroke:#008000;stroke-linecap:square;"/>
   </g>
   <g id="line2d_10">
    <path clip-path="url(#p74076cc5cd)" d="M 15.009231 139.836167 
L 91.196848 139.836167 
" style="fill:none;stroke:#008000;stroke-linecap:square;"/>
   </g>
   <g id="line2d_11">
    <path clip-path="url(#p74076cc5cd)" d="M 15.009231 130.312715 
L 91.196848 130.312715 
" style="fill:none;stroke:#008000;stroke-linecap:square;"/>
   </g>
   <g id="line2d_12">
    <path clip-path="url(#p74076cc5cd)" d="M 91.196848 139.836167 
L 91.196848 130.312715 
" style="fill:none;stroke:#008000;stroke-linecap:square;"/>
   </g>
   <g id="line2d_13">
    <path clip-path="url(#p74076cc5cd)" d="M 53.103039 130.312715 
L 53.103039 54.125098 
" style="fill:none;stroke:#008000;stroke-linecap:square;"/>
   </g>
   <g id="line2d_14">
    <path clip-path="url(#p74076cc5cd)" d="M 53.103039 130.312715 
L 62.626492 130.312715 
" style="fill:none;stroke:#008000;stroke-linecap:square;"/>
   </g>
   <g id="line2d_15">
    <path clip-path="url(#p74076cc5cd)" d="M 53.103039 54.125098 
L 62.626492 54.125098 
" style="fill:none;stroke:#008000;stroke-linecap:square;"/>
   </g>
   <g id="line2d_16">
    <path clip-path="url(#p74076cc5cd)" d="M 62.626492 130.312715 
L 62.626492 54.125098 
" style="fill:none;stroke:#008000;stroke-linecap:square;"/>
   </g>
   <g id="line2d_17">
    <path clip-path="url(#p74076cc5cd)" d="M 62.626492 130.312715 
L 62.626492 101.742359 
" style="fill:none;stroke:#0000ff;stroke-linecap:square;"/>
   </g>
   <g id="line2d_18">
    <path clip-path="url(#p74076cc5cd)" d="M 62.626492 130.312715 
L 91.196848 130.312715 
" style="fill:none;stroke:#0000ff;stroke-linecap:square;"/>
   </g>
   <g id="line2d_19">
    <path clip-path="url(#p74076cc5cd)" d="M 62.626492 101.742359 
L 91.196848 101.742359 
" style="fill:none;stroke:#0000ff;stroke-linecap:square;"/>
   </g>
   <g id="line2d_20">
    <path clip-path="url(#p74076cc5cd)" d="M 91.196848 130.312715 
L 91.196848 101.742359 
" style="fill:none;stroke:#0000ff;stroke-linecap:square;"/>
   </g>
   <g id="line2d_21">
    <path clip-path="url(#p74076cc5cd)" d="M 319.7597 92.218907 
L 319.7597 54.125098 
" style="fill:none;stroke:#008000;stroke-linecap:square;"/>
   </g>
   <g id="line2d_22">
    <path clip-path="url(#p74076cc5cd)" d="M 319.7597 92.218907 
L 329.283152 92.218907 
" style="fill:none;stroke:#008000;stroke-linecap:square;"/>
   </g>
   <g id="line2d_23">
    <path clip-path="url(#p74076cc5cd)" d="M 319.7597 54.125098 
L 329.283152 54.125098 
" style="fill:none;stroke:#008000;stroke-linecap:square;"/>
   </g>
   <g id="line2d_24">
    <path clip-path="url(#p74076cc5cd)" d="M 329.283152 92.218907 
L 329.283152 54.125098 
" style="fill:none;stroke:#008000;stroke-linecap:square;"/>
   </g>
   <g id="line2d_25">
    <path clip-path="url(#p74076cc5cd)" d="M 367.376961 101.742359 
L 367.376961 92.218907 
" style="fill:none;stroke:#008000;stroke-linecap:square;"/>
   </g>
   <g id="line2d_26">
    <path clip-path="url(#p74076cc5cd)" d="M 367.376961 101.742359 
L 405.470769 101.742359 
" style="fill:none;stroke:#008000;stroke-linecap:square;"/>
   </g>
   <g id="line2d_27">
    <path clip-path="url(#p74076cc5cd)" d="M 367.376961 92.218907 
L 405.470769 92.218907 
" style="fill:none;stroke:#008000;stroke-linecap:square;"/>
   </g>
   <g id="line2d_28">
    <path clip-path="url(#p74076cc5cd)" d="M 405.470769 101.742359 
L 405.470769 92.218907 
" style="fill:none;stroke:#008000;stroke-linecap:square;"/>
   </g>
   <g id="line2d_29">
    <path clip-path="url(#p74076cc5cd)" d="M 357.853508 177.929976 
L 357.853508 139.836167 
" style="fill:none;stroke:#008000;stroke-linecap:square;"/>
   </g>
   <g id="line2d_30">
    <path clip-path="url(#p74076cc5cd)" d="M 357.853508 177.929976 
L 367.376961 177.929976 
" style="fill:none;stroke:#008000;stroke-linecap:square;"/>
   </g>
   <g id="line2d_31">
    <path clip-path="url(#p74076cc5cd)" d="M 357.853508 139.836167 
L 367.376961 139.836167 
" style="fill:none;stroke:#008000;stroke-linecap:square;"/>
   </g>
   <g id="line2d_32">
    <path clip-path="url(#p74076cc5cd)" d="M 367.376961 177.929976 
L 367.376961 139.836167 
" style="fill:none;stroke:#008000;stroke-linecap:square;"/>
   </g>
   <g id="line2d_33">
    <path clip-path="url(#p74076cc5cd)" d="M 281.665891 139.836167 
L 281.665891 130.312715 
" style="fill:none;stroke:#008000;stroke-linecap:square;"/>
   </g>
   <g id="line2d_34">
    <path clip-path="url(#p74076cc5cd)" d="M 281.665891 139.836167 
L 319.7597 139.836167 
" style="fill:none;stroke:#008000;stroke-linecap:square;"/>
   </g>
   <g id="line2d_35">
    <path clip-path="url(#p74076cc5cd)" d="M 281.665891 130.312715 
L 319.7597 130.312715 
" style="fill:none;stroke:#008000;stroke-linecap:square;"/>
   </g>
   <g id="line2d_36">
    <path clip-path="url(#p74076cc5cd)" d="M 319.7597 139.836167 
L 319.7597 130.312715 
" style="fill:none;stroke:#008000;stroke-linecap:square;"/>
   </g>
   <g id="line2d_37">
    <path clip-path="url(#p74076cc5cd)" d="M 319.7597 139.836167 
L 319.7597 92.218907 
" style="fill:none;stroke:#0000ff;stroke-linecap:square;"/>
   </g>
   <g id="line2d_38">
    <path clip-path="url(#p74076cc5cd)" d="M 319.7597 139.836167 
L 367.376961 139.836167 
" style="fill:none;stroke:#0000ff;stroke-linecap:square;"/>
   </g>
   <g id="line2d_39">
    <path clip-path="url(#p74076cc5cd)" d="M 319.7597 92.218907 
L 367.376961 92.218907 
" style="fill:none;stroke:#0000ff;stroke-linecap:square;"/>
   </g>
   <g id="line2d_40">
    <path clip-path="url(#p74076cc5cd)" d="M 367.376961 139.836167 
L 367.376961 92.218907 
" style="fill:none;stroke:#0000ff;stroke-linecap:square;"/>
   </g>
   <g id="PathCollection_1">
    <defs>
     <path d="M 0 1.581139 
C 0.419323 1.581139 0.821528 1.41454 1.118034 1.118034 
C 1.41454 0.821528 1.581139 0.419323 1.581139 0 
C 1.581139 -0.419323 1.41454 -0.821528 1.118034 -1.118034 
C 0.821528 -1.41454 0.419323 -1.581139 0 -1.581139 
C -0.419323 -1.581139 -0.821528 -1.41454 -1.118034 -1.118034 
C -1.41454 -0.821528 -1.581139 -0.419323 -1.581139 0 
C -1.581139 0.419323 -1.41454 0.821528 -1.118034 1.118034 
C -0.821528 1.41454 -0.419323 1.581139 0 1.581139 
z
" id="C0_0_c40f114ce9"/>
    </defs>
    <g clip-path="url(#p74076cc5cd)">
     <use style="fill:#008000;" x="62.626492" xlink:href="#C0_0_c40f114ce9" y="101.742359"/>
    </g>
    <g clip-path="url(#p74076cc5cd)">
     <use style="fill:#008000;" x="62.626492" xlink:href="#C0_0_c40f114ce9" y="92.218907"/>
    </g>
    <g clip-path="url(#p74076cc5cd)">
     <use style="fill:#008000;" x="138.814109" xlink:href="#C0_0_c40f114ce9" y="101.742359"/>
    </g>
    <g clip-path="url(#p74076cc5cd)">
     <use style="fill:#008000;" x="138.814109" xlink:href="#C0_0_c40f114ce9" y="92.218907"/>
    </g>
   </g>
   <g id="PathCollection_2">
    <defs>
     <path d="M 0 1.581139 
C 0.419323 1.581139 0.821528 1.41454 1.118034 1.118034 
C 1.41454 0.821528 1.581139 0.419323 1.581139 0 
C 1.581139 -0.419323 1.41454 -0.821528 1.118034 -1.118034 
C 0.821528 -1.41454 0.419323 -1.581139 0 -1.581139 
C -0.419323 -1.581139 -0.821528 -1.41454 -1.118034 -1.118034 
C -1.41454 -0.821528 -1.581139 -0.419323 -1.581139 0 
C -1.581139 0.419323 -1.41454 0.821528 -1.118034 1.118034 
C -0.821528 1.41454 -0.419323 1.581139 0 1.581139 
z
" id="C1_0_f229f6354e"/>
    </defs>
    <g clip-path="url(#p74076cc5cd)">
     <use style="fill:#008000;" x="91.196848" xlink:href="#C1_0_f229f6354e" y="177.929976"/>
    </g>
    <g clip-path="url(#p74076cc5cd)">
     <use style="fill:#008000;" x="91.196848" xlink:href="#C1_0_f229f6354e" y="101.742359"/>
    </g>
    <g clip-path="url(#p74076cc5cd)">
     <use style="fill:#008000;" x="100.7203" xlink:href="#C1_0_f229f6354e" y="177.929976"/>
    </g>
    <g clip-path="url(#p74076cc5cd)">
     <use style="fill:#008000;" x="100.7203" xlink:href="#C1_0_f229f6354e" y="101.742359"/>
    </g>
   </g>
   <g id="PathCollection_3">
    <defs>
     <path d="M 0 1.581139 
C 0.419323 1.581139 0.821528 1.41454 1.118034 1.118034 
C 1.41454 0.821528 1.581139 0.419323 1.581139 0 
C 1.581139 -0.419323 1.41454 -0.821528 1.118034 -1.118034 
C 0.821528 -1.41454 0.419323 -1.581139 0 -1.581139 
C -0.419323 -1.581139 -0.821528 -1.41454 -1.118034 -1.118034 
C -1.41454 -0.821528 -1.581139 -0.419323 -1.581139 0 
C -1.581139 0.419323 -1.41454 0.821528 -1.118034 1.118034 
C -0.821528 1.41454 -0.419323 1.581139 0 1.581139 
z
" id="C2_0_e49488dafa"/>
    </defs>
    <g clip-path="url(#p74076cc5cd)">
     <use style="fill:#008000;" x="15.009231" xlink:href="#C2_0_e49488dafa" y="139.836167"/>
    </g>
    <g clip-path="url(#p74076cc5cd)">
     <use style="fill:#008000;" x="15.009231" xlink:href="#C2_0_e49488dafa" y="130.312715"/>
    </g>
    <g clip-path="url(#p74076cc5cd)">
     <use style="fill:#008000;" x="91.196848" xlink:href="#C2_0_e49488dafa" y="139.836167"/>
    </g>
    <g clip-path="url(#p74076cc5cd)">
     <use style="fill:#008000;" x="91.196848" xlink:href="#C2_0_e49488dafa" y="130.312715"/>
    </g>
   </g>
   <g id="PathCollection_4">
    <defs>
     <path d="M 0 1.581139 
C 0.419323 1.581139 0.821528 1.41454 1.118034 1.118034 
C 1.41454 0.821528 1.581139 0.419323 1.581139 0 
C 1.581139 -0.419323 1.41454 -0.821528 1.118034 -1.118034 
C 0.821528 -1.41454 0.419323 -1.581139 0 -1.581139 
C -0.419323 -1.581139 -0.821528 -1.41454 -1.118034 -1.118034 
C -1.41454 -0.821528 -1.581139 -0.419323 -1.581139 0 
C -1.581139 0.419323 -1.41454 0.821528 -1.118034 1.118034 
C -0.821528 1.41454 -0.419323 1.581139 0 1.581139 
z
" id="C3_0_e72d377439"/>
    </defs>
    <g clip-path="url(#p74076cc5cd)">
     <use style="fill:#008000;" x="53.103039" xlink:href="#C3_0_e72d377439" y="130.312715"/>
    </g>
    <g clip-path="url(#p74076cc5cd)">
     <use style="fill:#008000;" x="53.103039" xlink:href="#C3_0_e72d377439" y="54.125098"/>
    </g>
    <g clip-path="url(#p74076cc5cd)">
     <use style="fill:#008000;" x="62.626492" xlink:href="#C3_0_e72d377439" y="130.312715"/>
    </g>
    <g clip-path="url(#p74076cc5cd)">
     <use style="fill:#008000;" x="62.626492" xlink:href="#C3_0_e72d377439" y="54.125098"/>
    </g>
   </g>
   <g id="PathCollection_5">
    <defs>
     <path d="M 0 1.581139 
C 0.419323 1.581139 0.821528 1.41454 1.118034 1.118034 
C 1.41454 0.821528 1.581139 0.419323 1.581139 0 
C 1.581139 -0.419323 1.41454 -0.821528 1.118034 -1.118034 
C 0.821528 -1.41454 0.419323 -1.581139 0 -1.581139 
C -0.419323 -1.581139 -0.821528 -1.41454 -1.118034 -1.118034 
C -1.41454 -0.821528 -1.581139 -0.419323 -1.581139 0 
C -1.581139 0.419323 -1.41454 0.821528 -1.118034 1.118034 
C -0.821528 1.41454 -0.419323 1.581139 0 1.581139 
z
" id="C4_0_6f5ab9f8dc"/>
    </defs>
    <g clip-path="url(#p74076cc5cd)">
     <use style="fill:#0000ff;" x="62.626492" xlink:href="#C4_0_6f5ab9f8dc" y="130.312715"/>
    </g>
    <g clip-path="url(#p74076cc5cd)">
     <use style="fill:#0000ff;" x="62.626492" xlink:href="#C4_0_6f5ab9f8dc" y="101.742359"/>
    </g>
    <g clip-path="url(#p74076cc5cd)">
     <use style="fill:#0000ff;" x="91.196848" xlink:href="#C4_0_6f5ab9f8dc" y="130.312715"/>
    </g>
    <g clip-path="url(#p74076cc5cd)">
     <use style="fill:#0000ff;" x="91.196848" xlink:href="#C4_0_6f5ab9f8dc" y="101.742359"/>
    </g>
   </g>
   <g id="PathCollection_6">
    <defs>
     <path d="M 0 1.581139 
C 0.419323 1.581139 0.821528 1.41454 1.118034 1.118034 
C 1.41454 0.821528 1.581139 0.419323 1.581139 0 
C 1.581139 -0.419323 1.41454 -0.821528 1.118034 -1.118034 
C 0.821528 -1.41454 0.419323 -1.581139 0 -1.581139 
C -0.419323 -1.581139 -0.821528 -1.41454 -1.118034 -1.118034 
C -1.41454 -0.821528 -1.581139 -0.419323 -1.581139 0 
C -1.581139 0.419323 -1.41454 0.821528 -1.118034 1.118034 
C -0.821528 1.41454 -0.419323 1.581139 0 1.581139 
z
" id="C5_0_a9573e6618"/>
    </defs>
    <g clip-path="url(#p74076cc5cd)">
     <use style="fill:#008000;" x="319.7597" xlink:href="#C5_0_a9573e6618" y="92.218907"/>
    </g>
    <g clip-path="url(#p74076cc5cd)">
     <use style="fill:#008000;" x="319.7597" xlink:href="#C5_0_a9573e6618" y="54.125098"/>
    </g>
    <g clip-path="url(#p74076cc5cd)">
     <use style="fill:#008000;" x="329.283152" xlink:href="#C5_0_a9573e6618" y="92.218907"/>
    </g>
    <g clip-path="url(#p74076cc5cd)">
     <use style="fill:#008000;" x="329.283152" xlink:href="#C5_0_a9573e6618" y="54.125098"/>
    </g>
   </g>
   <g id="PathCollection_7">
    <defs>
     <path d="M 0 1.581139 
C 0.419323 1.581139 0.821528 1.41454 1.118034 1.118034 
C 1.41454 0.821528 1.581139 0.419323 1.581139 0 
C 1.581139 -0.419323 1.41454 -0.821528 1.118034 -1.118034 
C 0.821528 -1.41454 0.419323 -1.581139 0 -1.581139 
C -0.419323 -1.581139 -0.821528 -1.41454 -1.118034 -1.118034 
C -1.41454 -0.821528 -1.581139 -0.419323 -1.581139 0 
C -1.581139 0.419323 -1.41454 0.821528 -1.118034 1.118034 
C -0.821528 1.41454 -0.419323 1.581139 0 1.581139 
z
" id="C6_0_d00eec6e48"/>
    </defs>
    <g clip-path="url(#p74076cc5cd)">
     <use style="fill:#008000;" x="367.376961" xlink:href="#C6_0_d00eec6e48" y="101.742359"/>
    </g>
    <g clip-path="url(#p74076cc5cd)">
     <use style="fill:#008000;" x="367.376961" xlink:href="#C6_0_d00eec6e48" y="92.218907"/>
    </g>
    <g clip-path="url(#p74076cc5cd)">
     <use style="fill:#008000;" x="405.470769" xlink:href="#C6_0_d00eec6e48" y="101.742359"/>
    </g>
    <g clip-path="url(#p74076cc5cd)">
     <use style="fill:#008000;" x="405.470769" xlink:href="#C6_0_d00eec6e48" y="92.218907"/>
    </g>
   </g>
   <g id="PathCollection_8">
    <defs>
     <path d="M 0 1.581139 
C 0.419323 1.581139 0.821528 1.41454 1.118034 1.118034 
C 1.41454 0.821528 1.581139 0.419323 1.581139 0 
C 1.581139 -0.419323 1.41454 -0.821528 1.118034 -1.118034 
C 0.821528 -1.41454 0.419323 -1.581139 0 -1.581139 
C -0.419323 -1.581139 -0.821528 -1.41454 -1.118034 -1.118034 
C -1.41454 -0.821528 -1.581139 -0.419323 -1.581139 0 
C -1.581139 0.419323 -1.41454 0.821528 -1.118034 1.118034 
C -0.821528 1.41454 -0.419323 1.581139 0 1.581139 
z
" id="C7_0_b8fca164bd"/>
    </defs>
    <g clip-path="url(#p74076cc5cd)">
     <use style="fill:#008000;" x="357.853508" xlink:href="#C7_0_b8fca164bd" y="177.929976"/>
    </g>
    <g clip-path="url(#p74076cc5cd)">
     <use style="fill:#008000;" x="357.853508" xlink:href="#C7_0_b8fca164bd" y="139.836167"/>
    </g>
    <g clip-path="url(#p74076cc5cd)">
     <use style="fill:#008000;" x="367.376961" xlink:href="#C7_0_b8fca164bd" y="177.929976"/>
    </g>
    <g clip-path="url(#p74076cc5cd)">
     <use style="fill:#008000;" x="367.376961" xlink:href="#C7_0_b8fca164bd" y="139.836167"/>
    </g>
   </g>
   <g id="PathCollection_9">
    <defs>
     <path d="M 0 1.581139 
C 0.419323 1.581139 0.821528 1.41454 1.118034 1.118034 
C 1.41454 0.821528 1.581139 0.419323 1.581139 0 
C 1.581139 -0.419323 1.41454 -0.821528 1.118034 -1.118034 
C 0.821528 -1.41454 0.419323 -1.581139 0 -1.581139 
C -0.419323 -1.581139 -0.821528 -1.41454 -1.118034 -1.118034 
C -1.41454 -0.821528 -1.581139 -0.419323 -1.581139 0 
C -1.581139 0.419323 -1.41454 0.821528 -1.118034 1.118034 
C -0.821528 1.41454 -0.419323 1.581139 0 1.581139 
z
" id="C8_0_377763aa57"/>
    </defs>
    <g clip-path="url(#p74076cc5cd)">
     <use style="fill:#008000;" x="281.665891" xlink:href="#C8_0_377763aa57" y="139.836167"/>
    </g>
    <g clip-path="url(#p74076cc5cd)">
     <use style="fill:#008000;" x="281.665891" xlink:href="#C8_0_377763aa57" y="130.312715"/>
    </g>
    <g clip-path="url(#p74076cc5cd)">
     <use style="fill:#008000;" x="319.7597" xlink:href="#C8_0_377763aa57" y="139.836167"/>
    </g>
    <g clip-path="url(#p74076cc5cd)">
     <use style="fill:#008000;" x="319.7597" xlink:href="#C8_0_377763aa57" y="130.312715"/>
    </g>
   </g>
   <g id="PathCollection_10">
    <defs>
     <path d="M 0 1.581139 
C 0.419323 1.581139 0.821528 1.41454 1.118034 1.118034 
C 1.41454 0.821528 1.581139 0.419323 1.581139 0 
C 1.581139 -0.419323 1.41454 -0.821528 1.118034 -1.118034 
C 0.821528 -1.41454 0.419323 -1.581139 0 -1.581139 
C -0.419323 -1.581139 -0.821528 -1.41454 -1.118034 -1.118034 
C -1.41454 -0.821528 -1.581139 -0.419323 -1.581139 0 
C -1.581139 0.419323 -1.41454 0.821528 -1.118034 1.118034 
C -0.821528 1.41454 -0.419323 1.581139 0 1.581139 
z
" id="C9_0_bfb742c2b7"/>
    </defs>
    <g clip-path="url(#p74076cc5cd)">
     <use style="fill:#0000ff;" x="319.7597" xlink:href="#C9_0_bfb742c2b7" y="139.836167"/>
    </g>
    <g clip-path="url(#p74076cc5cd)">
     <use style="fill:#0000ff;" x="319.7597" xlink:href="#C9_0_bfb742c2b7" y="92.218907"/>
    </g>
    <g clip-path="url(#p74076cc5cd)">
     <use style="fill:#0000ff;" x="367.376961" xlink:href="#C9_0_bfb742c2b7" y="139.836167"/>
    </g>
    <g clip-path="url(#p74076cc5cd)">
     <use style="fill:#0000ff;" x="367.376961" xlink:href="#C9_0_bfb742c2b7" y="92.218907"/>
    </g>
   </g>
   <g id="matplotlib.axis_1"/>
   <g id="matplotlib.axis_2"/>
   <g id="text_1">
    <!-- $ \left(3, 8, 1\right) $ -->
    <defs>
     <path d="M 31 -24.8125 
Q 25.4375 -20.40625 21.40625 -14.71875 
Q 17.390625 -9.03125 14.8125 -2.578125 
Q 12.25 3.859375 10.984375 10.890625 
Q 9.71875 17.921875 9.71875 25 
Q 9.71875 32.171875 10.984375 39.203125 
Q 12.25 46.234375 14.859375 52.734375 
Q 17.484375 59.234375 21.53125 64.890625 
Q 25.59375 70.5625 31 74.8125 
Q 31 75 31.5 75 
L 32.421875 75 
Q 32.71875 75 32.953125 74.734375 
Q 33.203125 74.46875 33.203125 74.125 
Q 33.203125 73.6875 33.015625 73.484375 
Q 28.125 68.703125 24.875 63.234375 
Q 21.625 57.765625 19.640625 51.578125 
Q 17.671875 45.40625 16.796875 38.78125 
Q 15.921875 32.171875 15.921875 25 
Q 15.921875 -6.78125 32.90625 -23.296875 
Q 33.203125 -23.578125 33.203125 -24.125 
Q 33.203125 -24.359375 32.9375 -24.671875 
Q 32.671875 -25 32.421875 -25 
L 31.5 -25 
Q 31 -25 31 -24.8125 
z
" id="Cmr10-28"/>
     <path d="M 9.515625 7.71875 
Q 11.859375 4.296875 15.8125 2.640625 
Q 19.78125 0.984375 24.3125 0.984375 
Q 30.125 0.984375 32.5625 5.9375 
Q 35.015625 10.890625 35.015625 17.1875 
Q 35.015625 20.015625 34.5 22.84375 
Q 33.984375 25.6875 32.765625 28.125 
Q 31.546875 30.5625 29.421875 32.03125 
Q 27.296875 33.5 24.21875 33.5 
L 17.578125 33.5 
Q 16.703125 33.5 16.703125 34.421875 
L 16.703125 35.296875 
Q 16.703125 36.078125 17.578125 36.078125 
L 23.09375 36.53125 
Q 26.609375 36.53125 28.921875 39.15625 
Q 31.25 41.796875 32.328125 45.578125 
Q 33.40625 49.359375 33.40625 52.78125 
Q 33.40625 57.5625 31.15625 60.640625 
Q 28.90625 63.71875 24.3125 63.71875 
Q 20.515625 63.71875 17.046875 62.28125 
Q 13.578125 60.84375 11.53125 57.90625 
Q 11.71875 57.953125 11.859375 57.984375 
Q 12.015625 58.015625 12.203125 58.015625 
Q 14.453125 58.015625 15.96875 56.453125 
Q 17.484375 54.890625 17.484375 52.6875 
Q 17.484375 50.53125 15.96875 48.96875 
Q 14.453125 47.40625 12.203125 47.40625 
Q 10.015625 47.40625 8.453125 48.96875 
Q 6.890625 50.53125 6.890625 52.6875 
Q 6.890625 56.984375 9.46875 60.15625 
Q 12.0625 63.328125 16.140625 64.96875 
Q 20.21875 66.609375 24.3125 66.609375 
Q 27.34375 66.609375 30.703125 65.703125 
Q 34.078125 64.796875 36.8125 63.109375 
Q 39.546875 61.421875 41.28125 58.78125 
Q 43.015625 56.15625 43.015625 52.78125 
Q 43.015625 48.578125 41.140625 45.015625 
Q 39.265625 41.453125 35.984375 38.859375 
Q 32.71875 36.28125 28.8125 35.015625 
Q 33.15625 34.1875 37.0625 31.734375 
Q 40.96875 29.296875 43.328125 25.484375 
Q 45.703125 21.6875 45.703125 17.28125 
Q 45.703125 11.765625 42.671875 7.296875 
Q 39.65625 2.828125 34.71875 0.3125 
Q 29.78125 -2.203125 24.3125 -2.203125 
Q 19.625 -2.203125 14.90625 -0.40625 
Q 10.203125 1.375 7.203125 4.9375 
Q 4.203125 8.5 4.203125 13.484375 
Q 4.203125 15.96875 5.859375 17.625 
Q 7.515625 19.28125 10.015625 19.28125 
Q 11.625 19.28125 12.96875 18.53125 
Q 14.3125 17.78125 15.0625 16.40625 
Q 15.828125 15.046875 15.828125 13.484375 
Q 15.828125 11.03125 14.109375 9.375 
Q 12.40625 7.71875 10.015625 7.71875 
z
" id="Cmr10-33"/>
     <path d="M 9.90625 -18.015625 
Q 9.90625 -17.578125 10.296875 -17.1875 
Q 13.921875 -13.71875 15.921875 -9.171875 
Q 17.921875 -4.640625 17.921875 0.390625 
L 17.921875 1.609375 
Q 16.3125 0 13.921875 0 
Q 11.625 0 10.015625 1.609375 
Q 8.40625 3.21875 8.40625 5.515625 
Q 8.40625 7.859375 10.015625 9.421875 
Q 11.625 10.984375 13.921875 10.984375 
Q 17.484375 10.984375 19 7.6875 
Q 20.515625 4.390625 20.515625 0.390625 
Q 20.515625 -5.171875 18.28125 -10.171875 
Q 16.0625 -15.1875 12.015625 -19.1875 
Q 11.625 -19.390625 11.375 -19.390625 
Q 10.890625 -19.390625 10.390625 -18.9375 
Q 9.90625 -18.5 9.90625 -18.015625 
z
" id="Cmmi10-3b"/>
     <path d="M 4.203125 15.1875 
Q 4.203125 21.1875 8.15625 25.796875 
Q 12.109375 30.421875 18.3125 33.5 
L 14.59375 35.890625 
Q 11.1875 38.140625 9.03125 41.875 
Q 6.890625 45.609375 6.890625 49.703125 
Q 6.890625 54.5 9.40625 58.34375 
Q 11.921875 62.203125 16.09375 64.40625 
Q 20.265625 66.609375 25 66.609375 
Q 29.4375 66.609375 33.5625 64.796875 
Q 37.703125 62.984375 40.359375 59.609375 
Q 43.015625 56.25 43.015625 51.609375 
Q 43.015625 48.25 41.421875 45.359375 
Q 39.84375 42.484375 37.078125 40.1875 
Q 34.328125 37.890625 31.203125 36.28125 
L 36.921875 32.625 
Q 40.875 30.03125 43.28125 25.828125 
Q 45.703125 21.625 45.703125 17 
Q 45.703125 11.578125 42.796875 7.125 
Q 39.890625 2.6875 35.109375 0.234375 
Q 30.328125 -2.203125 25 -2.203125 
Q 19.828125 -2.203125 15.015625 -0.09375 
Q 10.203125 2 7.203125 5.984375 
Q 4.203125 9.96875 4.203125 15.1875 
z
M 9.625 15.1875 
Q 9.625 11.234375 11.796875 7.953125 
Q 13.96875 4.6875 17.53125 2.828125 
Q 21.09375 0.984375 25 0.984375 
Q 30.8125 0.984375 35.546875 4.375 
Q 40.28125 7.765625 40.28125 13.375 
Q 40.28125 15.28125 39.515625 17.15625 
Q 38.765625 19.046875 37.421875 20.578125 
Q 36.078125 22.125 34.421875 23.09375 
L 21 31.78125 
Q 17.875 30.125 15.25 27.578125 
Q 12.640625 25.046875 11.125 21.875 
Q 9.625 18.703125 9.625 15.1875 
z
M 16.5 45.703125 
L 28.609375 37.890625 
Q 32.8125 40.328125 35.5 43.796875 
Q 38.1875 47.265625 38.1875 51.609375 
Q 38.1875 54.984375 36.296875 57.78125 
Q 34.421875 60.59375 31.390625 62.15625 
Q 28.375 63.71875 24.90625 63.71875 
Q 21.875 63.71875 18.796875 62.546875 
Q 15.71875 61.375 13.71875 59.046875 
Q 11.71875 56.734375 11.71875 53.609375 
Q 11.71875 48.921875 16.5 45.703125 
z
" id="Cmr10-38"/>
     <path d="M 9.28125 0 
L 9.28125 3.515625 
Q 21.78125 3.515625 21.78125 6.6875 
L 21.78125 59.1875 
Q 16.609375 56.6875 8.6875 56.6875 
L 8.6875 60.203125 
Q 20.953125 60.203125 27.203125 66.609375 
L 28.609375 66.609375 
Q 28.953125 66.609375 29.265625 66.328125 
Q 29.59375 66.0625 29.59375 65.71875 
L 29.59375 6.6875 
Q 29.59375 3.515625 42.09375 3.515625 
L 42.09375 0 
z
" id="Cmr10-31"/>
     <path d="M 6.5 -25 
Q 5.609375 -25 5.609375 -24.125 
Q 5.609375 -23.6875 5.8125 -23.484375 
Q 22.90625 -6.78125 22.90625 25 
Q 22.90625 56.78125 6 73.296875 
Q 5.609375 73.53125 5.609375 74.125 
Q 5.609375 74.46875 5.875 74.734375 
Q 6.15625 75 6.5 75 
L 7.421875 75 
Q 7.71875 75 7.90625 74.8125 
Q 15.09375 69.140625 19.875 61.03125 
Q 24.65625 52.9375 26.875 43.75 
Q 29.109375 34.578125 29.109375 25 
Q 29.109375 17.921875 27.90625 11.0625 
Q 26.703125 4.203125 24.09375 -2.453125 
Q 21.484375 -9.125 17.484375 -14.765625 
Q 13.484375 -20.40625 7.90625 -24.8125 
Q 7.71875 -25 7.421875 -25 
z
" id="Cmr10-29"/>
    </defs>
    <g transform="translate(54.73567 43.81342)scale(0.144 -0.144)">
     <use transform="translate(0 2.5)scale(0.86)" xlink:href="#Cmr10-28"/>
     <use transform="translate(33.383789 0.390625)" xlink:href="#Cmr10-33"/>
     <use transform="translate(83.383789 0.390625)" xlink:href="#Cmmi10-3b"/>
     <use transform="translate(128.62793 0.390625)" xlink:href="#Cmr10-38"/>
     <use transform="translate(178.62793 0.390625)" xlink:href="#Cmmi10-3b"/>
     <use transform="translate(223.87207 0.390625)" xlink:href="#Cmr10-31"/>
     <use transform="translate(273.87207 2.5)scale(0.86)" xlink:href="#Cmr10-29"/>
    </g>
   </g>
   <g id="text_2">
    <!-- $ \left(5, 1, 4\right) $ -->
    <defs>
     <path d="M 8.6875 11.375 
Q 9.71875 8.453125 11.84375 6.046875 
Q 13.96875 3.65625 16.875 2.3125 
Q 19.78125 0.984375 22.90625 0.984375 
Q 30.125 0.984375 32.859375 6.59375 
Q 35.59375 12.203125 35.59375 20.21875 
Q 35.59375 23.6875 35.46875 26.046875 
Q 35.359375 28.421875 34.8125 30.609375 
Q 33.890625 34.125 31.5625 36.765625 
Q 29.25 39.40625 25.875 39.40625 
Q 22.515625 39.40625 20.09375 38.375 
Q 17.671875 37.359375 16.15625 35.984375 
Q 14.65625 34.625 13.484375 33.109375 
Q 12.3125 31.59375 12.015625 31.5 
L 10.890625 31.5 
Q 10.640625 31.5 10.265625 31.8125 
Q 9.90625 32.125 9.90625 32.421875 
L 9.90625 65.828125 
Q 9.90625 66.0625 10.21875 66.328125 
Q 10.546875 66.609375 10.890625 66.609375 
L 11.1875 66.609375 
Q 17.921875 63.375 25.484375 63.375 
Q 32.90625 63.375 39.796875 66.609375 
L 40.09375 66.609375 
Q 40.4375 66.609375 40.71875 66.359375 
Q 41.015625 66.109375 41.015625 65.828125 
L 41.015625 64.890625 
Q 41.015625 64.40625 40.828125 64.40625 
Q 37.40625 59.859375 32.25 57.3125 
Q 27.09375 54.78125 21.578125 54.78125 
Q 17.578125 54.78125 13.375 55.90625 
L 13.375 37.015625 
Q 16.703125 39.703125 19.3125 40.84375 
Q 21.921875 42 25.984375 42 
Q 31.5 42 35.859375 38.8125 
Q 40.234375 35.640625 42.578125 30.53125 
Q 44.921875 25.4375 44.921875 20.125 
Q 44.921875 14.109375 41.96875 8.984375 
Q 39.015625 3.859375 33.9375 0.828125 
Q 28.859375 -2.203125 22.90625 -2.203125 
Q 17.96875 -2.203125 13.84375 0.328125 
Q 9.71875 2.875 7.34375 7.171875 
Q 4.984375 11.46875 4.984375 16.3125 
Q 4.984375 18.5625 6.4375 19.96875 
Q 7.90625 21.390625 10.109375 21.390625 
Q 12.3125 21.390625 13.796875 19.9375 
Q 15.28125 18.5 15.28125 16.3125 
Q 15.28125 14.15625 13.796875 12.671875 
Q 12.3125 11.1875 10.109375 11.1875 
Q 9.765625 11.1875 9.328125 11.25 
Q 8.890625 11.328125 8.6875 11.375 
z
" id="Cmr10-35"/>
     <path d="M 2.78125 16.5 
L 2.78125 20.015625 
L 33.6875 66.109375 
Q 34.03125 66.609375 34.71875 66.609375 
L 36.1875 66.609375 
Q 37.3125 66.609375 37.3125 65.484375 
L 37.3125 20.015625 
L 47.125 20.015625 
L 47.125 16.5 
L 37.3125 16.5 
L 37.3125 6.6875 
Q 37.3125 4.640625 40.234375 4.078125 
Q 43.171875 3.515625 47.015625 3.515625 
L 47.015625 0 
L 19.484375 0 
L 19.484375 3.515625 
Q 23.34375 3.515625 26.265625 4.078125 
Q 29.203125 4.640625 29.203125 6.6875 
L 29.203125 16.5 
z
M 6.109375 20.015625 
L 29.78125 20.015625 
L 29.78125 55.421875 
z
" id="Cmr10-34"/>
    </defs>
    <g transform="translate(321.39233 43.81342)scale(0.144 -0.144)">
     <use transform="translate(0 2.5)scale(0.86)" xlink:href="#Cmr10-28"/>
     <use transform="translate(33.383789 0.390625)" xlink:href="#Cmr10-35"/>
     <use transform="translate(83.383789 0.390625)" xlink:href="#Cmmi10-3b"/>
     <use transform="translate(128.62793 0.390625)" xlink:href="#Cmr10-31"/>
     <use transform="translate(178.62793 0.390625)" xlink:href="#Cmmi10-3b"/>
     <use transform="translate(223.87207 0.390625)" xlink:href="#Cmr10-34"/>
     <use transform="translate(273.87207 2.5)scale(0.86)" xlink:href="#Cmr10-29"/>
    </g>
   </g>
  </g>
 </g>
 <defs>
  <clipPath id="p74076cc5cd">
   <rect height="143.613659" width="406.08" x="7.2" y="37.078119"/>
  </clipPath>
 </defs>
</svg>
