<?xml version="1.0" encoding="utf-8" standalone="no"?>
<!DOCTYPE svg PUBLIC "-//W3C//DTD SVG 1.1//EN"
  "http://www.w3.org/Graphics/SVG/1.1/DTD/svg11.dtd">
<!-- Created with matplotlib (http://matplotlib.org/) -->
<svg height="191pt" version="1.1" viewBox="0 0 420 191" width="420pt" xmlns="http://www.w3.org/2000/svg" xmlns:xlink="http://www.w3.org/1999/xlink">
 <defs>
  <style type="text/css">
*{stroke-linecap:butt;stroke-linejoin:round;}
  </style>
 </defs>
 <g id="figure_1">
  <g id="patch_1">
   <path d="M 0 191.423847 
L 420.48 191.423847 
L 420.48 0 
L 0 0 
z
" style="fill:#ffffff;"/>
  </g>
  <g id="axes_1">
   <g id="patch_2">
    <path d="M 7.2 184.223847 
L 413.28 184.223847 
L 413.28 37.194881 
L 7.2 37.194881 
z
" style="fill:#ffffff;"/>
   </g>
   <g id="patch_3">
    <path clip-path="url(#pe54c819899)" d="M 203.507905 114.075412 
L 203.507905 87.14703 
L 270.828859 87.14703 
L 270.828859 114.075412 
L 216.972095 114.075412 
L 243.900477 114.075412 
L 243.900477 181.396367 
L 216.972095 181.396367 
L 216.972095 127.539603 
L 216.972095 154.467985 
L 149.651141 154.467985 
L 149.651141 127.539603 
L 203.507905 127.539603 
L 203.507905 127.539603 
L 176.579523 127.539603 
L 176.579523 60.218648 
L 203.507905 60.218648 
z
" style="fill:#808080;"/>
   </g>
   <g id="line2d_1">
    <path clip-path="url(#pe54c819899)" d="M 68.865995 114.075412 
L 68.865995 87.14703 
" style="fill:none;stroke:#008000;stroke-linecap:square;"/>
   </g>
   <g id="line2d_2">
    <path clip-path="url(#pe54c819899)" d="M 68.865995 114.075412 
L 136.18695 114.075412 
" style="fill:none;stroke:#008000;stroke-linecap:square;"/>
   </g>
   <g id="line2d_3">
    <path clip-path="url(#pe54c819899)" d="M 68.865995 87.14703 
L 136.18695 87.14703 
" style="fill:none;stroke:#008000;stroke-linecap:square;"/>
   </g>
   <g id="line2d_4">
    <path clip-path="url(#pe54c819899)" d="M 136.18695 114.075412 
L 136.18695 87.14703 
" style="fill:none;stroke:#008000;stroke-linecap:square;"/>
   </g>
   <g id="line2d_5">
    <path clip-path="url(#pe54c819899)" d="M 82.330186 181.396367 
L 82.330186 114.075412 
" style="fill:none;stroke:#008000;stroke-linecap:square;"/>
   </g>
   <g id="line2d_6">
    <path clip-path="url(#pe54c819899)" d="M 82.330186 181.396367 
L 109.258568 181.396367 
" style="fill:none;stroke:#008000;stroke-linecap:square;"/>
   </g>
   <g id="line2d_7">
    <path clip-path="url(#pe54c819899)" d="M 82.330186 114.075412 
L 109.258568 114.075412 
" style="fill:none;stroke:#008000;stroke-linecap:square;"/>
   </g>
   <g id="line2d_8">
    <path clip-path="url(#pe54c819899)" d="M 109.258568 181.396367 
L 109.258568 114.075412 
" style="fill:none;stroke:#008000;stroke-linecap:square;"/>
   </g>
   <g id="line2d_9">
    <path clip-path="url(#pe54c819899)" d="M 15.009231 154.467985 
L 15.009231 127.539603 
" style="fill:none;stroke:#008000;stroke-linecap:square;"/>
   </g>
   <g id="line2d_10">
    <path clip-path="url(#pe54c819899)" d="M 15.009231 154.467985 
L 82.330186 154.467985 
" style="fill:none;stroke:#008000;stroke-linecap:square;"/>
   </g>
   <g id="line2d_11">
    <path clip-path="url(#pe54c819899)" d="M 15.009231 127.539603 
L 82.330186 127.539603 
" style="fill:none;stroke:#008000;stroke-linecap:square;"/>
   </g>
   <g id="line2d_12">
    <path clip-path="url(#pe54c819899)" d="M 82.330186 154.467985 
L 82.330186 127.539603 
" style="fill:none;stroke:#008000;stroke-linecap:square;"/>
   </g>
   <g id="line2d_13">
    <path clip-path="url(#pe54c819899)" d="M 41.937613 127.539603 
L 41.937613 60.218648 
" style="fill:none;stroke:#008000;stroke-linecap:square;"/>
   </g>
   <g id="line2d_14">
    <path clip-path="url(#pe54c819899)" d="M 41.937613 127.539603 
L 68.865995 127.539603 
" style="fill:none;stroke:#008000;stroke-linecap:square;"/>
   </g>
   <g id="line2d_15">
    <path clip-path="url(#pe54c819899)" d="M 41.937613 60.218648 
L 68.865995 60.218648 
" style="fill:none;stroke:#008000;stroke-linecap:square;"/>
   </g>
   <g id="line2d_16">
    <path clip-path="url(#pe54c819899)" d="M 68.865995 127.539603 
L 68.865995 60.218648 
" style="fill:none;stroke:#008000;stroke-linecap:square;"/>
   </g>
   <g id="line2d_17">
    <path clip-path="url(#pe54c819899)" d="M 68.865995 127.539603 
L 68.865995 114.075412 
" style="fill:none;stroke:#0000ff;stroke-linecap:square;"/>
   </g>
   <g id="line2d_18">
    <path clip-path="url(#pe54c819899)" d="M 68.865995 127.539603 
L 82.330186 127.539603 
" style="fill:none;stroke:#0000ff;stroke-linecap:square;"/>
   </g>
   <g id="line2d_19">
    <path clip-path="url(#pe54c819899)" d="M 68.865995 114.075412 
L 82.330186 114.075412 
" style="fill:none;stroke:#0000ff;stroke-linecap:square;"/>
   </g>
   <g id="line2d_20">
    <path clip-path="url(#pe54c819899)" d="M 82.330186 127.539603 
L 82.330186 114.075412 
" style="fill:none;stroke:#0000ff;stroke-linecap:square;"/>
   </g>
   <g id="line2d_21">
    <path clip-path="url(#pe54c819899)" d="M 311.221432 87.14703 
L 311.221432 60.218648 
" style="fill:none;stroke:#008000;stroke-linecap:square;"/>
   </g>
   <g id="line2d_22">
    <path clip-path="url(#pe54c819899)" d="M 311.221432 87.14703 
L 338.149814 87.14703 
" style="fill:none;stroke:#008000;stroke-linecap:square;"/>
   </g>
   <g id="line2d_23">
    <path clip-path="url(#pe54c819899)" d="M 311.221432 60.218648 
L 338.149814 60.218648 
" style="fill:none;stroke:#008000;stroke-linecap:square;"/>
   </g>
   <g id="line2d_24">
    <path clip-path="url(#pe54c819899)" d="M 338.149814 87.14703 
L 338.149814 60.218648 
" style="fill:none;stroke:#008000;stroke-linecap:square;"/>
   </g>
   <g id="line2d_25">
    <path clip-path="url(#pe54c819899)" d="M 378.542387 114.075412 
L 378.542387 87.14703 
" style="fill:none;stroke:#008000;stroke-linecap:square;"/>
   </g>
   <g id="line2d_26">
    <path clip-path="url(#pe54c819899)" d="M 378.542387 114.075412 
L 405.470769 114.075412 
" style="fill:none;stroke:#008000;stroke-linecap:square;"/>
   </g>
   <g id="line2d_27">
    <path clip-path="url(#pe54c819899)" d="M 378.542387 87.14703 
L 405.470769 87.14703 
" style="fill:none;stroke:#008000;stroke-linecap:square;"/>
   </g>
   <g id="line2d_28">
    <path clip-path="url(#pe54c819899)" d="M 405.470769 114.075412 
L 405.470769 87.14703 
" style="fill:none;stroke:#008000;stroke-linecap:square;"/>
   </g>
   <g id="line2d_29">
    <path clip-path="url(#pe54c819899)" d="M 351.614005 181.396367 
L 351.614005 154.467985 
" style="fill:none;stroke:#008000;stroke-linecap:square;"/>
   </g>
   <g id="line2d_30">
    <path clip-path="url(#pe54c819899)" d="M 351.614005 181.396367 
L 378.542387 181.396367 
" style="fill:none;stroke:#008000;stroke-linecap:square;"/>
   </g>
   <g id="line2d_31">
    <path clip-path="url(#pe54c819899)" d="M 351.614005 154.467985 
L 378.542387 154.467985 
" style="fill:none;stroke:#008000;stroke-linecap:square;"/>
   </g>
   <g id="line2d_32">
    <path clip-path="url(#pe54c819899)" d="M 378.542387 181.396367 
L 378.542387 154.467985 
" style="fill:none;stroke:#008000;stroke-linecap:square;"/>
   </g>
   <g id="line2d_33">
    <path clip-path="url(#pe54c819899)" d="M 284.29305 154.467985 
L 284.29305 127.539603 
" style="fill:none;stroke:#008000;stroke-linecap:square;"/>
   </g>
   <g id="line2d_34">
    <path clip-path="url(#pe54c819899)" d="M 284.29305 154.467985 
L 311.221432 154.467985 
" style="fill:none;stroke:#008000;stroke-linecap:square;"/>
   </g>
   <g id="line2d_35">
    <path clip-path="url(#pe54c819899)" d="M 284.29305 127.539603 
L 311.221432 127.539603 
" style="fill:none;stroke:#008000;stroke-linecap:square;"/>
   </g>
   <g id="line2d_36">
    <path clip-path="url(#pe54c819899)" d="M 311.221432 154.467985 
L 311.221432 127.539603 
" style="fill:none;stroke:#008000;stroke-linecap:square;"/>
   </g>
   <g id="line2d_37">
    <path clip-path="url(#pe54c819899)" d="M 311.221432 154.467985 
L 311.221432 87.14703 
" style="fill:none;stroke:#0000ff;stroke-linecap:square;"/>
   </g>
   <g id="line2d_38">
    <path clip-path="url(#pe54c819899)" d="M 311.221432 154.467985 
L 378.542387 154.467985 
" style="fill:none;stroke:#0000ff;stroke-linecap:square;"/>
   </g>
   <g id="line2d_39">
    <path clip-path="url(#pe54c819899)" d="M 311.221432 87.14703 
L 378.542387 87.14703 
" style="fill:none;stroke:#0000ff;stroke-linecap:square;"/>
   </g>
   <g id="line2d_40">
    <path clip-path="url(#pe54c819899)" d="M 378.542387 154.467985 
L 378.542387 87.14703 
" style="fill:none;stroke:#0000ff;stroke-linecap:square;"/>
   </g>
   <g id="PathCollection_1">
    <defs>
     <path d="M 0 1.581139 
C 0.419323 1.581139 0.821528 1.41454 1.118034 1.118034 
C 1.41454 0.821528 1.581139 0.419323 1.581139 0 
C 1.581139 -0.419323 1.41454 -0.821528 1.118034 -1.118034 
C 0.821528 -1.41454 0.419323 -1.581139 0 -1.581139 
C -0.419323 -1.581139 -0.821528 -1.41454 -1.118034 -1.118034 
C -1.41454 -0.821528 -1.581139 -0.419323 -1.581139 0 
C -1.581139 0.419323 -1.41454 0.821528 -1.118034 1.118034 
C -0.821528 1.41454 -0.419323 1.581139 0 1.581139 
z
" id="C0_0_7f5f7aa13e"/>
    </defs>
    <g clip-path="url(#pe54c819899)">
     <use style="fill:#008000;" x="68.865995" xlink:href="#C0_0_7f5f7aa13e" y="114.075412"/>
    </g>
    <g clip-path="url(#pe54c819899)">
     <use style="fill:#008000;" x="68.865995" xlink:href="#C0_0_7f5f7aa13e" y="87.14703"/>
    </g>
    <g clip-path="url(#pe54c819899)">
     <use style="fill:#008000;" x="136.18695" xlink:href="#C0_0_7f5f7aa13e" y="114.075412"/>
    </g>
    <g clip-path="url(#pe54c819899)">
     <use style="fill:#008000;" x="136.18695" xlink:href="#C0_0_7f5f7aa13e" y="87.14703"/>
    </g>
   </g>
   <g id="PathCollection_2">
    <defs>
     <path d="M 0 1.581139 
C 0.419323 1.581139 0.821528 1.41454 1.118034 1.118034 
C 1.41454 0.821528 1.581139 0.419323 1.581139 0 
C 1.581139 -0.419323 1.41454 -0.821528 1.118034 -1.118034 
C 0.821528 -1.41454 0.419323 -1.581139 0 -1.581139 
C -0.419323 -1.581139 -0.821528 -1.41454 -1.118034 -1.118034 
C -1.41454 -0.821528 -1.581139 -0.419323 -1.581139 0 
C -1.581139 0.419323 -1.41454 0.821528 -1.118034 1.118034 
C -0.821528 1.41454 -0.419323 1.581139 0 1.581139 
z
" id="C1_0_d175e45323"/>
    </defs>
    <g clip-path="url(#pe54c819899)">
     <use style="fill:#008000;" x="82.330186" xlink:href="#C1_0_d175e45323" y="181.396367"/>
    </g>
    <g clip-path="url(#pe54c819899)">
     <use style="fill:#008000;" x="82.330186" xlink:href="#C1_0_d175e45323" y="114.075412"/>
    </g>
    <g clip-path="url(#pe54c819899)">
     <use style="fill:#008000;" x="109.258568" xlink:href="#C1_0_d175e45323" y="181.396367"/>
    </g>
    <g clip-path="url(#pe54c819899)">
     <use style="fill:#008000;" x="109.258568" xlink:href="#C1_0_d175e45323" y="114.075412"/>
    </g>
   </g>
   <g id="PathCollection_3">
    <defs>
     <path d="M 0 1.581139 
C 0.419323 1.581139 0.821528 1.41454 1.118034 1.118034 
C 1.41454 0.821528 1.581139 0.419323 1.581139 0 
C 1.581139 -0.419323 1.41454 -0.821528 1.118034 -1.118034 
C 0.821528 -1.41454 0.419323 -1.581139 0 -1.581139 
C -0.419323 -1.581139 -0.821528 -1.41454 -1.118034 -1.118034 
C -1.41454 -0.821528 -1.581139 -0.419323 -1.581139 0 
C -1.581139 0.419323 -1.41454 0.821528 -1.118034 1.118034 
C -0.821528 1.41454 -0.419323 1.581139 0 1.581139 
z
" id="C2_0_acf72aec9b"/>
    </defs>
    <g clip-path="url(#pe54c819899)">
     <use style="fill:#008000;" x="15.009231" xlink:href="#C2_0_acf72aec9b" y="154.467985"/>
    </g>
    <g clip-path="url(#pe54c819899)">
     <use style="fill:#008000;" x="15.009231" xlink:href="#C2_0_acf72aec9b" y="127.539603"/>
    </g>
    <g clip-path="url(#pe54c819899)">
     <use style="fill:#008000;" x="82.330186" xlink:href="#C2_0_acf72aec9b" y="154.467985"/>
    </g>
    <g clip-path="url(#pe54c819899)">
     <use style="fill:#008000;" x="82.330186" xlink:href="#C2_0_acf72aec9b" y="127.539603"/>
    </g>
   </g>
   <g id="PathCollection_4">
    <defs>
     <path d="M 0 1.581139 
C 0.419323 1.581139 0.821528 1.41454 1.118034 1.118034 
C 1.41454 0.821528 1.581139 0.419323 1.581139 0 
C 1.581139 -0.419323 1.41454 -0.821528 1.118034 -1.118034 
C 0.821528 -1.41454 0.419323 -1.581139 0 -1.581139 
C -0.419323 -1.581139 -0.821528 -1.41454 -1.118034 -1.118034 
C -1.41454 -0.821528 -1.581139 -0.419323 -1.581139 0 
C -1.581139 0.419323 -1.41454 0.821528 -1.118034 1.118034 
C -0.821528 1.41454 -0.419323 1.581139 0 1.581139 
z
" id="C3_0_0de7e521c0"/>
    </defs>
    <g clip-path="url(#pe54c819899)">
     <use style="fill:#008000;" x="41.937613" xlink:href="#C3_0_0de7e521c0" y="127.539603"/>
    </g>
    <g clip-path="url(#pe54c819899)">
     <use style="fill:#008000;" x="41.937613" xlink:href="#C3_0_0de7e521c0" y="60.218648"/>
    </g>
    <g clip-path="url(#pe54c819899)">
     <use style="fill:#008000;" x="68.865995" xlink:href="#C3_0_0de7e521c0" y="127.539603"/>
    </g>
    <g clip-path="url(#pe54c819899)">
     <use style="fill:#008000;" x="68.865995" xlink:href="#C3_0_0de7e521c0" y="60.218648"/>
    </g>
   </g>
   <g id="PathCollection_5">
    <defs>
     <path d="M 0 1.581139 
C 0.419323 1.581139 0.821528 1.41454 1.118034 1.118034 
C 1.41454 0.821528 1.581139 0.419323 1.581139 0 
C 1.581139 -0.419323 1.41454 -0.821528 1.118034 -1.118034 
C 0.821528 -1.41454 0.419323 -1.581139 0 -1.581139 
C -0.419323 -1.581139 -0.821528 -1.41454 -1.118034 -1.118034 
C -1.41454 -0.821528 -1.581139 -0.419323 -1.581139 0 
C -1.581139 0.419323 -1.41454 0.821528 -1.118034 1.118034 
C -0.821528 1.41454 -0.419323 1.581139 0 1.581139 
z
" id="C4_0_4f926d3a22"/>
    </defs>
    <g clip-path="url(#pe54c819899)">
     <use style="fill:#0000ff;" x="68.865995" xlink:href="#C4_0_4f926d3a22" y="127.539603"/>
    </g>
    <g clip-path="url(#pe54c819899)">
     <use style="fill:#0000ff;" x="68.865995" xlink:href="#C4_0_4f926d3a22" y="114.075412"/>
    </g>
    <g clip-path="url(#pe54c819899)">
     <use style="fill:#0000ff;" x="82.330186" xlink:href="#C4_0_4f926d3a22" y="127.539603"/>
    </g>
    <g clip-path="url(#pe54c819899)">
     <use style="fill:#0000ff;" x="82.330186" xlink:href="#C4_0_4f926d3a22" y="114.075412"/>
    </g>
   </g>
   <g id="PathCollection_6">
    <defs>
     <path d="M 0 1.581139 
C 0.419323 1.581139 0.821528 1.41454 1.118034 1.118034 
C 1.41454 0.821528 1.581139 0.419323 1.581139 0 
C 1.581139 -0.419323 1.41454 -0.821528 1.118034 -1.118034 
C 0.821528 -1.41454 0.419323 -1.581139 0 -1.581139 
C -0.419323 -1.581139 -0.821528 -1.41454 -1.118034 -1.118034 
C -1.41454 -0.821528 -1.581139 -0.419323 -1.581139 0 
C -1.581139 0.419323 -1.41454 0.821528 -1.118034 1.118034 
C -0.821528 1.41454 -0.419323 1.581139 0 1.581139 
z
" id="C5_0_c18395eab3"/>
    </defs>
    <g clip-path="url(#pe54c819899)">
     <use style="fill:#008000;" x="311.221432" xlink:href="#C5_0_c18395eab3" y="87.14703"/>
    </g>
    <g clip-path="url(#pe54c819899)">
     <use style="fill:#008000;" x="311.221432" xlink:href="#C5_0_c18395eab3" y="60.218648"/>
    </g>
    <g clip-path="url(#pe54c819899)">
     <use style="fill:#008000;" x="338.149814" xlink:href="#C5_0_c18395eab3" y="87.14703"/>
    </g>
    <g clip-path="url(#pe54c819899)">
     <use style="fill:#008000;" x="338.149814" xlink:href="#C5_0_c18395eab3" y="60.218648"/>
    </g>
   </g>
   <g id="PathCollection_7">
    <defs>
     <path d="M 0 1.581139 
C 0.419323 1.581139 0.821528 1.41454 1.118034 1.118034 
C 1.41454 0.821528 1.581139 0.419323 1.581139 0 
C 1.581139 -0.419323 1.41454 -0.821528 1.118034 -1.118034 
C 0.821528 -1.41454 0.419323 -1.581139 0 -1.581139 
C -0.419323 -1.581139 -0.821528 -1.41454 -1.118034 -1.118034 
C -1.41454 -0.821528 -1.581139 -0.419323 -1.581139 0 
C -1.581139 0.419323 -1.41454 0.821528 -1.118034 1.118034 
C -0.821528 1.41454 -0.419323 1.581139 0 1.581139 
z
" id="C6_0_7edef7e625"/>
    </defs>
    <g clip-path="url(#pe54c819899)">
     <use style="fill:#008000;" x="378.542387" xlink:href="#C6_0_7edef7e625" y="114.075412"/>
    </g>
    <g clip-path="url(#pe54c819899)">
     <use style="fill:#008000;" x="378.542387" xlink:href="#C6_0_7edef7e625" y="87.14703"/>
    </g>
    <g clip-path="url(#pe54c819899)">
     <use style="fill:#008000;" x="405.470769" xlink:href="#C6_0_7edef7e625" y="114.075412"/>
    </g>
    <g clip-path="url(#pe54c819899)">
     <use style="fill:#008000;" x="405.470769" xlink:href="#C6_0_7edef7e625" y="87.14703"/>
    </g>
   </g>
   <g id="PathCollection_8">
    <defs>
     <path d="M 0 1.581139 
C 0.419323 1.581139 0.821528 1.41454 1.118034 1.118034 
C 1.41454 0.821528 1.581139 0.419323 1.581139 0 
C 1.581139 -0.419323 1.41454 -0.821528 1.118034 -1.118034 
C 0.821528 -1.41454 0.419323 -1.581139 0 -1.581139 
C -0.419323 -1.581139 -0.821528 -1.41454 -1.118034 -1.118034 
C -1.41454 -0.821528 -1.581139 -0.419323 -1.581139 0 
C -1.581139 0.419323 -1.41454 0.821528 -1.118034 1.118034 
C -0.821528 1.41454 -0.419323 1.581139 0 1.581139 
z
" id="C7_0_cb1f856e2a"/>
    </defs>
    <g clip-path="url(#pe54c819899)">
     <use style="fill:#008000;" x="351.614005" xlink:href="#C7_0_cb1f856e2a" y="181.396367"/>
    </g>
    <g clip-path="url(#pe54c819899)">
     <use style="fill:#008000;" x="351.614005" xlink:href="#C7_0_cb1f856e2a" y="154.467985"/>
    </g>
    <g clip-path="url(#pe54c819899)">
     <use style="fill:#008000;" x="378.542387" xlink:href="#C7_0_cb1f856e2a" y="181.396367"/>
    </g>
    <g clip-path="url(#pe54c819899)">
     <use style="fill:#008000;" x="378.542387" xlink:href="#C7_0_cb1f856e2a" y="154.467985"/>
    </g>
   </g>
   <g id="PathCollection_9">
    <defs>
     <path d="M 0 1.581139 
C 0.419323 1.581139 0.821528 1.41454 1.118034 1.118034 
C 1.41454 0.821528 1.581139 0.419323 1.581139 0 
C 1.581139 -0.419323 1.41454 -0.821528 1.118034 -1.118034 
C 0.821528 -1.41454 0.419323 -1.581139 0 -1.581139 
C -0.419323 -1.581139 -0.821528 -1.41454 -1.118034 -1.118034 
C -1.41454 -0.821528 -1.581139 -0.419323 -1.581139 0 
C -1.581139 0.419323 -1.41454 0.821528 -1.118034 1.118034 
C -0.821528 1.41454 -0.419323 1.581139 0 1.581139 
z
" id="C8_0_48780c2541"/>
    </defs>
    <g clip-path="url(#pe54c819899)">
     <use style="fill:#008000;" x="284.29305" xlink:href="#C8_0_48780c2541" y="154.467985"/>
    </g>
    <g clip-path="url(#pe54c819899)">
     <use style="fill:#008000;" x="284.29305" xlink:href="#C8_0_48780c2541" y="127.539603"/>
    </g>
    <g clip-path="url(#pe54c819899)">
     <use style="fill:#008000;" x="311.221432" xlink:href="#C8_0_48780c2541" y="154.467985"/>
    </g>
    <g clip-path="url(#pe54c819899)">
     <use style="fill:#008000;" x="311.221432" xlink:href="#C8_0_48780c2541" y="127.539603"/>
    </g>
   </g>
   <g id="PathCollection_10">
    <defs>
     <path d="M 0 1.581139 
C 0.419323 1.581139 0.821528 1.41454 1.118034 1.118034 
C 1.41454 0.821528 1.581139 0.419323 1.581139 0 
C 1.581139 -0.419323 1.41454 -0.821528 1.118034 -1.118034 
C 0.821528 -1.41454 0.419323 -1.581139 0 -1.581139 
C -0.419323 -1.581139 -0.821528 -1.41454 -1.118034 -1.118034 
C -1.41454 -0.821528 -1.581139 -0.419323 -1.581139 0 
C -1.581139 0.419323 -1.41454 0.821528 -1.118034 1.118034 
C -0.821528 1.41454 -0.419323 1.581139 0 1.581139 
z
" id="C9_0_a8cb6f78eb"/>
    </defs>
    <g clip-path="url(#pe54c819899)">
     <use style="fill:#0000ff;" x="311.221432" xlink:href="#C9_0_a8cb6f78eb" y="154.467985"/>
    </g>
    <g clip-path="url(#pe54c819899)">
     <use style="fill:#0000ff;" x="311.221432" xlink:href="#C9_0_a8cb6f78eb" y="87.14703"/>
    </g>
    <g clip-path="url(#pe54c819899)">
     <use style="fill:#0000ff;" x="378.542387" xlink:href="#C9_0_a8cb6f78eb" y="154.467985"/>
    </g>
    <g clip-path="url(#pe54c819899)">
     <use style="fill:#0000ff;" x="378.542387" xlink:href="#C9_0_a8cb6f78eb" y="87.14703"/>
    </g>
   </g>
   <g id="matplotlib.axis_1"/>
   <g id="matplotlib.axis_2"/>
   <g id="text_1">
    <!-- $ \left(1, 5, 2\right) $ -->
    <defs>
     <path d="M 31 -24.8125 
Q 25.4375 -20.40625 21.40625 -14.71875 
Q 17.390625 -9.03125 14.8125 -2.578125 
Q 12.25 3.859375 10.984375 10.890625 
Q 9.71875 17.921875 9.71875 25 
Q 9.71875 32.171875 10.984375 39.203125 
Q 12.25 46.234375 14.859375 52.734375 
Q 17.484375 59.234375 21.53125 64.890625 
Q 25.59375 70.5625 31 74.8125 
Q 31 75 31.5 75 
L 32.421875 75 
Q 32.71875 75 32.953125 74.734375 
Q 33.203125 74.46875 33.203125 74.125 
Q 33.203125 73.6875 33.015625 73.484375 
Q 28.125 68.703125 24.875 63.234375 
Q 21.625 57.765625 19.640625 51.578125 
Q 17.671875 45.40625 16.796875 38.78125 
Q 15.921875 32.171875 15.921875 25 
Q 15.921875 -6.78125 32.90625 -23.296875 
Q 33.203125 -23.578125 33.203125 -24.125 
Q 33.203125 -24.359375 32.9375 -24.671875 
Q 32.671875 -25 32.421875 -25 
L 31.5 -25 
Q 31 -25 31 -24.8125 
z
" id="Cmr10-28"/>
     <path d="M 9.28125 0 
L 9.28125 3.515625 
Q 21.78125 3.515625 21.78125 6.6875 
L 21.78125 59.1875 
Q 16.609375 56.6875 8.6875 56.6875 
L 8.6875 60.203125 
Q 20.953125 60.203125 27.203125 66.609375 
L 28.609375 66.609375 
Q 28.953125 66.609375 29.265625 66.328125 
Q 29.59375 66.0625 29.59375 65.71875 
L 29.59375 6.6875 
Q 29.59375 3.515625 42.09375 3.515625 
L 42.09375 0 
z
" id="Cmr10-31"/>
     <path d="M 9.90625 -18.015625 
Q 9.90625 -17.578125 10.296875 -17.1875 
Q 13.921875 -13.71875 15.921875 -9.171875 
Q 17.921875 -4.640625 17.921875 0.390625 
L 17.921875 1.609375 
Q 16.3125 0 13.921875 0 
Q 11.625 0 10.015625 1.609375 
Q 8.40625 3.21875 8.40625 5.515625 
Q 8.40625 7.859375 10.015625 9.421875 
Q 11.625 10.984375 13.921875 10.984375 
Q 17.484375 10.984375 19 7.6875 
Q 20.515625 4.390625 20.515625 0.390625 
Q 20.515625 -5.171875 18.28125 -10.171875 
Q 16.0625 -15.1875 12.015625 -19.1875 
Q 11.625 -19.390625 11.375 -19.390625 
Q 10.890625 -19.390625 10.390625 -18.9375 
Q 9.90625 -18.5 9.90625 -18.015625 
z
" id="Cmmi10-3b"/>
     <path d="M 8.6875 11.375 
Q 9.71875 8.453125 11.84375 6.046875 
Q 13.96875 3.65625 16.875 2.3125 
Q 19.78125 0.984375 22.90625 0.984375 
Q 30.125 0.984375 32.859375 6.59375 
Q 35.59375 12.203125 35.59375 20.21875 
Q 35.59375 23.6875 35.46875 26.046875 
Q 35.359375 28.421875 34.8125 30.609375 
Q 33.890625 34.125 31.5625 36.765625 
Q 29.25 39.40625 25.875 39.40625 
Q 22.515625 39.40625 20.09375 38.375 
Q 17.671875 37.359375 16.15625 35.984375 
Q 14.65625 34.625 13.484375 33.109375 
Q 12.3125 31.59375 12.015625 31.5 
L 10.890625 31.5 
Q 10.640625 31.5 10.265625 31.8125 
Q 9.90625 32.125 9.90625 32.421875 
L 9.90625 65.828125 
Q 9.90625 66.0625 10.21875 66.328125 
Q 10.546875 66.609375 10.890625 66.609375 
L 11.1875 66.609375 
Q 17.921875 63.375 25.484375 63.375 
Q 32.90625 63.375 39.796875 66.609375 
L 40.09375 66.609375 
Q 40.4375 66.609375 40.71875 66.359375 
Q 41.015625 66.109375 41.015625 65.828125 
L 41.015625 64.890625 
Q 41.015625 64.40625 40.828125 64.40625 
Q 37.40625 59.859375 32.25 57.3125 
Q 27.09375 54.78125 21.578125 54.78125 
Q 17.578125 54.78125 13.375 55.90625 
L 13.375 37.015625 
Q 16.703125 39.703125 19.3125 40.84375 
Q 21.921875 42 25.984375 42 
Q 31.5 42 35.859375 38.8125 
Q 40.234375 35.640625 42.578125 30.53125 
Q 44.921875 25.4375 44.921875 20.125 
Q 44.921875 14.109375 41.96875 8.984375 
Q 39.015625 3.859375 33.9375 0.828125 
Q 28.859375 -2.203125 22.90625 -2.203125 
Q 17.96875 -2.203125 13.84375 0.328125 
Q 9.71875 2.875 7.34375 7.171875 
Q 4.984375 11.46875 4.984375 16.3125 
Q 4.984375 18.5625 6.4375 19.96875 
Q 7.90625 21.390625 10.109375 21.390625 
Q 12.3125 21.390625 13.796875 19.9375 
Q 15.28125 18.5 15.28125 16.3125 
Q 15.28125 14.15625 13.796875 12.671875 
Q 12.3125 11.1875 10.109375 11.1875 
Q 9.765625 11.1875 9.328125 11.25 
Q 8.890625 11.328125 8.6875 11.375 
z
" id="Cmr10-35"/>
     <path d="M 4.984375 0 
L 4.984375 2.6875 
Q 4.984375 2.9375 5.171875 3.21875 
L 20.703125 20.40625 
Q 24.21875 24.21875 26.40625 26.796875 
Q 28.609375 29.390625 30.75 32.765625 
Q 32.90625 36.140625 34.15625 39.625 
Q 35.40625 43.109375 35.40625 47.015625 
Q 35.40625 51.125 33.890625 54.859375 
Q 32.375 58.59375 29.375 60.84375 
Q 26.375 63.09375 22.125 63.09375 
Q 17.78125 63.09375 14.3125 60.46875 
Q 10.84375 57.859375 9.421875 53.71875 
Q 9.8125 53.8125 10.5 53.8125 
Q 12.75 53.8125 14.328125 52.296875 
Q 15.921875 50.78125 15.921875 48.390625 
Q 15.921875 46.09375 14.328125 44.5 
Q 12.75 42.921875 10.5 42.921875 
Q 8.15625 42.921875 6.5625 44.546875 
Q 4.984375 46.1875 4.984375 48.390625 
Q 4.984375 52.15625 6.390625 55.4375 
Q 7.8125 58.734375 10.46875 61.296875 
Q 13.140625 63.875 16.484375 65.234375 
Q 19.828125 66.609375 23.578125 66.609375 
Q 29.296875 66.609375 34.21875 64.1875 
Q 39.15625 61.765625 42.03125 57.34375 
Q 44.921875 52.9375 44.921875 47.015625 
Q 44.921875 42.671875 43.015625 38.765625 
Q 41.109375 34.859375 38.125 31.65625 
Q 35.15625 28.46875 30.515625 24.40625 
Q 25.875 20.359375 24.421875 19 
L 13.09375 8.109375 
L 22.703125 8.109375 
Q 29.78125 8.109375 34.546875 8.21875 
Q 39.3125 8.34375 39.59375 8.59375 
Q 40.765625 9.859375 42 17.828125 
L 44.921875 17.828125 
L 42.09375 0 
z
" id="Cmr10-32"/>
     <path d="M 6.5 -25 
Q 5.609375 -25 5.609375 -24.125 
Q 5.609375 -23.6875 5.8125 -23.484375 
Q 22.90625 -6.78125 22.90625 25 
Q 22.90625 56.78125 6 73.296875 
Q 5.609375 73.53125 5.609375 74.125 
Q 5.609375 74.46875 5.875 74.734375 
Q 6.15625 75 6.5 75 
L 7.421875 75 
Q 7.71875 75 7.90625 74.8125 
Q 15.09375 69.140625 19.875 61.03125 
Q 24.65625 52.9375 26.875 43.75 
Q 29.109375 34.578125 29.109375 25 
Q 29.109375 17.921875 27.90625 11.0625 
Q 26.703125 4.203125 24.09375 -2.453125 
Q 21.484375 -9.125 17.484375 -14.765625 
Q 13.484375 -20.40625 7.90625 -24.8125 
Q 7.71875 -25 7.421875 -25 
z
" id="Cmr10-29"/>
    </defs>
    <g transform="translate(53.42209 43.995861)scale(0.144 -0.144)">
     <use transform="translate(0 2.5)scale(0.86)" xlink:href="#Cmr10-28"/>
     <use transform="translate(33.383789 0.390625)" xlink:href="#Cmr10-31"/>
     <use transform="translate(83.383789 0.390625)" xlink:href="#Cmmi10-3b"/>
     <use transform="translate(128.62793 0.390625)" xlink:href="#Cmr10-35"/>
     <use transform="translate(178.62793 0.390625)" xlink:href="#Cmmi10-3b"/>
     <use transform="translate(223.87207 0.390625)" xlink:href="#Cmr10-32"/>
     <use transform="translate(273.87207 2.5)scale(0.86)" xlink:href="#Cmr10-29"/>
    </g>
   </g>
   <g id="text_2">
    <!-- $ \left(5, 2, 2\right) $ -->
    <g transform="translate(322.70591 43.995861)scale(0.144 -0.144)">
     <use transform="translate(0 2.5)scale(0.86)" xlink:href="#Cmr10-28"/>
     <use transform="translate(33.383789 0.390625)" xlink:href="#Cmr10-35"/>
     <use transform="translate(83.383789 0.390625)" xlink:href="#Cmmi10-3b"/>
     <use transform="translate(128.62793 0.390625)" xlink:href="#Cmr10-32"/>
     <use transform="translate(178.62793 0.390625)" xlink:href="#Cmmi10-3b"/>
     <use transform="translate(223.87207 0.390625)" xlink:href="#Cmr10-32"/>
     <use transform="translate(273.87207 2.5)scale(0.86)" xlink:href="#Cmr10-29"/>
    </g>
   </g>
  </g>
 </g>
 <defs>
  <clipPath id="pe54c819899">
   <rect height="147.028966" width="406.08" x="7.2" y="37.194881"/>
  </clipPath>
 </defs>
</svg>
