<?xml version="1.0" encoding="utf-8" standalone="no"?>
<!DOCTYPE svg PUBLIC "-//W3C//DTD SVG 1.1//EN"
  "http://www.w3.org/Graphics/SVG/1.1/DTD/svg11.dtd">
<!-- Created with matplotlib (https://matplotlib.org/) -->
<svg height="280.8pt" version="1.1" viewBox="0 0 280.8 280.8" width="280.8pt" xmlns="http://www.w3.org/2000/svg" xmlns:xlink="http://www.w3.org/1999/xlink">
 <metadata>
  <rdf:RDF xmlns:cc="http://creativecommons.org/ns#" xmlns:dc="http://purl.org/dc/elements/1.1/" xmlns:rdf="http://www.w3.org/1999/02/22-rdf-syntax-ns#">
   <cc:Work>
    <dc:type rdf:resource="http://purl.org/dc/dcmitype/StillImage"/>
    <dc:date>2020-10-02T16:20:22.212005</dc:date>
    <dc:format>image/svg+xml</dc:format>
    <dc:creator>
     <cc:Agent>
      <dc:title>Matplotlib v3.3.0, https://matplotlib.org/</dc:title>
     </cc:Agent>
    </dc:creator>
   </cc:Work>
  </rdf:RDF>
 </metadata>
 <defs>
  <style type="text/css">*{stroke-linecap:butt;stroke-linejoin:round;}</style>
 </defs>
 <g id="figure_1">
  <g id="patch_1">
   <path d="M 0 280.8 
L 280.8 280.8 
L 280.8 0 
L 0 0 
z
" style="fill:none;"/>
  </g>
  <g id="axes_1">
   <g id="patch_2">
    <path d="M 7.2 273.6 
L 273.6 273.6 
L 273.6 7.2 
L 7.2 7.2 
z
" style="fill:#ffffff;"/>
   </g>
   <g id="matplotlib.axis_1"/>
   <g id="matplotlib.axis_2"/>
   <g id="line2d_1">
    <path clip-path="url(#p2bb264ed63)" d="M 97.707692 183.092308 
L 97.707692 97.707692 
" style="fill:none;stroke:#000000;stroke-linecap:square;"/>
   </g>
   <g id="line2d_2">
    <path clip-path="url(#p2bb264ed63)" d="M 97.707692 183.092308 
L 183.092308 183.092308 
" style="fill:none;stroke:#000000;stroke-linecap:square;"/>
   </g>
   <g id="line2d_3">
    <path clip-path="url(#p2bb264ed63)" d="M 97.707692 183.092308 
L 69.246154 211.553846 
" style="fill:none;stroke:#000000;stroke-linecap:square;"/>
   </g>
   <g id="line2d_4">
    <path clip-path="url(#p2bb264ed63)" d="M 97.707692 97.707692 
L 183.092308 97.707692 
" style="fill:none;stroke:#000000;stroke-linecap:square;"/>
   </g>
   <g id="line2d_5">
    <path clip-path="url(#p2bb264ed63)" d="M 97.707692 97.707692 
L 12.323077 12.323077 
" style="fill:none;stroke:#000000;stroke-linecap:square;"/>
   </g>
   <g id="line2d_6">
    <path clip-path="url(#p2bb264ed63)" d="M 183.092308 97.707692 
L 183.092308 183.092308 
" style="fill:none;stroke:#000000;stroke-linecap:square;"/>
   </g>
   <g id="line2d_7">
    <path clip-path="url(#p2bb264ed63)" d="M 183.092308 97.707692 
L 268.476923 12.323077 
" style="fill:none;stroke:#000000;stroke-linecap:square;"/>
   </g>
   <g id="line2d_8">
    <path clip-path="url(#p2bb264ed63)" d="M 183.092308 183.092308 
L 268.476923 268.476923 
" style="fill:none;stroke:#000000;stroke-linecap:square;"/>
   </g>
   <g id="line2d_9">
    <path clip-path="url(#p2bb264ed63)" d="M 268.476923 268.476923 
L 268.476923 12.323077 
" style="fill:none;stroke:#000000;stroke-linecap:square;"/>
   </g>
   <g id="line2d_10">
    <path clip-path="url(#p2bb264ed63)" d="M 268.476923 268.476923 
L 55.015385 268.476923 
" style="fill:none;stroke:#000000;stroke-linecap:square;"/>
   </g>
   <g id="line2d_11">
    <path clip-path="url(#p2bb264ed63)" d="M 268.476923 12.323077 
L 12.323077 12.323077 
" style="fill:none;stroke:#000000;stroke-linecap:square;"/>
   </g>
   <g id="line2d_12">
    <path clip-path="url(#p2bb264ed63)" d="M 12.323077 12.323077 
L 12.323077 225.784615 
" style="fill:none;stroke:#000000;stroke-linecap:square;"/>
   </g>
   <g id="line2d_13">
    <path clip-path="url(#p2bb264ed63)" d="M 12.323077 225.784615 
L 69.246154 211.553846 
" style="fill:none;stroke:#000000;stroke-linecap:square;"/>
   </g>
   <g id="line2d_14">
    <path clip-path="url(#p2bb264ed63)" d="M 12.323077 225.784615 
L 55.015385 268.476923 
" style="fill:none;stroke:#000000;stroke-linecap:square;"/>
   </g>
   <g id="line2d_15">
    <path clip-path="url(#p2bb264ed63)" d="M 69.246154 211.553846 
L 55.015385 268.476923 
" style="fill:none;stroke:#000000;stroke-linecap:square;"/>
   </g>
   <g id="PathCollection_1">
    <defs>
     <path d="M 0 7.071068 
C 1.875269 7.071068 3.673985 6.326016 5 5 
C 6.326016 3.673985 7.071068 1.875269 7.071068 0 
C 7.071068 -1.875269 6.326016 -3.673985 5 -5 
C 3.673985 -6.326016 1.875269 -7.071068 0 -7.071068 
C -1.875269 -7.071068 -3.673985 -6.326016 -5 -5 
C -6.326016 -3.673985 -7.071068 -1.875269 -7.071068 0 
C -7.071068 1.875269 -6.326016 3.673985 -5 5 
C -3.673985 6.326016 -1.875269 7.071068 0 7.071068 
z
" id="med3fe3eef6" style="stroke:#000000;"/>
    </defs>
    <g>
     <use style="fill:#fec7b8;stroke:#000000;" x="55.015385" xlink:href="#med3fe3eef6" y="268.476923"/>
     <use style="fill:#fec7b8;stroke:#000000;" x="268.476923" xlink:href="#med3fe3eef6" y="268.476923"/>
     <use style="fill:#fec7b8;stroke:#000000;" x="12.323077" xlink:href="#med3fe3eef6" y="225.784615"/>
     <use style="fill:#fec7b8;stroke:#000000;" x="12.323077" xlink:href="#med3fe3eef6" y="12.323077"/>
     <use style="fill:#fec7b8;stroke:#000000;" x="268.476923" xlink:href="#med3fe3eef6" y="12.323077"/>
     <use style="fill:#fec7b8;stroke:#000000;" x="69.246154" xlink:href="#med3fe3eef6" y="211.553846"/>
     <use style="fill:#fec7b8;stroke:#000000;" x="97.707692" xlink:href="#med3fe3eef6" y="183.092308"/>
     <use style="fill:#fec7b8;stroke:#000000;" x="183.092308" xlink:href="#med3fe3eef6" y="183.092308"/>
     <use style="fill:#fec7b8;stroke:#000000;" x="97.707692" xlink:href="#med3fe3eef6" y="97.707692"/>
     <use style="fill:#fec7b8;stroke:#000000;" x="183.092308" xlink:href="#med3fe3eef6" y="97.707692"/>
    </g>
   </g>
  </g>
 </g>
 <defs>
  <clipPath id="p2bb264ed63">
   <rect height="266.4" width="266.4" x="7.2" y="7.2"/>
  </clipPath>
 </defs>
</svg>
